G04*
G04 #@! TF.GenerationSoftware,Altium Limited,Altium Designer,22.1.2 (22)*
G04*
G04 Layer_Physical_Order=1*
G04 Layer_Color=255*
%FSLAX44Y44*%
%MOMM*%
G71*
G04*
G04 #@! TF.SameCoordinates,ACB05888-95A5-4360-B840-782E19AB6677*
G04*
G04*
G04 #@! TF.FilePolarity,Positive*
G04*
G01*
G75*
%ADD12C,1.0000*%
%ADD35C,0.3000*%
%ADD36C,0.3500*%
%ADD37C,3.2000*%
%ADD38C,1.3580*%
%ADD39R,1.3580X1.3580*%
%ADD40R,1.5080X1.5080*%
%ADD41C,1.5080*%
%ADD42R,1.5080X1.5080*%
%ADD43C,3.5160*%
%ADD44C,1.6500*%
%ADD45R,1.6500X1.6500*%
%ADD46R,1.4080X1.4080*%
%ADD47C,1.4080*%
%ADD48R,0.9850X0.9850*%
%ADD49C,0.9850*%
%ADD50C,1.5750*%
%ADD51R,1.5750X1.5750*%
%ADD52C,1.2580*%
%ADD53C,4.0000*%
%ADD54C,1.2700*%
G36*
X2498631Y1209468D02*
X2484759Y1195596D01*
X2482432Y1196220D01*
X2479788D01*
X2477235Y1195536D01*
X2474945Y1194214D01*
X2473076Y1192345D01*
X2471754Y1190055D01*
X2471070Y1187502D01*
Y1184858D01*
X2471754Y1182305D01*
X2473076Y1180015D01*
X2473195Y1179897D01*
X2472709Y1178723D01*
X2469695D01*
X2466150Y1182268D01*
Y1196220D01*
X2452198D01*
X2438950Y1209468D01*
X2439436Y1210642D01*
X2498145D01*
X2498631Y1209468D01*
D02*
G37*
G36*
X2518131Y1203968D02*
X2509759Y1195596D01*
X2507432Y1196220D01*
X2504788D01*
X2502235Y1195536D01*
X2499945Y1194214D01*
X2498076Y1192345D01*
X2496754Y1190055D01*
X2496070Y1187502D01*
Y1184858D01*
X2496754Y1182305D01*
X2498076Y1180015D01*
X2498195Y1179897D01*
X2497709Y1178723D01*
X2489511D01*
X2489025Y1179897D01*
X2489144Y1180015D01*
X2490466Y1182305D01*
X2491150Y1184858D01*
Y1187502D01*
X2490526Y1189829D01*
X2505839Y1205142D01*
X2517645D01*
X2518131Y1203968D01*
D02*
G37*
G36*
X3107422Y1184333D02*
Y1154849D01*
X3105732Y1153160D01*
X2989698D01*
Y1169100D01*
X2996738Y1176140D01*
X3011050D01*
Y1193713D01*
X3012223Y1194199D01*
X3016594Y1189829D01*
X3015970Y1187502D01*
Y1184858D01*
X3016654Y1182305D01*
X3017976Y1180015D01*
X3019845Y1178146D01*
X3022135Y1176824D01*
X3024688Y1176140D01*
X3027332D01*
X3029885Y1176824D01*
X3032175Y1178146D01*
X3034044Y1180015D01*
X3035366Y1182305D01*
X3036050Y1184858D01*
Y1187502D01*
X3035366Y1190055D01*
X3034044Y1192345D01*
X3032175Y1194214D01*
X3029885Y1195536D01*
X3027332Y1196220D01*
X3024688D01*
X3022361Y1195596D01*
X3014924Y1203034D01*
X3013601Y1203918D01*
X3012040Y1204228D01*
X3012040Y1204228D01*
X2992120D01*
X2992120Y1204228D01*
X2990559Y1203918D01*
X2989236Y1203034D01*
X2958126Y1171924D01*
X2957242Y1170601D01*
X2956931Y1169040D01*
X2956932Y1169040D01*
Y1153160D01*
X2931429D01*
Y1189990D01*
X2931118Y1191551D01*
X2930234Y1192874D01*
X2930234Y1192874D01*
X2913640Y1209468D01*
X2914125Y1210642D01*
X3081113D01*
X3107422Y1184333D01*
D02*
G37*
G36*
X2820079Y1154333D02*
X2819593Y1153160D01*
X2505517D01*
X2505031Y1154333D01*
X2527461Y1176764D01*
X2529788Y1176140D01*
X2532432D01*
X2534985Y1176824D01*
X2537275Y1178146D01*
X2539144Y1180015D01*
X2540466Y1182305D01*
X2541150Y1184858D01*
Y1187502D01*
X2540466Y1190055D01*
X2539144Y1192345D01*
X2539025Y1192463D01*
X2539511Y1193637D01*
X2618625D01*
X2622000Y1190262D01*
Y1176310D01*
X2642080D01*
Y1190262D01*
X2645455Y1193637D01*
X2648541D01*
X2648921Y1192367D01*
X2647684Y1190225D01*
X2647000Y1187672D01*
Y1185028D01*
X2647684Y1182475D01*
X2649006Y1180185D01*
X2650875Y1178316D01*
X2653165Y1176994D01*
X2655718Y1176310D01*
X2658362D01*
X2660915Y1176994D01*
X2663205Y1178316D01*
X2665074Y1180185D01*
X2666396Y1182475D01*
X2667080Y1185028D01*
Y1187672D01*
X2666396Y1190225D01*
X2665159Y1192367D01*
X2665539Y1193637D01*
X2673541D01*
X2673921Y1192367D01*
X2672684Y1190225D01*
X2672000Y1187672D01*
Y1185028D01*
X2672684Y1182475D01*
X2674006Y1180185D01*
X2675875Y1178316D01*
X2678165Y1176994D01*
X2680718Y1176310D01*
X2683362D01*
X2685915Y1176994D01*
X2688205Y1178316D01*
X2690074Y1180185D01*
X2691396Y1182475D01*
X2692080Y1185028D01*
Y1187672D01*
X2691396Y1190225D01*
X2690159Y1192367D01*
X2690539Y1193637D01*
X2698541D01*
X2698921Y1192367D01*
X2697684Y1190225D01*
X2697000Y1187672D01*
Y1185028D01*
X2697684Y1182475D01*
X2699006Y1180185D01*
X2700875Y1178316D01*
X2703165Y1176994D01*
X2705718Y1176310D01*
X2708362D01*
X2710915Y1176994D01*
X2713205Y1178316D01*
X2715074Y1180185D01*
X2716396Y1182475D01*
X2717080Y1185028D01*
Y1187672D01*
X2716396Y1190225D01*
X2715159Y1192367D01*
X2715539Y1193637D01*
X2751205D01*
X2760079Y1184763D01*
X2759750Y1183535D01*
Y1181205D01*
X2760353Y1178954D01*
X2761518Y1176936D01*
X2763166Y1175288D01*
X2765184Y1174123D01*
X2767435Y1173520D01*
X2769765D01*
X2772016Y1174123D01*
X2774034Y1175288D01*
X2775682Y1176936D01*
X2776847Y1178954D01*
X2777450Y1181205D01*
Y1183535D01*
X2776847Y1185786D01*
X2775682Y1187804D01*
X2774034Y1189452D01*
X2772016Y1190617D01*
X2769765Y1191220D01*
X2767435D01*
X2766207Y1190891D01*
X2758630Y1198468D01*
X2759116Y1199642D01*
X2774771D01*
X2820079Y1154333D01*
D02*
G37*
G36*
X2131310Y1209468D02*
X2055284Y1133443D01*
X2053242Y1133990D01*
X2050598D01*
X2048045Y1133306D01*
X2045755Y1131984D01*
X2043886Y1130115D01*
X2042564Y1127825D01*
X2041880Y1125272D01*
Y1122628D01*
X2042564Y1120075D01*
X2043886Y1117785D01*
X2045755Y1115916D01*
X2048045Y1114594D01*
X2050598Y1113910D01*
X2053242D01*
X2055795Y1114594D01*
X2058085Y1115916D01*
X2059954Y1117785D01*
X2061276Y1120075D01*
X2061960Y1122628D01*
Y1125272D01*
X2061413Y1127315D01*
X2138735Y1204637D01*
X2431525D01*
X2446070Y1190092D01*
Y1176140D01*
X2460022D01*
X2464836Y1171326D01*
X2466242Y1170387D01*
X2467900Y1170057D01*
X2507560D01*
X2508046Y1168883D01*
X2496847Y1157685D01*
X2471522D01*
X2471522Y1157685D01*
X2469961Y1157374D01*
X2468638Y1156490D01*
X2465308Y1153160D01*
X2367280D01*
X2299970Y1085850D01*
Y1042092D01*
X2299343Y1041006D01*
X2298740Y1038755D01*
Y1036425D01*
X2299343Y1034174D01*
X2299970Y1033088D01*
Y1028328D01*
X2268009D01*
X2265000Y1031338D01*
Y1047070D01*
X2243500D01*
Y1025570D01*
X2259232D01*
X2263436Y1021366D01*
X2264759Y1020482D01*
X2266320Y1020172D01*
X2266320Y1020172D01*
X2299970D01*
Y1002878D01*
X2268059D01*
X2264231Y1006707D01*
X2264267Y1006771D01*
X2265000Y1009505D01*
Y1012335D01*
X2264267Y1015069D01*
X2262852Y1017521D01*
X2260851Y1019522D01*
X2258399Y1020937D01*
X2255665Y1021670D01*
X2252835D01*
X2250101Y1020937D01*
X2247649Y1019522D01*
X2245648Y1017521D01*
X2244233Y1015069D01*
X2243500Y1012335D01*
Y1009505D01*
X2244233Y1006771D01*
X2245648Y1004319D01*
X2247649Y1002318D01*
X2250101Y1000903D01*
X2252835Y1000170D01*
X2255665D01*
X2258399Y1000903D01*
X2258463Y1000939D01*
X2263486Y995916D01*
X2263486Y995916D01*
X2264809Y995032D01*
X2266370Y994722D01*
X2299970D01*
Y977528D01*
X2268009D01*
X2264231Y981307D01*
X2264267Y981371D01*
X2265000Y984105D01*
Y986935D01*
X2264267Y989669D01*
X2262852Y992121D01*
X2260851Y994122D01*
X2258399Y995537D01*
X2255665Y996270D01*
X2252835D01*
X2250101Y995537D01*
X2247649Y994122D01*
X2245648Y992121D01*
X2244233Y989669D01*
X2243500Y986935D01*
Y984105D01*
X2244233Y981371D01*
X2245648Y978919D01*
X2247649Y976918D01*
X2250101Y975503D01*
X2252835Y974770D01*
X2255665D01*
X2258399Y975503D01*
X2258463Y975539D01*
X2263436Y970566D01*
X2264759Y969682D01*
X2266320Y969372D01*
X2266320Y969372D01*
X2299970D01*
Y921827D01*
X2298797Y921341D01*
X2264231Y955907D01*
X2264267Y955971D01*
X2265000Y958705D01*
Y961535D01*
X2264267Y964269D01*
X2262852Y966721D01*
X2260851Y968722D01*
X2258399Y970137D01*
X2255665Y970870D01*
X2252835D01*
X2250101Y970137D01*
X2247649Y968722D01*
X2245648Y966721D01*
X2244233Y964269D01*
X2243500Y961535D01*
Y958705D01*
X2244233Y955971D01*
X2245648Y953519D01*
X2247649Y951518D01*
X2250101Y950103D01*
X2252835Y949370D01*
X2255665D01*
X2258399Y950103D01*
X2258463Y950139D01*
X2299970Y908632D01*
Y896427D01*
X2298797Y895941D01*
X2264231Y930507D01*
X2264267Y930571D01*
X2265000Y933305D01*
Y936135D01*
X2264267Y938869D01*
X2262852Y941321D01*
X2260851Y943322D01*
X2258399Y944737D01*
X2255665Y945470D01*
X2252835D01*
X2250101Y944737D01*
X2247649Y943322D01*
X2245648Y941321D01*
X2244233Y938869D01*
X2243500Y936135D01*
Y933305D01*
X2244233Y930571D01*
X2245648Y928119D01*
X2247649Y926118D01*
X2250101Y924703D01*
X2252835Y923970D01*
X2255665D01*
X2258399Y924703D01*
X2258463Y924739D01*
X2299970Y883232D01*
Y871027D01*
X2298797Y870541D01*
X2264231Y905107D01*
X2264267Y905171D01*
X2265000Y907905D01*
Y910735D01*
X2264267Y913469D01*
X2262852Y915921D01*
X2260851Y917922D01*
X2258399Y919337D01*
X2255665Y920070D01*
X2252835D01*
X2250101Y919337D01*
X2247649Y917922D01*
X2245648Y915921D01*
X2244233Y913469D01*
X2243500Y910735D01*
Y907905D01*
X2244233Y905171D01*
X2245648Y902719D01*
X2247649Y900718D01*
X2250101Y899303D01*
X2252835Y898570D01*
X2255665D01*
X2258399Y899303D01*
X2258463Y899339D01*
X2299970Y857832D01*
Y845627D01*
X2298797Y845141D01*
X2264231Y879707D01*
X2264267Y879771D01*
X2265000Y882505D01*
Y885335D01*
X2264267Y888069D01*
X2262852Y890521D01*
X2260851Y892522D01*
X2258399Y893937D01*
X2255665Y894670D01*
X2252835D01*
X2250101Y893937D01*
X2247649Y892522D01*
X2245648Y890521D01*
X2244233Y888069D01*
X2243500Y885335D01*
Y882505D01*
X2244233Y879771D01*
X2245648Y877319D01*
X2247649Y875318D01*
X2250101Y873903D01*
X2252835Y873170D01*
X2255665D01*
X2258399Y873903D01*
X2258463Y873939D01*
X2299970Y832432D01*
Y820227D01*
X2298797Y819741D01*
X2264231Y854307D01*
X2264267Y854371D01*
X2265000Y857105D01*
Y859935D01*
X2264267Y862669D01*
X2262852Y865121D01*
X2260851Y867122D01*
X2258399Y868537D01*
X2255665Y869270D01*
X2252835D01*
X2250101Y868537D01*
X2247649Y867122D01*
X2245648Y865121D01*
X2244233Y862669D01*
X2243500Y859935D01*
Y857105D01*
X2244233Y854371D01*
X2245648Y851919D01*
X2247649Y849918D01*
X2250101Y848503D01*
X2252835Y847770D01*
X2255665D01*
X2258399Y848503D01*
X2258463Y848539D01*
X2299970Y807032D01*
Y678558D01*
X2274471D01*
X2274303Y679828D01*
X2275430Y680130D01*
X2277440Y681290D01*
X2279080Y682931D01*
X2280240Y684939D01*
X2280840Y687180D01*
Y687705D01*
X2272030D01*
Y688340D01*
D01*
Y687705D01*
X2263220D01*
Y687180D01*
X2263820Y684939D01*
X2264980Y682931D01*
X2266620Y681290D01*
X2268629Y680130D01*
X2269757Y679828D01*
X2269590Y678558D01*
X2244271D01*
X2243552Y679804D01*
X2241904Y681452D01*
X2239886Y682617D01*
X2237635Y683220D01*
X2235305D01*
X2233054Y682617D01*
X2231036Y681452D01*
X2229388Y679804D01*
X2228223Y677786D01*
X2227620Y675535D01*
Y673205D01*
X2228223Y670954D01*
X2229388Y668936D01*
X2231036Y667288D01*
X2233054Y666123D01*
X2235305Y665520D01*
X2237635D01*
X2239886Y666123D01*
X2241904Y667288D01*
X2243552Y668936D01*
X2244398Y670402D01*
X2265236D01*
X2265762Y669132D01*
X2264980Y668350D01*
X2263820Y666340D01*
X2263220Y664100D01*
Y663575D01*
X2272030D01*
X2280840D01*
Y664100D01*
X2280240Y666340D01*
X2279080Y668350D01*
X2278298Y669132D01*
X2278824Y670402D01*
X2299970D01*
Y642427D01*
X2298797Y641941D01*
X2288774Y651964D01*
X2287451Y652848D01*
X2285890Y653158D01*
X2285890Y653158D01*
X2274471D01*
X2274303Y654428D01*
X2275430Y654730D01*
X2277440Y655890D01*
X2279080Y657531D01*
X2280240Y659539D01*
X2280840Y661780D01*
Y662305D01*
X2272030D01*
X2263220D01*
Y661780D01*
X2263820Y659539D01*
X2264980Y657531D01*
X2266620Y655890D01*
X2268629Y654730D01*
X2269757Y654428D01*
X2269590Y653158D01*
X2244271D01*
X2243552Y654404D01*
X2241904Y656052D01*
X2239886Y657217D01*
X2237635Y657820D01*
X2235305D01*
X2233054Y657217D01*
X2231036Y656052D01*
X2229388Y654404D01*
X2228223Y652386D01*
X2227749Y650617D01*
X2226437Y650134D01*
X2224607Y651964D01*
X2223284Y652848D01*
X2221723Y653158D01*
X2221723Y653158D01*
X2201508D01*
X2201167Y654428D01*
X2201995Y654906D01*
X2203864Y656775D01*
X2205186Y659065D01*
X2205870Y661618D01*
Y664262D01*
X2205186Y666815D01*
X2203864Y669105D01*
X2201995Y670974D01*
X2199705Y672296D01*
X2197152Y672980D01*
X2194508D01*
X2192181Y672356D01*
X2151228Y713309D01*
Y721705D01*
X2152402Y722191D01*
X2185528Y689065D01*
X2185790Y688889D01*
Y687018D01*
X2186474Y684465D01*
X2187796Y682175D01*
X2189665Y680306D01*
X2191955Y678984D01*
X2194508Y678300D01*
X2197152D01*
X2199705Y678984D01*
X2201995Y680306D01*
X2203864Y682175D01*
X2205186Y684465D01*
X2205870Y687018D01*
Y689662D01*
X2205186Y692215D01*
X2203864Y694505D01*
X2201995Y696374D01*
X2199705Y697696D01*
X2197152Y698380D01*
X2194508D01*
X2191955Y697696D01*
X2189721Y696406D01*
X2156728Y729399D01*
Y745415D01*
X2157902Y745901D01*
X2185790Y718012D01*
Y703700D01*
X2205870D01*
Y723780D01*
X2191558D01*
X2162228Y753109D01*
Y830883D01*
X2163498Y831548D01*
X2164167Y831133D01*
Y814799D01*
X2164497Y813140D01*
X2165436Y811735D01*
X2190735Y786436D01*
X2192141Y785497D01*
X2193799Y785167D01*
X2214689D01*
X2216347Y785497D01*
X2217753Y786436D01*
X2234704Y803387D01*
X2244339D01*
X2245648Y801119D01*
X2247649Y799118D01*
X2250101Y797703D01*
X2252835Y796970D01*
X2255665D01*
X2258399Y797703D01*
X2260851Y799118D01*
X2261243Y799511D01*
X2262417Y799025D01*
Y767405D01*
X2227056Y732044D01*
X2226117Y730638D01*
X2225787Y728980D01*
X2226117Y727322D01*
X2227056Y725916D01*
X2228462Y724977D01*
X2230120Y724647D01*
X2231778Y724977D01*
X2233184Y725916D01*
X2266523Y759255D01*
X2267697Y758769D01*
Y721411D01*
X2266620Y720790D01*
X2264980Y719149D01*
X2263820Y717141D01*
X2263220Y714900D01*
Y714375D01*
X2272030D01*
X2280840D01*
Y714900D01*
X2280240Y717141D01*
X2279080Y719149D01*
X2277440Y720790D01*
X2276363Y721411D01*
Y815340D01*
X2276033Y816998D01*
X2275094Y818404D01*
X2269814Y823684D01*
X2269814Y823684D01*
X2263318Y830180D01*
X2263770Y831867D01*
Y832485D01*
X2254885D01*
Y823600D01*
X2255503D01*
X2257190Y824052D01*
X2262417Y818825D01*
Y816415D01*
X2261243Y815929D01*
X2260851Y816322D01*
X2258399Y817737D01*
X2255665Y818470D01*
X2252835D01*
X2250101Y817737D01*
X2247649Y816322D01*
X2245648Y814321D01*
X2244339Y812053D01*
X2232909D01*
X2231250Y811723D01*
X2229845Y810784D01*
X2225441Y806381D01*
X2225349Y806410D01*
X2224332Y807067D01*
X2225000Y810426D01*
Y810678D01*
X2225049Y810924D01*
Y812800D01*
Y1046480D01*
Y1048356D01*
X2225000Y1048602D01*
Y1048854D01*
X2224268Y1052534D01*
X2224172Y1052766D01*
X2224123Y1053012D01*
X2222687Y1056479D01*
X2222547Y1056688D01*
X2222451Y1056920D01*
X2220367Y1060040D01*
X2220189Y1060217D01*
X2220049Y1060426D01*
X2217396Y1063080D01*
X2217187Y1063219D01*
X2217010Y1063397D01*
X2213890Y1065481D01*
X2213658Y1065577D01*
X2213449Y1065717D01*
X2209982Y1067153D01*
X2209736Y1067202D01*
X2209504Y1067298D01*
X2205824Y1068030D01*
X2205572D01*
X2205326Y1068079D01*
X2201574D01*
X2201328Y1068030D01*
X2201076D01*
X2197396Y1067298D01*
X2197164Y1067202D01*
X2196918Y1067153D01*
X2193451Y1065717D01*
X2193242Y1065577D01*
X2193010Y1065481D01*
X2189890Y1063397D01*
X2189713Y1063219D01*
X2189504Y1063080D01*
X2186850Y1060426D01*
X2186711Y1060217D01*
X2186534Y1060040D01*
X2184449Y1056920D01*
X2184353Y1056688D01*
X2184213Y1056479D01*
X2182777Y1053012D01*
X2182728Y1052766D01*
X2182632Y1052534D01*
X2181900Y1048854D01*
Y1048602D01*
X2181851Y1048356D01*
Y1046480D01*
Y812800D01*
Y810924D01*
X2181900Y810678D01*
Y810426D01*
X2182193Y808952D01*
X2181073Y808354D01*
X2172833Y816594D01*
Y831753D01*
X2173934Y832388D01*
X2175582Y834036D01*
X2176747Y836054D01*
X2177350Y838305D01*
Y840635D01*
X2176747Y842886D01*
X2175582Y844904D01*
X2173934Y846552D01*
X2171916Y847717D01*
X2169665Y848320D01*
X2167335D01*
X2165084Y847717D01*
X2163498Y846801D01*
X2162228Y847388D01*
Y1034630D01*
X2162228Y1034630D01*
X2161918Y1036191D01*
X2161034Y1037514D01*
X2121244Y1077304D01*
X2119921Y1078188D01*
X2118360Y1078498D01*
X2118360Y1078498D01*
X2076869D01*
X2058044Y1097323D01*
X2057838Y1098361D01*
X2056954Y1099684D01*
X2056954Y1099684D01*
X2036960Y1119678D01*
Y1133990D01*
X2021527D01*
X2021041Y1135163D01*
X2096519Y1210642D01*
X2130824D01*
X2131310Y1209468D01*
D02*
G37*
G36*
X3175000Y1221740D02*
Y1220470D01*
X3195320Y1200150D01*
Y1153160D01*
X3121078D01*
Y1188300D01*
X3120768Y1189861D01*
X3119884Y1191184D01*
X3119884Y1191184D01*
X3090206Y1220862D01*
X3090694Y1222034D01*
X3175000Y1221740D01*
D02*
G37*
G36*
X2990970Y1191573D02*
Y1181908D01*
X2982736Y1173673D01*
X2981852Y1172350D01*
X2981541Y1170790D01*
X2981541Y1170790D01*
Y1153160D01*
X2965089D01*
Y1167351D01*
X2989797Y1192059D01*
X2990970Y1191573D01*
D02*
G37*
G36*
X2923271Y1188301D02*
Y1153160D01*
X2832788D01*
X2781979Y1203968D01*
X2782466Y1205142D01*
X2906431D01*
X2923271Y1188301D01*
D02*
G37*
G36*
X2016880Y1129343D02*
Y1113910D01*
X2031192D01*
X2050096Y1095007D01*
X2050302Y1093969D01*
X2051186Y1092646D01*
X2072296Y1071536D01*
X2072296Y1071536D01*
X2073619Y1070652D01*
X2075180Y1070342D01*
X2116671D01*
X2154072Y1032941D01*
Y943265D01*
X2152898Y942779D01*
X2112354Y983324D01*
X2111031Y984208D01*
X2109470Y984518D01*
X2109470Y984518D01*
X2078939D01*
X2036490Y1026968D01*
Y1041280D01*
X2023152D01*
X2022657Y1042426D01*
X2023330Y1043252D01*
X2058671D01*
X2067034Y1034889D01*
X2066410Y1032562D01*
Y1029918D01*
X2067094Y1027365D01*
X2068416Y1025075D01*
X2070285Y1023206D01*
X2072575Y1021884D01*
X2075128Y1021200D01*
X2077772D01*
X2080325Y1021884D01*
X2082615Y1023206D01*
X2084484Y1025075D01*
X2085806Y1027365D01*
X2086490Y1029918D01*
Y1032562D01*
X2085806Y1035115D01*
X2084484Y1037405D01*
X2082615Y1039274D01*
X2080325Y1040596D01*
X2077772Y1041280D01*
X2075128D01*
X2072801Y1040657D01*
X2065879Y1047578D01*
X2066365Y1048752D01*
X2078171D01*
X2092034Y1034889D01*
X2091410Y1032562D01*
Y1029918D01*
X2092094Y1027365D01*
X2093416Y1025075D01*
X2095285Y1023206D01*
X2097575Y1021884D01*
X2100128Y1021200D01*
X2102772D01*
X2105325Y1021884D01*
X2107615Y1023206D01*
X2109484Y1025075D01*
X2110806Y1027365D01*
X2111490Y1029918D01*
Y1032562D01*
X2110806Y1035115D01*
X2109484Y1037405D01*
X2107615Y1039274D01*
X2105325Y1040596D01*
X2102772Y1041280D01*
X2100128D01*
X2097801Y1040657D01*
X2082744Y1055714D01*
X2081421Y1056598D01*
X2079860Y1056908D01*
X2079860Y1056908D01*
X2019300D01*
X2019300Y1056908D01*
X2017739Y1056598D01*
X2016416Y1055714D01*
X2016416Y1055714D01*
X1981666Y1020964D01*
X1980782Y1019641D01*
X1980472Y1018080D01*
X1980472Y1018080D01*
Y793273D01*
X1979299Y792787D01*
X1971563Y800523D01*
Y888410D01*
X1977980D01*
Y909910D01*
X1959058D01*
Y917472D01*
X1960328Y917998D01*
X1961385Y916942D01*
X1963555Y915689D01*
X1965977Y915040D01*
X1966595D01*
Y924560D01*
Y934080D01*
X1965977D01*
X1963555Y933431D01*
X1961385Y932178D01*
X1960328Y931122D01*
X1959058Y931648D01*
Y941270D01*
X1960232Y941756D01*
X1960629Y941358D01*
X1963081Y939943D01*
X1965815Y939210D01*
X1968645D01*
X1971379Y939943D01*
X1973831Y941358D01*
X1975832Y943359D01*
X1977247Y945811D01*
X1977980Y948545D01*
Y951375D01*
X1977247Y954109D01*
X1975832Y956561D01*
X1973831Y958562D01*
X1971379Y959977D01*
X1971308Y959996D01*
Y1085431D01*
X2015707Y1129829D01*
X2016880Y1129343D01*
D02*
G37*
G36*
X1963152Y1083393D02*
Y959996D01*
X1963081Y959977D01*
X1960629Y958562D01*
X1960232Y958165D01*
X1959058Y958651D01*
Y1080959D01*
X1961978Y1083879D01*
X1963152Y1083393D01*
D02*
G37*
G36*
X2016410Y1034735D02*
Y1021200D01*
X2030722D01*
X2074366Y977556D01*
X2075689Y976672D01*
X2077250Y976362D01*
X2107781D01*
X2148572Y935571D01*
Y873835D01*
X2147398Y873349D01*
X2119184Y901564D01*
X2117861Y902448D01*
X2116929Y902633D01*
X2116708Y903972D01*
X2118104Y904778D01*
X2119752Y906426D01*
X2120917Y908444D01*
X2121520Y910695D01*
Y913025D01*
X2120917Y915276D01*
X2119752Y917294D01*
X2118104Y918942D01*
X2116086Y920107D01*
X2113835Y920710D01*
X2111505D01*
X2109254Y920107D01*
X2107236Y918942D01*
X2105588Y917294D01*
X2105314Y916820D01*
X2103731Y916617D01*
X2086736Y933611D01*
X2087360Y935938D01*
Y938582D01*
X2086676Y941135D01*
X2085354Y943425D01*
X2085235Y943543D01*
X2085721Y944717D01*
X2093919D01*
X2094405Y943543D01*
X2094286Y943425D01*
X2092964Y941135D01*
X2092280Y938582D01*
Y935938D01*
X2092964Y933385D01*
X2094286Y931095D01*
X2096155Y929226D01*
X2098445Y927904D01*
X2100998Y927220D01*
X2103642D01*
X2106195Y927904D01*
X2108485Y929226D01*
X2110354Y931095D01*
X2111676Y933385D01*
X2112360Y935938D01*
Y938582D01*
X2111676Y941135D01*
X2110354Y943425D01*
X2110235Y943543D01*
X2110721Y944717D01*
X2112395D01*
X2123809Y933303D01*
X2123480Y932075D01*
Y929745D01*
X2124083Y927494D01*
X2125248Y925476D01*
X2126896Y923828D01*
X2128914Y922663D01*
X2131165Y922060D01*
X2133495D01*
X2135746Y922663D01*
X2137764Y923828D01*
X2139412Y925476D01*
X2140577Y927494D01*
X2141180Y929745D01*
Y932075D01*
X2140577Y934326D01*
X2139412Y936344D01*
X2137764Y937992D01*
X2135746Y939157D01*
X2133495Y939760D01*
X2131165D01*
X2129937Y939431D01*
X2117254Y952114D01*
X2115848Y953053D01*
X2114190Y953383D01*
X2064110D01*
X2062452Y953053D01*
X2061046Y952114D01*
X2055685Y946753D01*
X2053642Y947300D01*
X2050998D01*
X2048445Y946616D01*
X2046155Y945294D01*
X2044286Y943425D01*
X2042964Y941135D01*
X2042280Y938582D01*
Y935938D01*
X2042964Y933385D01*
X2044286Y931095D01*
X2046155Y929226D01*
X2048445Y927904D01*
X2050998Y927220D01*
X2053642D01*
X2056195Y927904D01*
X2058485Y929226D01*
X2060354Y931095D01*
X2061676Y933385D01*
X2062360Y935938D01*
Y938582D01*
X2061813Y940624D01*
X2065905Y944717D01*
X2068919D01*
X2069405Y943543D01*
X2069286Y943425D01*
X2067964Y941135D01*
X2067280Y938582D01*
Y935938D01*
X2067964Y933385D01*
X2069286Y931095D01*
X2071155Y929226D01*
X2073445Y927904D01*
X2075998Y927220D01*
X2078642D01*
X2080969Y927843D01*
X2099836Y908976D01*
X2099836Y908976D01*
X2101159Y908092D01*
X2102720Y907782D01*
X2102720Y907782D01*
X2104805D01*
X2105588Y906426D01*
X2107236Y904778D01*
X2108535Y904028D01*
X2108194Y902758D01*
X2067589D01*
X2037360Y932988D01*
Y947300D01*
X2017280D01*
Y927220D01*
X2031592D01*
X2063016Y895796D01*
X2063016Y895796D01*
X2064339Y894912D01*
X2065900Y894602D01*
X2065900Y894602D01*
X2114611D01*
X2143072Y866141D01*
Y711620D01*
X2143072Y711620D01*
X2143382Y710059D01*
X2144266Y708736D01*
X2186414Y666589D01*
X2185790Y664262D01*
Y664087D01*
X2184617Y663601D01*
X2132444Y715774D01*
X2131121Y716658D01*
X2129560Y716968D01*
X2129560Y716968D01*
X2120899D01*
X2087137Y750731D01*
X2087760Y753058D01*
Y755702D01*
X2087076Y758255D01*
X2085754Y760545D01*
X2083885Y762414D01*
X2081595Y763736D01*
X2079042Y764420D01*
X2076398D01*
X2073845Y763736D01*
X2071555Y762414D01*
X2069686Y760545D01*
X2068364Y758255D01*
X2067680Y755702D01*
Y753058D01*
X2068364Y750505D01*
X2069686Y748215D01*
X2071555Y746346D01*
X2073845Y745024D01*
X2076398Y744340D01*
X2079042D01*
X2081369Y744964D01*
X2113691Y712642D01*
X2113205Y711468D01*
X2047659D01*
X2031798Y727329D01*
Y744340D01*
X2037760D01*
Y764420D01*
X2017680D01*
Y744340D01*
X2023642D01*
Y725640D01*
X2023642Y725640D01*
X2023952Y724079D01*
X2024836Y722756D01*
X2043086Y704506D01*
X2044409Y703622D01*
X2045970Y703312D01*
X2124291D01*
X2186414Y641189D01*
X2185790Y638862D01*
Y636218D01*
X2186474Y633665D01*
X2187796Y631375D01*
X2189665Y629506D01*
X2190493Y629028D01*
X2190152Y627758D01*
X2119939D01*
X2087137Y660561D01*
X2087760Y662888D01*
Y665532D01*
X2087076Y668085D01*
X2085754Y670375D01*
X2083885Y672244D01*
X2081595Y673566D01*
X2079042Y674250D01*
X2076398D01*
X2073845Y673566D01*
X2071555Y672244D01*
X2069686Y670375D01*
X2068364Y668085D01*
X2067680Y665532D01*
Y662888D01*
X2068364Y660335D01*
X2069686Y658045D01*
X2071555Y656176D01*
X2073845Y654854D01*
X2076398Y654170D01*
X2079042D01*
X2081369Y654793D01*
X2115366Y620796D01*
X2115366Y620796D01*
X2116689Y619912D01*
X2118250Y619602D01*
X2118250Y619602D01*
X2187434D01*
X2187920Y618428D01*
X2187796Y618305D01*
X2186591Y616218D01*
X2081479D01*
X2037760Y659938D01*
Y674250D01*
X2017680D01*
Y654170D01*
X2031992D01*
X2076906Y609256D01*
X2076906Y609256D01*
X2078229Y608372D01*
X2079790Y608062D01*
X2079790Y608062D01*
X2186591D01*
X2187796Y605975D01*
X2189665Y604106D01*
X2191955Y602784D01*
X2194508Y602100D01*
X2197152D01*
X2199705Y602784D01*
X2201995Y604106D01*
X2203864Y605975D01*
X2205186Y608265D01*
X2205870Y610818D01*
Y613462D01*
X2205186Y616015D01*
X2203864Y618305D01*
X2203740Y618428D01*
X2204226Y619602D01*
X2242481D01*
X2264366Y597716D01*
X2265689Y596832D01*
X2267250Y596522D01*
X2269590D01*
X2269757Y595252D01*
X2268629Y594950D01*
X2266620Y593790D01*
X2264980Y592150D01*
X2263820Y590140D01*
X2263220Y587900D01*
Y587375D01*
X2272030D01*
X2280840D01*
Y587900D01*
X2280240Y590140D01*
X2279080Y592150D01*
X2277440Y593790D01*
X2275430Y594950D01*
X2274303Y595252D01*
X2274471Y596522D01*
X2299970D01*
Y595630D01*
X2387278D01*
X2392926Y589982D01*
X2392440Y588808D01*
X2320542D01*
X2320542Y588808D01*
X2318981Y588498D01*
X2317658Y587614D01*
X2317658Y587614D01*
X2309323Y579278D01*
X2278824D01*
X2278298Y580548D01*
X2279080Y581330D01*
X2280240Y583340D01*
X2280840Y585580D01*
Y586105D01*
X2272030D01*
X2263220D01*
Y585580D01*
X2263820Y583340D01*
X2264980Y581330D01*
X2265762Y580548D01*
X2265236Y579278D01*
X2204226D01*
X2203740Y580452D01*
X2203864Y580575D01*
X2205186Y582865D01*
X2205870Y585418D01*
Y588062D01*
X2205186Y590615D01*
X2203864Y592905D01*
X2201995Y594774D01*
X2199705Y596096D01*
X2197152Y596780D01*
X2194508D01*
X2191955Y596096D01*
X2189665Y594774D01*
X2187796Y592905D01*
X2186591Y590818D01*
X2040890D01*
X2039329Y590508D01*
X2038006Y589624D01*
X2038006Y589624D01*
X2031192Y582810D01*
X2016880D01*
Y562730D01*
X2036960D01*
Y577042D01*
X2042579Y582662D01*
X2046433D01*
X2046773Y581392D01*
X2045755Y580804D01*
X2043886Y578935D01*
X2042564Y576645D01*
X2041880Y574092D01*
Y571448D01*
X2042564Y568895D01*
X2043886Y566605D01*
X2045755Y564736D01*
X2048045Y563414D01*
X2050598Y562730D01*
X2053242D01*
X2055795Y563414D01*
X2058085Y564736D01*
X2059954Y566605D01*
X2061276Y568895D01*
X2061960Y571448D01*
Y574092D01*
X2061276Y576645D01*
X2059954Y578935D01*
X2058085Y580804D01*
X2057067Y581392D01*
X2057407Y582662D01*
X2071433D01*
X2071773Y581392D01*
X2070755Y580804D01*
X2068886Y578935D01*
X2067564Y576645D01*
X2066880Y574092D01*
Y571448D01*
X2067564Y568895D01*
X2068886Y566605D01*
X2070755Y564736D01*
X2073045Y563414D01*
X2075598Y562730D01*
X2078242D01*
X2080569Y563354D01*
X2085576Y558346D01*
X2086899Y557462D01*
X2088460Y557152D01*
X2088460Y557152D01*
X2140344D01*
X2140344Y557152D01*
X2141905Y557462D01*
X2143228Y558346D01*
X2156004Y571122D01*
X2190152D01*
X2190493Y569852D01*
X2189665Y569374D01*
X2187796Y567505D01*
X2186591Y565418D01*
X2170430D01*
X2170430Y565418D01*
X2168869Y565108D01*
X2167546Y564224D01*
X2121751Y518428D01*
X2059940D01*
X2058379Y518118D01*
X2057056Y517234D01*
X2057056Y517234D01*
X2033732Y493910D01*
X2019420D01*
Y476095D01*
X2018247Y475609D01*
X1995058Y498797D01*
Y790887D01*
X1995058Y790888D01*
X1994748Y792448D01*
X1994129Y793375D01*
Y865570D01*
X1995399Y866096D01*
X1996086Y865408D01*
X1998104Y864243D01*
X2000355Y863640D01*
X2002685D01*
X2004936Y864243D01*
X2006954Y865408D01*
X2008602Y867056D01*
X2009237Y868157D01*
X2024225D01*
X2037582Y854800D01*
X2037056Y853530D01*
X2036555Y853530D01*
X2029425D01*
Y845355D01*
X2037600D01*
Y852415D01*
X2037600Y852986D01*
X2038870Y853512D01*
X2044297Y848084D01*
X2043750Y846042D01*
Y843398D01*
X2044434Y840845D01*
X2045756Y838555D01*
X2047625Y836686D01*
X2049915Y835364D01*
X2052468Y834680D01*
X2055112D01*
X2057665Y835364D01*
X2059955Y836686D01*
X2061824Y838555D01*
X2063146Y840845D01*
X2063830Y843398D01*
Y846042D01*
X2063146Y848595D01*
X2061824Y850885D01*
X2059955Y852754D01*
X2057665Y854076D01*
X2055112Y854760D01*
X2052468D01*
X2050426Y854213D01*
X2029084Y875554D01*
X2027678Y876493D01*
X2026020Y876823D01*
X2009237D01*
X2008602Y877924D01*
X2006954Y879572D01*
X2004936Y880737D01*
X2002685Y881340D01*
X2000355D01*
X1998104Y880737D01*
X1996086Y879572D01*
X1995399Y878884D01*
X1994129Y879410D01*
Y1014113D01*
X2015237Y1035221D01*
X2016410Y1034735D01*
D02*
G37*
G36*
X1962897Y798728D02*
X1963227Y797069D01*
X1964166Y795664D01*
X1966856Y792973D01*
X1966370Y791800D01*
X1965815D01*
X1963081Y791067D01*
X1963017Y791031D01*
X1959058Y794989D01*
Y888410D01*
X1962897D01*
Y798728D01*
D02*
G37*
G36*
X2092192Y1225522D02*
X2092315Y1224251D01*
X2090991Y1223988D01*
X2089668Y1223104D01*
X1952096Y1085532D01*
X1951212Y1084209D01*
X1950902Y1082648D01*
X1950902Y1082648D01*
Y793300D01*
X1950902Y793300D01*
X1951212Y791739D01*
X1952096Y790416D01*
X1957249Y785263D01*
X1957213Y785199D01*
X1956480Y782465D01*
Y779635D01*
X1957213Y776901D01*
X1958628Y774449D01*
X1960629Y772448D01*
X1963081Y771033D01*
X1965815Y770300D01*
X1968645D01*
X1971379Y771033D01*
X1973831Y772448D01*
X1974223Y772841D01*
X1975397Y772355D01*
Y762743D01*
X1974127Y762216D01*
X1973075Y763268D01*
X1970905Y764521D01*
X1968483Y765170D01*
X1967865D01*
Y755650D01*
Y746130D01*
X1968483D01*
X1970905Y746779D01*
X1973075Y748032D01*
X1974127Y749083D01*
X1975397Y748557D01*
Y744545D01*
X1971852Y741000D01*
X1956480D01*
Y719500D01*
X1977980D01*
Y734872D01*
X1980228Y737120D01*
X1981402Y736634D01*
Y494830D01*
X1981402Y494830D01*
X1981712Y493269D01*
X1982596Y491946D01*
X2069756Y404786D01*
X2069756Y404786D01*
X2071079Y403902D01*
X2072640Y403592D01*
X2289233D01*
X2296681Y396143D01*
X2296195Y394970D01*
X2063750D01*
X1947050Y511670D01*
X1947676Y512840D01*
X1951044Y512170D01*
X1955476D01*
X1959823Y513035D01*
X1963918Y514731D01*
X1967603Y517193D01*
X1970737Y520327D01*
X1973199Y524012D01*
X1974895Y528107D01*
X1975760Y532454D01*
Y536886D01*
X1974895Y541233D01*
X1973199Y545328D01*
X1970737Y549013D01*
X1967603Y552147D01*
X1963918Y554609D01*
X1959823Y556305D01*
X1955476Y557170D01*
X1951044D01*
X1946697Y556305D01*
X1942602Y554609D01*
X1941680Y553993D01*
X1940560Y554592D01*
Y1089660D01*
X1949450Y1098550D01*
X2076450Y1225550D01*
X2084070D01*
X2092192Y1225522D01*
D02*
G37*
G36*
X2299970Y629232D02*
Y627758D01*
X2274471D01*
X2274303Y629028D01*
X2275430Y629330D01*
X2277440Y630490D01*
X2279080Y632131D01*
X2280240Y634140D01*
X2280840Y636380D01*
Y636905D01*
X2272030D01*
X2263220D01*
Y636380D01*
X2263716Y634528D01*
X2263176Y633547D01*
X2262863Y633258D01*
X2243312D01*
X2237634Y638937D01*
X2238117Y640249D01*
X2239886Y640723D01*
X2241904Y641888D01*
X2243552Y643536D01*
X2244398Y645002D01*
X2265236D01*
X2265762Y643732D01*
X2264980Y642950D01*
X2263820Y640940D01*
X2263220Y638700D01*
Y638175D01*
X2272030D01*
X2280840D01*
Y638700D01*
X2280240Y640940D01*
X2279080Y642950D01*
X2278298Y643732D01*
X2278824Y645002D01*
X2284201D01*
X2299970Y629232D01*
D02*
G37*
G36*
X2236104Y628932D02*
X2235618Y627758D01*
X2201508D01*
X2201167Y629028D01*
X2201995Y629506D01*
X2203864Y631375D01*
X2205186Y633665D01*
X2205870Y636218D01*
Y638862D01*
X2205186Y641415D01*
X2203864Y643705D01*
X2203740Y643828D01*
X2204226Y645002D01*
X2220034D01*
X2236104Y628932D01*
D02*
G37*
G36*
X2299970Y604678D02*
X2278824D01*
X2278298Y605948D01*
X2279080Y606730D01*
X2280240Y608740D01*
X2280840Y610980D01*
Y611505D01*
X2272030D01*
Y612775D01*
X2280840D01*
Y613300D01*
X2280240Y615541D01*
X2279080Y617550D01*
X2278298Y618332D01*
X2278824Y619602D01*
X2299970D01*
Y604678D01*
D02*
G37*
G36*
X2901427Y542258D02*
X2899129Y539960D01*
X2898716D01*
X2896602Y539394D01*
X2894708Y538300D01*
X2893160Y536752D01*
X2892716Y535983D01*
X2879880D01*
X2878222Y535653D01*
X2876816Y534714D01*
X2844276Y502174D01*
X2843336Y500768D01*
X2843007Y499110D01*
X2843336Y497452D01*
X2844276Y496046D01*
X2845682Y495107D01*
X2847340Y494777D01*
X2848998Y495107D01*
X2850404Y496046D01*
X2881675Y527317D01*
X2892716D01*
X2893160Y526548D01*
X2894708Y525000D01*
X2896602Y523906D01*
X2898716Y523340D01*
X2899175D01*
Y531650D01*
X2900445D01*
Y523340D01*
X2900904D01*
X2903018Y523906D01*
X2904912Y525000D01*
X2906460Y526548D01*
X2907554Y528442D01*
X2907917Y529798D01*
X2909187Y529630D01*
Y526973D01*
X2909517Y525315D01*
X2910456Y523909D01*
X2945477Y488889D01*
Y483771D01*
X2944303Y483285D01*
X2941584Y486004D01*
X2940178Y486943D01*
X2938520Y487273D01*
X2788654D01*
X2788064Y488295D01*
X2786195Y490164D01*
X2783905Y491486D01*
X2781352Y492170D01*
X2778708D01*
X2776155Y491486D01*
X2773865Y490164D01*
X2771996Y488295D01*
X2770674Y486005D01*
X2769990Y483452D01*
Y480808D01*
X2770537Y478765D01*
X2698785Y407013D01*
X2654398D01*
X2653872Y408283D01*
X2654714Y409125D01*
X2656036Y411415D01*
X2656720Y413968D01*
Y416612D01*
X2656036Y419165D01*
X2654714Y421455D01*
X2652845Y423324D01*
X2650555Y424646D01*
X2648002Y425330D01*
X2645358D01*
X2642805Y424646D01*
X2640515Y423324D01*
X2638646Y421455D01*
X2637324Y419165D01*
X2636640Y416612D01*
Y413968D01*
X2637324Y411415D01*
X2638646Y409125D01*
X2639488Y408283D01*
X2638962Y407013D01*
X2628998D01*
X2628472Y408283D01*
X2629314Y409125D01*
X2630636Y411415D01*
X2631320Y413968D01*
Y416612D01*
X2630636Y419165D01*
X2629314Y421455D01*
X2627445Y423324D01*
X2625155Y424646D01*
X2622602Y425330D01*
X2619958D01*
X2617405Y424646D01*
X2615115Y423324D01*
X2613246Y421455D01*
X2611924Y419165D01*
X2611240Y416612D01*
Y413968D01*
X2611924Y411415D01*
X2613246Y409125D01*
X2614088Y408283D01*
X2613562Y407013D01*
X2603598D01*
X2603072Y408283D01*
X2603914Y409125D01*
X2605236Y411415D01*
X2605920Y413968D01*
Y416612D01*
X2605236Y419165D01*
X2603914Y421455D01*
X2602045Y423324D01*
X2599755Y424646D01*
X2597202Y425330D01*
X2594558D01*
X2592005Y424646D01*
X2589715Y423324D01*
X2587846Y421455D01*
X2586524Y419165D01*
X2585840Y416612D01*
Y413968D01*
X2586524Y411415D01*
X2587846Y409125D01*
X2588688Y408283D01*
X2588162Y407013D01*
X2578198D01*
X2577672Y408283D01*
X2578514Y409125D01*
X2579836Y411415D01*
X2580520Y413968D01*
Y416612D01*
X2579836Y419165D01*
X2578514Y421455D01*
X2576645Y423324D01*
X2574355Y424646D01*
X2571802Y425330D01*
X2569158D01*
X2566605Y424646D01*
X2564315Y423324D01*
X2562446Y421455D01*
X2561124Y419165D01*
X2560440Y416612D01*
Y413968D01*
X2561124Y411415D01*
X2562446Y409125D01*
X2563288Y408283D01*
X2562762Y407013D01*
X2559485D01*
X2554573Y411926D01*
X2555120Y413968D01*
Y416612D01*
X2554436Y419165D01*
X2553114Y421455D01*
X2551245Y423324D01*
X2548955Y424646D01*
X2546402Y425330D01*
X2543758D01*
X2541205Y424646D01*
X2538915Y423324D01*
X2537046Y421455D01*
X2535989Y419623D01*
X2528771D01*
X2527714Y421455D01*
X2525845Y423324D01*
X2523555Y424646D01*
X2521002Y425330D01*
X2518358D01*
X2515805Y424646D01*
X2513515Y423324D01*
X2511646Y421455D01*
X2510589Y419623D01*
X2503371D01*
X2502314Y421455D01*
X2500445Y423324D01*
X2498155Y424646D01*
X2495602Y425330D01*
X2492958D01*
X2490916Y424783D01*
X2485554Y430144D01*
X2484148Y431083D01*
X2482490Y431413D01*
X2404470D01*
X2402812Y431083D01*
X2401406Y430144D01*
X2396044Y424783D01*
X2394002Y425330D01*
X2391358D01*
X2389998Y424966D01*
X2365899Y449064D01*
X2364494Y450003D01*
X2362835Y450333D01*
X2274865D01*
X2252717Y472481D01*
X2252785Y472733D01*
Y474688D01*
X2252279Y476576D01*
X2251301Y478269D01*
X2249919Y479651D01*
X2248226Y480629D01*
X2246337Y481135D01*
X2244382D01*
X2242494Y480629D01*
X2240801Y479651D01*
X2239419Y478269D01*
X2238441Y476576D01*
X2237935Y474688D01*
Y472733D01*
X2238441Y470844D01*
X2239419Y469151D01*
X2240801Y467769D01*
X2242494Y466791D01*
X2244382Y466285D01*
X2246337D01*
X2246589Y466353D01*
X2248965Y463977D01*
X2248479Y462803D01*
X2236995D01*
X2226723Y473075D01*
X2220595D01*
Y466947D01*
X2232136Y455406D01*
X2233542Y454467D01*
X2235200Y454137D01*
X2248645D01*
X2266426Y436356D01*
X2267832Y435417D01*
X2269490Y435087D01*
X2359135D01*
X2362947Y431275D01*
Y424100D01*
X2358470D01*
Y415925D01*
X2367280D01*
Y415290D01*
X2367915D01*
Y406480D01*
X2369962D01*
X2376006Y400436D01*
X2377412Y399497D01*
X2379070Y399167D01*
X2457090D01*
X2458748Y399497D01*
X2460154Y400436D01*
X2466520Y406802D01*
X2467720Y406480D01*
X2468245D01*
Y415290D01*
X2469515D01*
Y406480D01*
X2470040D01*
X2471240Y406802D01*
X2477886Y400156D01*
X2479292Y399217D01*
X2480950Y398887D01*
X2534616D01*
X2535206Y397617D01*
X2534293Y396036D01*
X2534008Y394970D01*
X2317168D01*
X2296084Y416054D01*
X2294761Y416938D01*
X2293200Y417248D01*
X2293200Y417248D01*
X2076608D01*
X2021199Y472657D01*
X2021685Y473830D01*
X2039500D01*
Y488142D01*
X2061629Y510272D01*
X2098435D01*
X2098921Y509098D01*
X2083109Y493287D01*
X2080782Y493910D01*
X2078138D01*
X2075585Y493226D01*
X2073295Y491904D01*
X2071426Y490035D01*
X2070104Y487745D01*
X2069420Y485192D01*
Y482548D01*
X2070104Y479995D01*
X2071426Y477705D01*
X2073295Y475836D01*
X2075585Y474514D01*
X2078138Y473830D01*
X2080782D01*
X2083335Y474514D01*
X2085625Y475836D01*
X2087494Y477705D01*
X2088816Y479995D01*
X2089500Y482548D01*
Y485192D01*
X2088876Y487519D01*
X2106129Y504772D01*
X2117935D01*
X2118421Y503598D01*
X2108109Y493287D01*
X2105782Y493910D01*
X2103138D01*
X2100585Y493226D01*
X2098295Y491904D01*
X2096426Y490035D01*
X2095104Y487745D01*
X2094420Y485192D01*
Y482548D01*
X2095104Y479995D01*
X2096426Y477705D01*
X2098295Y475836D01*
X2100585Y474514D01*
X2103138Y473830D01*
X2105782D01*
X2108335Y474514D01*
X2110625Y475836D01*
X2112494Y477705D01*
X2113816Y479995D01*
X2114500Y482548D01*
Y485192D01*
X2113876Y487519D01*
X2125629Y499272D01*
X2130378D01*
X2130378Y499272D01*
X2131939Y499582D01*
X2133262Y500466D01*
X2169317Y536522D01*
X2382100D01*
X2382100Y536522D01*
X2383661Y536832D01*
X2383825Y536942D01*
X2391410D01*
X2391410Y536942D01*
X2392971Y537252D01*
X2394294Y538136D01*
X2414431Y558274D01*
X2416758Y557650D01*
X2419402D01*
X2421955Y558334D01*
X2424245Y559656D01*
X2426114Y561525D01*
X2427436Y563815D01*
X2428120Y566368D01*
Y569012D01*
X2427436Y571565D01*
X2426114Y573855D01*
X2425990Y573978D01*
X2426476Y575152D01*
X2430251D01*
X2434064Y571339D01*
X2433440Y569012D01*
Y566368D01*
X2434124Y563815D01*
X2435446Y561525D01*
X2437315Y559656D01*
X2439605Y558334D01*
X2442158Y557650D01*
X2444802D01*
X2447355Y558334D01*
X2449645Y559656D01*
X2451514Y561525D01*
X2452836Y563815D01*
X2453520Y566368D01*
Y569012D01*
X2452836Y571565D01*
X2451514Y573855D01*
X2449645Y575724D01*
X2447355Y577046D01*
X2444802Y577730D01*
X2442158D01*
X2439831Y577107D01*
X2437459Y579478D01*
X2437945Y580652D01*
X2475551D01*
X2484863Y571339D01*
X2484240Y569012D01*
Y566368D01*
X2484924Y563815D01*
X2486246Y561525D01*
X2488115Y559656D01*
X2490405Y558334D01*
X2492958Y557650D01*
X2495602D01*
X2498155Y558334D01*
X2500445Y559656D01*
X2502314Y561525D01*
X2503636Y563815D01*
X2504320Y566368D01*
Y569012D01*
X2503636Y571565D01*
X2502314Y573855D01*
X2500445Y575724D01*
X2498155Y577046D01*
X2495602Y577730D01*
X2492958D01*
X2490631Y577107D01*
X2481808Y585930D01*
X2482294Y587103D01*
X2519899D01*
X2535663Y571339D01*
X2535040Y569012D01*
Y566368D01*
X2535724Y563815D01*
X2537046Y561525D01*
X2538915Y559656D01*
X2541205Y558334D01*
X2543758Y557650D01*
X2546402D01*
X2548955Y558334D01*
X2551245Y559656D01*
X2553114Y561525D01*
X2554436Y563815D01*
X2555120Y566368D01*
Y569012D01*
X2554436Y571565D01*
X2553114Y573855D01*
X2551245Y575724D01*
X2548955Y577046D01*
X2546402Y577730D01*
X2543758D01*
X2541431Y577107D01*
X2527108Y591430D01*
X2527594Y592603D01*
X2565199D01*
X2586464Y571339D01*
X2585840Y569012D01*
Y566368D01*
X2586524Y563815D01*
X2587846Y561525D01*
X2589715Y559656D01*
X2592005Y558334D01*
X2594558Y557650D01*
X2597202D01*
X2599755Y558334D01*
X2602045Y559656D01*
X2603914Y561525D01*
X2605236Y563815D01*
X2605920Y566368D01*
Y569012D01*
X2605236Y571565D01*
X2603914Y573855D01*
X2602045Y575724D01*
X2599755Y577046D01*
X2597202Y577730D01*
X2594558D01*
X2592231Y577107D01*
X2574881Y594457D01*
X2575367Y595630D01*
X2587572D01*
X2611863Y571339D01*
X2611240Y569012D01*
Y566368D01*
X2611924Y563815D01*
X2613246Y561525D01*
X2615115Y559656D01*
X2617405Y558334D01*
X2619958Y557650D01*
X2622602D01*
X2625155Y558334D01*
X2627445Y559656D01*
X2629314Y561525D01*
X2630636Y563815D01*
X2631320Y566368D01*
Y569012D01*
X2630636Y571565D01*
X2629314Y573855D01*
X2627445Y575724D01*
X2625155Y577046D01*
X2622602Y577730D01*
X2619958D01*
X2617631Y577107D01*
X2600281Y594457D01*
X2600767Y595630D01*
X2637146D01*
X2654142Y578634D01*
Y576086D01*
X2652968Y575600D01*
X2652845Y575724D01*
X2650555Y577046D01*
X2648002Y577730D01*
X2645358D01*
X2642805Y577046D01*
X2640515Y575724D01*
X2638646Y573855D01*
X2637324Y571565D01*
X2636640Y569012D01*
Y566368D01*
X2637324Y563815D01*
X2638646Y561525D01*
X2640515Y559656D01*
X2642805Y558334D01*
X2645358Y557650D01*
X2645533D01*
X2646019Y556477D01*
X2609684Y520141D01*
X2483293D01*
X2481732Y519831D01*
X2480409Y518947D01*
X2480409Y518947D01*
X2434246Y472784D01*
X2433362Y471461D01*
X2433052Y469900D01*
X2433052Y469900D01*
Y462524D01*
X2431696Y461742D01*
X2430048Y460094D01*
X2428883Y458076D01*
X2428280Y455825D01*
Y453495D01*
X2428883Y451244D01*
X2430048Y449226D01*
X2431696Y447578D01*
X2433714Y446413D01*
X2435965Y445810D01*
X2438295D01*
X2440546Y446413D01*
X2442564Y447578D01*
X2444212Y449226D01*
X2445377Y451244D01*
X2445980Y453495D01*
Y455825D01*
X2445377Y458076D01*
X2444212Y460094D01*
X2442564Y461742D01*
X2441208Y462524D01*
Y468211D01*
X2484982Y511985D01*
X2611373D01*
X2611373Y511985D01*
X2612934Y512295D01*
X2614257Y513179D01*
X2661104Y560026D01*
X2661988Y561349D01*
X2662298Y562910D01*
X2662298Y562910D01*
Y580323D01*
X2662298Y580323D01*
X2661988Y581884D01*
X2661104Y583207D01*
X2649854Y594457D01*
X2650341Y595630D01*
X2901427D01*
Y542258D01*
D02*
G37*
G36*
X2187796Y580575D02*
X2187920Y580452D01*
X2187434Y579278D01*
X2154314D01*
X2152754Y578968D01*
X2151431Y578084D01*
X2151431Y578084D01*
X2147530Y574183D01*
X2146260Y574709D01*
Y576475D01*
X2145657Y578726D01*
X2144492Y580744D01*
X2143844Y581392D01*
X2144370Y582662D01*
X2186591D01*
X2187796Y580575D01*
D02*
G37*
G36*
X2333931Y579478D02*
X2304631Y550178D01*
X2197873D01*
X2197705Y551448D01*
X2199705Y551984D01*
X2201995Y553306D01*
X2203864Y555175D01*
X2205186Y557465D01*
X2205870Y560018D01*
Y562662D01*
X2205186Y565215D01*
X2203864Y567505D01*
X2201995Y569374D01*
X2201167Y569852D01*
X2201508Y571122D01*
X2269590D01*
X2269757Y569852D01*
X2268629Y569550D01*
X2266620Y568390D01*
X2264980Y566749D01*
X2263820Y564740D01*
X2263220Y562500D01*
Y561975D01*
X2272030D01*
X2280840D01*
Y562500D01*
X2280240Y564740D01*
X2279080Y566749D01*
X2277440Y568390D01*
X2275430Y569550D01*
X2274303Y569852D01*
X2274471Y571122D01*
X2311012D01*
X2311012Y571122D01*
X2312573Y571432D01*
X2313896Y572316D01*
X2322232Y580652D01*
X2333445D01*
X2333931Y579478D01*
D02*
G37*
G36*
X2410170Y573978D02*
X2410046Y573855D01*
X2408724Y571565D01*
X2408040Y569012D01*
Y566368D01*
X2408663Y564041D01*
X2389721Y545098D01*
X2382520D01*
X2382520Y545098D01*
X2380959Y544788D01*
X2380795Y544678D01*
X2312325D01*
X2311839Y545852D01*
X2341139Y575152D01*
X2358884D01*
X2359370Y573978D01*
X2359246Y573855D01*
X2357924Y571565D01*
X2357240Y569012D01*
Y566368D01*
X2357924Y563815D01*
X2359246Y561525D01*
X2361115Y559656D01*
X2363405Y558334D01*
X2365958Y557650D01*
X2368602D01*
X2371155Y558334D01*
X2373445Y559656D01*
X2375314Y561525D01*
X2376636Y563815D01*
X2377320Y566368D01*
Y569012D01*
X2376636Y571565D01*
X2375314Y573855D01*
X2375190Y573978D01*
X2375676Y575152D01*
X2384284D01*
X2384770Y573978D01*
X2384646Y573855D01*
X2383324Y571565D01*
X2382640Y569012D01*
Y566368D01*
X2383324Y563815D01*
X2384646Y561525D01*
X2386515Y559656D01*
X2388805Y558334D01*
X2391358Y557650D01*
X2394002D01*
X2396555Y558334D01*
X2398845Y559656D01*
X2400714Y561525D01*
X2402036Y563815D01*
X2402720Y566368D01*
Y569012D01*
X2402036Y571565D01*
X2400714Y573855D01*
X2400590Y573978D01*
X2401076Y575152D01*
X2409684D01*
X2410170Y573978D01*
D02*
G37*
G36*
X3164840Y560070D02*
Y476250D01*
X3066678D01*
X3066191Y477423D01*
X3086223Y497455D01*
X3096275D01*
Y518205D01*
X3075525D01*
Y508153D01*
X3072134Y504762D01*
X3070995Y505419D01*
X3071275Y506464D01*
Y509196D01*
X3070568Y511835D01*
X3069202Y514200D01*
X3067271Y516132D01*
X3064904Y517498D01*
X3062266Y518205D01*
X3059534D01*
X3056895Y517498D01*
X3054530Y516132D01*
X3053792Y515395D01*
X2951763D01*
X2945717Y521441D01*
X2946108Y522677D01*
X2946218Y522736D01*
X2948554Y522110D01*
X2951066D01*
X2953492Y522760D01*
X2955668Y524016D01*
X2957444Y525792D01*
X2958700Y527968D01*
X2959350Y530394D01*
Y532906D01*
X2958700Y535332D01*
X2957444Y537508D01*
X2955668Y539284D01*
X2953492Y540540D01*
X2951066Y541190D01*
X2948554D01*
X2946128Y540540D01*
X2943952Y539284D01*
X2942176Y537508D01*
X2940920Y535332D01*
X2940270Y532906D01*
Y530394D01*
X2940896Y528058D01*
X2940837Y527948D01*
X2939601Y527558D01*
X2934350Y532808D01*
Y532906D01*
X2933700Y535332D01*
X2932444Y537508D01*
X2930668Y539284D01*
X2928492Y540540D01*
X2926066Y541190D01*
X2923554D01*
X2921128Y540540D01*
X2919123Y539383D01*
X2917853Y539779D01*
Y595630D01*
X3129280D01*
X3164840Y560070D01*
D02*
G37*
G36*
X2948630Y500265D02*
X3053792D01*
X3054530Y499528D01*
X3056895Y498162D01*
X3059534Y497455D01*
X3062266D01*
X3063311Y497735D01*
X3063968Y496596D01*
X3043622Y476250D01*
X2994660D01*
X2978095Y459685D01*
X2947473D01*
X2945717Y461441D01*
X2946108Y462677D01*
X2946218Y462736D01*
X2948554Y462110D01*
X2951066D01*
X2953492Y462760D01*
X2955668Y464016D01*
X2957444Y465792D01*
X2958700Y467968D01*
X2959350Y470394D01*
Y472906D01*
X2958700Y475332D01*
X2957444Y477508D01*
X2955668Y479284D01*
X2954143Y480164D01*
Y490684D01*
X2953813Y492342D01*
X2952874Y493748D01*
X2947487Y499135D01*
X2948080Y500338D01*
X2948630Y500265D01*
D02*
G37*
G36*
X2917077Y477337D02*
X2915920Y475332D01*
X2915270Y472906D01*
Y470394D01*
X2915920Y467968D01*
X2917176Y465792D01*
X2918952Y464016D01*
X2921128Y462760D01*
X2923554Y462110D01*
X2923652D01*
X2938991Y446771D01*
X2940558Y445569D01*
X2942382Y444813D01*
X2944340Y444555D01*
X2961306D01*
X2961792Y443382D01*
X2957830Y439420D01*
X2874010D01*
X2814955Y403225D01*
X2806700Y394970D01*
X2725657D01*
X2725172Y396143D01*
X2777348Y448320D01*
X2779395D01*
Y456495D01*
X2771220D01*
Y454448D01*
X2717785Y401013D01*
X2706701D01*
X2706215Y402187D01*
X2769950Y465922D01*
X2771220Y465396D01*
Y457765D01*
X2779395D01*
Y465940D01*
X2771764D01*
X2771238Y467210D01*
X2776666Y472637D01*
X2778708Y472090D01*
X2781352D01*
X2783905Y472774D01*
X2786195Y474096D01*
X2788064Y475965D01*
X2789386Y478255D01*
X2789480Y478607D01*
X2890270D01*
Y462110D01*
X2909350D01*
Y478607D01*
X2916681D01*
X2917077Y477337D01*
D02*
G37*
%LPC*%
G36*
X3077170Y1194990D02*
X3076645D01*
Y1186815D01*
X3084820D01*
Y1187340D01*
X3084220Y1189581D01*
X3083060Y1191590D01*
X3081419Y1193230D01*
X3079410Y1194390D01*
X3077170Y1194990D01*
D02*
G37*
G36*
X3075375D02*
X3074850D01*
X3072610Y1194390D01*
X3070601Y1193230D01*
X3068960Y1191590D01*
X3067800Y1189581D01*
X3067200Y1187340D01*
Y1186815D01*
X3075375D01*
Y1194990D01*
D02*
G37*
G36*
X3084820Y1185545D02*
X3076645D01*
Y1177370D01*
X3077170D01*
X3079410Y1177970D01*
X3081419Y1179130D01*
X3083060Y1180770D01*
X3084220Y1182779D01*
X3084820Y1185020D01*
Y1185545D01*
D02*
G37*
G36*
X3075375D02*
X3067200D01*
Y1185020D01*
X3067800Y1182779D01*
X3068960Y1180770D01*
X3070601Y1179130D01*
X3072610Y1177970D01*
X3074850Y1177370D01*
X3075375D01*
Y1185545D01*
D02*
G37*
G36*
X3052332Y1196220D02*
X3049688D01*
X3047135Y1195536D01*
X3044845Y1194214D01*
X3042976Y1192345D01*
X3041654Y1190055D01*
X3040970Y1187502D01*
Y1184858D01*
X3041654Y1182305D01*
X3042976Y1180015D01*
X3044845Y1178146D01*
X3047135Y1176824D01*
X3049688Y1176140D01*
X3052332D01*
X3054885Y1176824D01*
X3057175Y1178146D01*
X3059044Y1180015D01*
X3060366Y1182305D01*
X3061050Y1184858D01*
Y1187502D01*
X3060366Y1190055D01*
X3059044Y1192345D01*
X3057175Y1194214D01*
X3054885Y1195536D01*
X3052332Y1196220D01*
D02*
G37*
G36*
X2198046Y1199790D02*
X2193614D01*
X2189267Y1198925D01*
X2185172Y1197229D01*
X2181487Y1194767D01*
X2178353Y1191633D01*
X2175891Y1187948D01*
X2174195Y1183853D01*
X2173330Y1179506D01*
Y1175074D01*
X2174195Y1170727D01*
X2175891Y1166632D01*
X2178353Y1162947D01*
X2181487Y1159813D01*
X2185172Y1157351D01*
X2189267Y1155655D01*
X2193614Y1154790D01*
X2198046D01*
X2202393Y1155655D01*
X2206488Y1157351D01*
X2210173Y1159813D01*
X2213307Y1162947D01*
X2215769Y1166632D01*
X2217465Y1170727D01*
X2218330Y1175074D01*
Y1179506D01*
X2217465Y1183853D01*
X2215769Y1187948D01*
X2213307Y1191633D01*
X2210173Y1194767D01*
X2206488Y1197229D01*
X2202393Y1198925D01*
X2198046Y1199790D01*
D02*
G37*
G36*
X2317475Y1134760D02*
X2317115D01*
Y1127835D01*
X2324040D01*
Y1128195D01*
X2323525Y1130118D01*
X2322529Y1131842D01*
X2321122Y1133250D01*
X2319398Y1134245D01*
X2317475Y1134760D01*
D02*
G37*
G36*
X2315845D02*
X2315485D01*
X2313562Y1134245D01*
X2311838Y1133250D01*
X2310430Y1131842D01*
X2309435Y1130118D01*
X2308920Y1128195D01*
Y1127835D01*
X2315845D01*
Y1134760D01*
D02*
G37*
G36*
X2324040Y1126565D02*
X2317115D01*
Y1119640D01*
X2317475D01*
X2319398Y1120155D01*
X2321122Y1121151D01*
X2322529Y1122558D01*
X2323525Y1124282D01*
X2324040Y1126205D01*
Y1126565D01*
D02*
G37*
G36*
X2315845D02*
X2308920D01*
Y1126205D01*
X2309435Y1124282D01*
X2310430Y1122558D01*
X2311838Y1121151D01*
X2313562Y1120155D01*
X2315485Y1119640D01*
X2315845D01*
Y1126565D01*
D02*
G37*
G36*
X2103242Y1133990D02*
X2100598D01*
X2098045Y1133306D01*
X2095755Y1131984D01*
X2093886Y1130115D01*
X2092564Y1127825D01*
X2091880Y1125272D01*
Y1122628D01*
X2092564Y1120075D01*
X2093886Y1117785D01*
X2095755Y1115916D01*
X2098045Y1114594D01*
X2100598Y1113910D01*
X2103242D01*
X2105795Y1114594D01*
X2108085Y1115916D01*
X2109954Y1117785D01*
X2111276Y1120075D01*
X2111960Y1122628D01*
Y1125272D01*
X2111276Y1127825D01*
X2109954Y1130115D01*
X2108085Y1131984D01*
X2105795Y1133306D01*
X2103242Y1133990D01*
D02*
G37*
G36*
X2078242D02*
X2075598D01*
X2073045Y1133306D01*
X2070755Y1131984D01*
X2068886Y1130115D01*
X2067564Y1127825D01*
X2066880Y1125272D01*
Y1122628D01*
X2067564Y1120075D01*
X2068886Y1117785D01*
X2070755Y1115916D01*
X2073045Y1114594D01*
X2075598Y1113910D01*
X2078242D01*
X2080795Y1114594D01*
X2083085Y1115916D01*
X2084954Y1117785D01*
X2086276Y1120075D01*
X2086960Y1122628D01*
Y1125272D01*
X2086276Y1127825D01*
X2084954Y1130115D01*
X2083085Y1131984D01*
X2080795Y1133306D01*
X2078242Y1133990D01*
D02*
G37*
G36*
X2255503Y842640D02*
X2254885D01*
Y833755D01*
X2263770D01*
Y834373D01*
X2263121Y836795D01*
X2261868Y838965D01*
X2260095Y840738D01*
X2257925Y841991D01*
X2255503Y842640D01*
D02*
G37*
G36*
X2253615D02*
X2252997D01*
X2250575Y841991D01*
X2248405Y840738D01*
X2246632Y838965D01*
X2245379Y836795D01*
X2244730Y834373D01*
Y833755D01*
X2253615D01*
Y842640D01*
D02*
G37*
G36*
Y832485D02*
X2244730D01*
Y831867D01*
X2245379Y829445D01*
X2246632Y827275D01*
X2248405Y825502D01*
X2250575Y824249D01*
X2252997Y823600D01*
X2253615D01*
Y832485D01*
D02*
G37*
G36*
X2280840Y713105D02*
X2272665D01*
Y704930D01*
X2273190D01*
X2275430Y705530D01*
X2277440Y706690D01*
X2279080Y708331D01*
X2280240Y710340D01*
X2280840Y712580D01*
Y713105D01*
D02*
G37*
G36*
X2271395D02*
X2263220D01*
Y712580D01*
X2263820Y710340D01*
X2264980Y708331D01*
X2266620Y706690D01*
X2268629Y705530D01*
X2270870Y704930D01*
X2271395D01*
Y713105D01*
D02*
G37*
G36*
X2273190Y697150D02*
X2272665D01*
Y688975D01*
X2280840D01*
Y689500D01*
X2280240Y691740D01*
X2279080Y693749D01*
X2277440Y695390D01*
X2275430Y696550D01*
X2273190Y697150D01*
D02*
G37*
G36*
X2271395D02*
X2270870D01*
X2268629Y696550D01*
X2266620Y695390D01*
X2264980Y693749D01*
X2263820Y691740D01*
X2263220Y689500D01*
Y688975D01*
X2271395D01*
Y697150D01*
D02*
G37*
G36*
X2903780Y1193890D02*
X2903255D01*
Y1185715D01*
X2911430D01*
Y1186240D01*
X2910829Y1188481D01*
X2909670Y1190490D01*
X2908029Y1192130D01*
X2906021Y1193290D01*
X2903780Y1193890D01*
D02*
G37*
G36*
X2901985D02*
X2901460D01*
X2899219Y1193290D01*
X2897210Y1192130D01*
X2895570Y1190490D01*
X2894410Y1188481D01*
X2893810Y1186240D01*
Y1185715D01*
X2901985D01*
Y1193890D01*
D02*
G37*
G36*
X2911430Y1184445D02*
X2903255D01*
Y1176270D01*
X2903780D01*
X2906021Y1176870D01*
X2908029Y1178030D01*
X2909670Y1179670D01*
X2910829Y1181680D01*
X2911430Y1183920D01*
Y1184445D01*
D02*
G37*
G36*
X2901985D02*
X2893810D01*
Y1183920D01*
X2894410Y1181680D01*
X2895570Y1179670D01*
X2897210Y1178030D01*
X2899219Y1176870D01*
X2901460Y1176270D01*
X2901985D01*
Y1184445D01*
D02*
G37*
G36*
X2878942Y1195120D02*
X2876298D01*
X2873745Y1194436D01*
X2871455Y1193114D01*
X2869586Y1191245D01*
X2868264Y1188955D01*
X2867580Y1186402D01*
Y1183758D01*
X2868264Y1181205D01*
X2869586Y1178915D01*
X2871455Y1177046D01*
X2873745Y1175724D01*
X2876298Y1175040D01*
X2878942D01*
X2881495Y1175724D01*
X2883785Y1177046D01*
X2885654Y1178915D01*
X2886976Y1181205D01*
X2887660Y1183758D01*
Y1186402D01*
X2886976Y1188955D01*
X2885654Y1191245D01*
X2883785Y1193114D01*
X2881495Y1194436D01*
X2878942Y1195120D01*
D02*
G37*
G36*
X2853942D02*
X2851298D01*
X2848745Y1194436D01*
X2846455Y1193114D01*
X2844586Y1191245D01*
X2843264Y1188955D01*
X2842580Y1186402D01*
Y1183758D01*
X2843264Y1181205D01*
X2844586Y1178915D01*
X2846455Y1177046D01*
X2848745Y1175724D01*
X2851298Y1175040D01*
X2853942D01*
X2856495Y1175724D01*
X2858785Y1177046D01*
X2860654Y1178915D01*
X2861976Y1181205D01*
X2862660Y1183758D01*
Y1186402D01*
X2861976Y1188955D01*
X2860654Y1191245D01*
X2858785Y1193114D01*
X2856495Y1194436D01*
X2853942Y1195120D01*
D02*
G37*
G36*
X2837660D02*
X2817580D01*
Y1175040D01*
X2837660D01*
Y1195120D01*
D02*
G37*
G36*
X2052772Y1041280D02*
X2050128D01*
X2047575Y1040596D01*
X2045285Y1039274D01*
X2043416Y1037405D01*
X2042094Y1035115D01*
X2041410Y1032562D01*
Y1029918D01*
X2042094Y1027365D01*
X2043416Y1025075D01*
X2045285Y1023206D01*
X2047575Y1021884D01*
X2050128Y1021200D01*
X2052772D01*
X2055325Y1021884D01*
X2057615Y1023206D01*
X2059484Y1025075D01*
X2060806Y1027365D01*
X2061490Y1029918D01*
Y1032562D01*
X2060806Y1035115D01*
X2059484Y1037405D01*
X2057615Y1039274D01*
X2055325Y1040596D01*
X2052772Y1041280D01*
D02*
G37*
G36*
X1968483Y934080D02*
X1967865D01*
Y925195D01*
X1976750D01*
Y925813D01*
X1976101Y928235D01*
X1974848Y930405D01*
X1973075Y932178D01*
X1970905Y933431D01*
X1968483Y934080D01*
D02*
G37*
G36*
X1976750Y923925D02*
X1967865D01*
Y915040D01*
X1968483D01*
X1970905Y915689D01*
X1973075Y916942D01*
X1974848Y918715D01*
X1976101Y920885D01*
X1976750Y923307D01*
Y923925D01*
D02*
G37*
G36*
X2028155Y853530D02*
X2019980D01*
Y845355D01*
X2028155D01*
Y853530D01*
D02*
G37*
G36*
Y844085D02*
X2019980D01*
Y835910D01*
X2028155D01*
Y844085D01*
D02*
G37*
G36*
X2105112Y854760D02*
X2102468D01*
X2099915Y854076D01*
X2097625Y852754D01*
X2095756Y850885D01*
X2094434Y848595D01*
X2093750Y846042D01*
Y843398D01*
X2094434Y840845D01*
X2095756Y838555D01*
X2097625Y836686D01*
X2099915Y835364D01*
X2102468Y834680D01*
X2105112D01*
X2107665Y835364D01*
X2109955Y836686D01*
X2111824Y838555D01*
X2113146Y840845D01*
X2113830Y843398D01*
Y846042D01*
X2113146Y848595D01*
X2111824Y850885D01*
X2109955Y852754D01*
X2107665Y854076D01*
X2105112Y854760D01*
D02*
G37*
G36*
X2080112D02*
X2077468D01*
X2074915Y854076D01*
X2072625Y852754D01*
X2070756Y850885D01*
X2069434Y848595D01*
X2068750Y846042D01*
Y843398D01*
X2069434Y840845D01*
X2070756Y838555D01*
X2072625Y836686D01*
X2074915Y835364D01*
X2077468Y834680D01*
X2080112D01*
X2082665Y835364D01*
X2084955Y836686D01*
X2086824Y838555D01*
X2088146Y840845D01*
X2088830Y843398D01*
Y846042D01*
X2088146Y848595D01*
X2086824Y850885D01*
X2084955Y852754D01*
X2082665Y854076D01*
X2080112Y854760D01*
D02*
G37*
G36*
X2037600Y844085D02*
X2029425D01*
Y835910D01*
X2031472D01*
X2069856Y797526D01*
X2071261Y796587D01*
X2072920Y796257D01*
X2079245D01*
X2079736Y795766D01*
X2081142Y794827D01*
X2082800Y794497D01*
X2084458Y794827D01*
X2085864Y795766D01*
X2086803Y797172D01*
X2087133Y798830D01*
X2086803Y800488D01*
X2085864Y801894D01*
X2084104Y803654D01*
X2082698Y804594D01*
X2081040Y804924D01*
X2074715D01*
X2037600Y842038D01*
Y844085D01*
D02*
G37*
G36*
X2021840Y824753D02*
X2020182Y824423D01*
X2018776Y823484D01*
X2017837Y822078D01*
X2017507Y820420D01*
Y820405D01*
X1997336Y800234D01*
X1996397Y798829D01*
X1996067Y797170D01*
Y795175D01*
X1996397Y793517D01*
X1997336Y792111D01*
X1998742Y791171D01*
X2000400Y790842D01*
X2002059Y791171D01*
X2003464Y792111D01*
X2004404Y793517D01*
X2004733Y795175D01*
Y795375D01*
X2024904Y815546D01*
X2025843Y816952D01*
X2026173Y818610D01*
Y820420D01*
X2025843Y822078D01*
X2024904Y823484D01*
X2023498Y824423D01*
X2021840Y824753D01*
D02*
G37*
G36*
X2104042Y764420D02*
X2101398D01*
X2098845Y763736D01*
X2096555Y762414D01*
X2094686Y760545D01*
X2093364Y758255D01*
X2092680Y755702D01*
Y753058D01*
X2093364Y750505D01*
X2094686Y748215D01*
X2096555Y746346D01*
X2098845Y745024D01*
X2101398Y744340D01*
X2104042D01*
X2106595Y745024D01*
X2108885Y746346D01*
X2110754Y748215D01*
X2112076Y750505D01*
X2112760Y753058D01*
Y755702D01*
X2112076Y758255D01*
X2110754Y760545D01*
X2108885Y762414D01*
X2106595Y763736D01*
X2104042Y764420D01*
D02*
G37*
G36*
X2054042D02*
X2051398D01*
X2048845Y763736D01*
X2046555Y762414D01*
X2044686Y760545D01*
X2043364Y758255D01*
X2042680Y755702D01*
Y753058D01*
X2043364Y750505D01*
X2044686Y748215D01*
X2046555Y746346D01*
X2048845Y745024D01*
X2051398Y744340D01*
X2054042D01*
X2056595Y745024D01*
X2058885Y746346D01*
X2060754Y748215D01*
X2062076Y750505D01*
X2062760Y753058D01*
Y755702D01*
X2062076Y758255D01*
X2060754Y760545D01*
X2058885Y762414D01*
X2056595Y763736D01*
X2054042Y764420D01*
D02*
G37*
G36*
Y674250D02*
X2051398D01*
X2048845Y673566D01*
X2046555Y672244D01*
X2044686Y670375D01*
X2043364Y668085D01*
X2042680Y665532D01*
Y662888D01*
X2043364Y660335D01*
X2044686Y658045D01*
X2046555Y656176D01*
X2048845Y654854D01*
X2051398Y654170D01*
X2054042D01*
X2056595Y654854D01*
X2058885Y656176D01*
X2060754Y658045D01*
X2062076Y660335D01*
X2062760Y662888D01*
Y665532D01*
X2062076Y668085D01*
X2060754Y670375D01*
X2058885Y672244D01*
X2056595Y673566D01*
X2054042Y674250D01*
D02*
G37*
G36*
X2104042D02*
X2101398D01*
X2098845Y673566D01*
X2096555Y672244D01*
X2094686Y670375D01*
X2093364Y668085D01*
X2092680Y665532D01*
Y662888D01*
X2093364Y660335D01*
X2094686Y658045D01*
X2096555Y656176D01*
X2098845Y654854D01*
X2101398Y654170D01*
X2104042D01*
X2106595Y654854D01*
X2108885Y656176D01*
X2110754Y658045D01*
X2111959Y660132D01*
X2124291D01*
X2139125Y645297D01*
X2138720Y643785D01*
Y641455D01*
X2139323Y639204D01*
X2140488Y637186D01*
X2142136Y635538D01*
X2144154Y634373D01*
X2146405Y633770D01*
X2148735D01*
X2150986Y634373D01*
X2153004Y635538D01*
X2154652Y637186D01*
X2155817Y639204D01*
X2156420Y641455D01*
Y643785D01*
X2155817Y646036D01*
X2154652Y648054D01*
X2153004Y649702D01*
X2150986Y650867D01*
X2148735Y651470D01*
X2146405D01*
X2144893Y651065D01*
X2128864Y667094D01*
X2127541Y667978D01*
X2125980Y668288D01*
X2125980Y668288D01*
X2111959D01*
X2110754Y670375D01*
X2108885Y672244D01*
X2106595Y673566D01*
X2104042Y674250D01*
D02*
G37*
G36*
X1966595Y765170D02*
X1965977D01*
X1963555Y764521D01*
X1961385Y763268D01*
X1959612Y761495D01*
X1958359Y759325D01*
X1957710Y756903D01*
Y756285D01*
X1966595D01*
Y765170D01*
D02*
G37*
G36*
Y755015D02*
X1957710D01*
Y754397D01*
X1958359Y751975D01*
X1959612Y749805D01*
X1961385Y748032D01*
X1963555Y746779D01*
X1965977Y746130D01*
X1966595D01*
Y755015D01*
D02*
G37*
G36*
X2571802Y577730D02*
X2569158D01*
X2566605Y577046D01*
X2564315Y575724D01*
X2562446Y573855D01*
X2561124Y571565D01*
X2560440Y569012D01*
Y566368D01*
X2561124Y563815D01*
X2562446Y561525D01*
X2564315Y559656D01*
X2566605Y558334D01*
X2569158Y557650D01*
X2571802D01*
X2574355Y558334D01*
X2576645Y559656D01*
X2578514Y561525D01*
X2579836Y563815D01*
X2580520Y566368D01*
Y569012D01*
X2579836Y571565D01*
X2578514Y573855D01*
X2576645Y575724D01*
X2574355Y577046D01*
X2571802Y577730D01*
D02*
G37*
G36*
X2521002D02*
X2518358D01*
X2515805Y577046D01*
X2513515Y575724D01*
X2511646Y573855D01*
X2510324Y571565D01*
X2509640Y569012D01*
Y566368D01*
X2510324Y563815D01*
X2511646Y561525D01*
X2513515Y559656D01*
X2515805Y558334D01*
X2518358Y557650D01*
X2521002D01*
X2523555Y558334D01*
X2525845Y559656D01*
X2527714Y561525D01*
X2529036Y563815D01*
X2529720Y566368D01*
Y569012D01*
X2529036Y571565D01*
X2527714Y573855D01*
X2525845Y575724D01*
X2523555Y577046D01*
X2521002Y577730D01*
D02*
G37*
G36*
X2470202D02*
X2467558D01*
X2465005Y577046D01*
X2462715Y575724D01*
X2460846Y573855D01*
X2459524Y571565D01*
X2458840Y569012D01*
Y566368D01*
X2459464Y564041D01*
X2424011Y528588D01*
X2254494D01*
X2253712Y529944D01*
X2252064Y531592D01*
X2250046Y532757D01*
X2247795Y533360D01*
X2245465D01*
X2243214Y532757D01*
X2241196Y531592D01*
X2239548Y529944D01*
X2238383Y527926D01*
X2237780Y525675D01*
Y523345D01*
X2238383Y521094D01*
X2239548Y519076D01*
X2241196Y517428D01*
X2243214Y516263D01*
X2245465Y515660D01*
X2247795D01*
X2250046Y516263D01*
X2252064Y517428D01*
X2253712Y519076D01*
X2254494Y520432D01*
X2425700D01*
X2425700Y520432D01*
X2427261Y520742D01*
X2428584Y521626D01*
X2465231Y558274D01*
X2467558Y557650D01*
X2470202D01*
X2472755Y558334D01*
X2475045Y559656D01*
X2476914Y561525D01*
X2478236Y563815D01*
X2478920Y566368D01*
Y569012D01*
X2478236Y571565D01*
X2476914Y573855D01*
X2475045Y575724D01*
X2472755Y577046D01*
X2470202Y577730D01*
D02*
G37*
G36*
X2781352Y542170D02*
X2778708D01*
X2776155Y541486D01*
X2773865Y540164D01*
X2771996Y538295D01*
X2770674Y536005D01*
X2769990Y533452D01*
Y530808D01*
X2770674Y528255D01*
X2771996Y525965D01*
X2773865Y524096D01*
X2776155Y522774D01*
X2778708Y522090D01*
X2781352D01*
X2783905Y522774D01*
X2786195Y524096D01*
X2788064Y525965D01*
X2789386Y528255D01*
X2790070Y530808D01*
Y533452D01*
X2789386Y536005D01*
X2788064Y538295D01*
X2786195Y540164D01*
X2783905Y541486D01*
X2781352Y542170D01*
D02*
G37*
G36*
X2280815Y506690D02*
X2278485D01*
X2276234Y506087D01*
X2274216Y504922D01*
X2272568Y503274D01*
X2271785Y501918D01*
X2146300D01*
X2146300Y501918D01*
X2144739Y501608D01*
X2143416Y500724D01*
X2143416Y500724D01*
X2093097Y450405D01*
X2091585Y450810D01*
X2089255D01*
X2087004Y450207D01*
X2084986Y449042D01*
X2083338Y447394D01*
X2082173Y445376D01*
X2081570Y443125D01*
Y440795D01*
X2082173Y438544D01*
X2083338Y436526D01*
X2084986Y434878D01*
X2087004Y433713D01*
X2089255Y433110D01*
X2091585D01*
X2093836Y433713D01*
X2095854Y434878D01*
X2097502Y436526D01*
X2098667Y438544D01*
X2099270Y440795D01*
Y443125D01*
X2098865Y444637D01*
X2147989Y493762D01*
X2271785D01*
X2272568Y492406D01*
X2274216Y490758D01*
X2276234Y489593D01*
X2278485Y488990D01*
X2280815D01*
X2283066Y489593D01*
X2285084Y490758D01*
X2286732Y492406D01*
X2287897Y494424D01*
X2288500Y496675D01*
Y499005D01*
X2287897Y501256D01*
X2286732Y503274D01*
X2285084Y504922D01*
X2283066Y506087D01*
X2280815Y506690D01*
D02*
G37*
G36*
X2781352Y517170D02*
X2778708D01*
X2776155Y516486D01*
X2773865Y515164D01*
X2771996Y513295D01*
X2770674Y511005D01*
X2769990Y508452D01*
Y505808D01*
X2770674Y503255D01*
X2771996Y500965D01*
X2773865Y499096D01*
X2776155Y497774D01*
X2778708Y497090D01*
X2781352D01*
X2783905Y497774D01*
X2786195Y499096D01*
X2788064Y500965D01*
X2789386Y503255D01*
X2790070Y505808D01*
Y508452D01*
X2789386Y511005D01*
X2788064Y513295D01*
X2786195Y515164D01*
X2783905Y516486D01*
X2781352Y517170D01*
D02*
G37*
G36*
X2633980Y514260D02*
X2629538Y513822D01*
X2625266Y512526D01*
X2621330Y510422D01*
X2617879Y507591D01*
X2615048Y504140D01*
X2612944Y500204D01*
X2611648Y495932D01*
X2611210Y491490D01*
X2611648Y487048D01*
X2612944Y482776D01*
X2615048Y478840D01*
X2617879Y475389D01*
X2621330Y472558D01*
X2625266Y470454D01*
X2626207Y470168D01*
X2626018Y468898D01*
X2489335D01*
X2488662Y470064D01*
X2487014Y471712D01*
X2484996Y472877D01*
X2482745Y473480D01*
X2480415D01*
X2478164Y472877D01*
X2476146Y471712D01*
X2474498Y470064D01*
X2473333Y468046D01*
X2472730Y465795D01*
Y463465D01*
X2473333Y461214D01*
X2474498Y459196D01*
X2476146Y457548D01*
X2478164Y456383D01*
X2480415Y455780D01*
X2482745D01*
X2484996Y456383D01*
X2487014Y457548D01*
X2488662Y459196D01*
X2489554Y460742D01*
X2614016D01*
X2614183Y459472D01*
X2612784Y459097D01*
X2610766Y457932D01*
X2609118Y456284D01*
X2608336Y454928D01*
X2527300D01*
X2527300Y454928D01*
X2525739Y454618D01*
X2524416Y453734D01*
X2524416Y453734D01*
X2513467Y442785D01*
X2511955Y443190D01*
X2509625D01*
X2507374Y442587D01*
X2505356Y441422D01*
X2503708Y439774D01*
X2502543Y437756D01*
X2501940Y435505D01*
Y433175D01*
X2502543Y430924D01*
X2503708Y428906D01*
X2505356Y427258D01*
X2507374Y426093D01*
X2509625Y425490D01*
X2511955D01*
X2514206Y426093D01*
X2516224Y427258D01*
X2517872Y428906D01*
X2519037Y430924D01*
X2519640Y433175D01*
Y435505D01*
X2519235Y437017D01*
X2528989Y446772D01*
X2608336D01*
X2609118Y445416D01*
X2610766Y443768D01*
X2612784Y442603D01*
X2615035Y442000D01*
X2617365D01*
X2619616Y442603D01*
X2621634Y443768D01*
X2623282Y445416D01*
X2624447Y447434D01*
X2625050Y449685D01*
Y452015D01*
X2624447Y454266D01*
X2623282Y456284D01*
X2621634Y457932D01*
X2619616Y459097D01*
X2618217Y459472D01*
X2618385Y460742D01*
X2647950D01*
X2647950Y460742D01*
X2649511Y461052D01*
X2650834Y461936D01*
X2666863Y477965D01*
X2668375Y477560D01*
X2670705D01*
X2672956Y478163D01*
X2674974Y479328D01*
X2676622Y480976D01*
X2677787Y482994D01*
X2678390Y485245D01*
Y487575D01*
X2677787Y489826D01*
X2676622Y491844D01*
X2674974Y493492D01*
X2672956Y494657D01*
X2670705Y495260D01*
X2668375D01*
X2666124Y494657D01*
X2664106Y493492D01*
X2662458Y491844D01*
X2661293Y489826D01*
X2660690Y487575D01*
Y485245D01*
X2661095Y483733D01*
X2646261Y468898D01*
X2641942D01*
X2641753Y470168D01*
X2642693Y470454D01*
X2646630Y472558D01*
X2650081Y475389D01*
X2652912Y478840D01*
X2655016Y482776D01*
X2656312Y487048D01*
X2656750Y491490D01*
X2656312Y495932D01*
X2655016Y500204D01*
X2652912Y504140D01*
X2650081Y507591D01*
X2646630Y510422D01*
X2642693Y512526D01*
X2638422Y513822D01*
X2633980Y514260D01*
D02*
G37*
G36*
X2221192Y479905D02*
X2220595D01*
Y474345D01*
X2226155D01*
Y474942D01*
X2225212Y477219D01*
X2223469Y478962D01*
X2221192Y479905D01*
D02*
G37*
G36*
X2219325D02*
X2218728D01*
X2216451Y478962D01*
X2214708Y477219D01*
X2213765Y474942D01*
Y474345D01*
X2219325D01*
Y479905D01*
D02*
G37*
G36*
X2055782Y493910D02*
X2053138D01*
X2050585Y493226D01*
X2048295Y491904D01*
X2046426Y490035D01*
X2045104Y487745D01*
X2044420Y485192D01*
Y482548D01*
X2045104Y479995D01*
X2046426Y477705D01*
X2048295Y475836D01*
X2050585Y474514D01*
X2053138Y473830D01*
X2055782D01*
X2058335Y474514D01*
X2060625Y475836D01*
X2062494Y477705D01*
X2063816Y479995D01*
X2064500Y482548D01*
Y485192D01*
X2063816Y487745D01*
X2062494Y490035D01*
X2060625Y491904D01*
X2058335Y493226D01*
X2055782Y493910D01*
D02*
G37*
G36*
X2379980Y514260D02*
X2375538Y513822D01*
X2371266Y512526D01*
X2367330Y510422D01*
X2363879Y507591D01*
X2361048Y504140D01*
X2358944Y500204D01*
X2357648Y495932D01*
X2357210Y491490D01*
X2357648Y487048D01*
X2358944Y482776D01*
X2361048Y478840D01*
X2363879Y475389D01*
X2367330Y472558D01*
X2371266Y470454D01*
X2375538Y469158D01*
X2379980Y468720D01*
X2384422Y469158D01*
X2388694Y470454D01*
X2392630Y472558D01*
X2396081Y475389D01*
X2398912Y478840D01*
X2401016Y482776D01*
X2402312Y487048D01*
X2402750Y491490D01*
X2402312Y495932D01*
X2401016Y500204D01*
X2398912Y504140D01*
X2396081Y507591D01*
X2392630Y510422D01*
X2388694Y512526D01*
X2384422Y513822D01*
X2379980Y514260D01*
D02*
G37*
G36*
X2219325Y473075D02*
X2213765D01*
Y472478D01*
X2214708Y470201D01*
X2216451Y468458D01*
X2218728Y467515D01*
X2219325D01*
Y473075D01*
D02*
G37*
G36*
X2278185Y481135D02*
X2263335D01*
Y466285D01*
X2278185D01*
Y481135D01*
D02*
G37*
G36*
X2195538D02*
X2193582D01*
X2191694Y480629D01*
X2190001Y479651D01*
X2188619Y478269D01*
X2187641Y476576D01*
X2187135Y474688D01*
Y472733D01*
X2187641Y470844D01*
X2188619Y469151D01*
X2190001Y467769D01*
X2191694Y466791D01*
X2193582Y466285D01*
X2195538D01*
X2197426Y466791D01*
X2199119Y467769D01*
X2200501Y469151D01*
X2201479Y470844D01*
X2201985Y472733D01*
Y474688D01*
X2201479Y476576D01*
X2200501Y478269D01*
X2199119Y479651D01*
X2197426Y480629D01*
X2195538Y481135D01*
D02*
G37*
G36*
X2366645Y414655D02*
X2358470D01*
Y406480D01*
X2366645D01*
Y414655D01*
D02*
G37*
G36*
X2280840Y560705D02*
X2272665D01*
Y552530D01*
X2273190D01*
X2275430Y553130D01*
X2277440Y554290D01*
X2279080Y555930D01*
X2280240Y557939D01*
X2280840Y560180D01*
Y560705D01*
D02*
G37*
G36*
X2271395D02*
X2263220D01*
Y560180D01*
X2263820Y557939D01*
X2264980Y555930D01*
X2266620Y554290D01*
X2268629Y553130D01*
X2270870Y552530D01*
X2271395D01*
Y560705D01*
D02*
G37*
G36*
X2788840Y465940D02*
X2780665D01*
Y457765D01*
X2788840D01*
Y465940D01*
D02*
G37*
G36*
Y456495D02*
X2780665D01*
Y448320D01*
X2788840D01*
Y456495D01*
D02*
G37*
%LPD*%
D12*
X2944340Y452120D02*
X3030190D01*
X2924810Y471650D02*
X2944340Y452120D01*
X2924810Y531650D02*
X2948630Y507830D01*
X3060900D01*
X3030190Y452120D02*
X3085900Y507830D01*
D35*
X2477240Y584730D02*
X2494280Y567690D01*
X2311012Y575200D02*
X2320542Y584730D01*
X2477240D01*
X2339450Y579230D02*
X2431940D01*
X2443480Y567690D01*
X2306320Y546100D02*
X2339450Y579230D01*
X1985480Y494830D02*
Y788609D01*
X1990980Y497108D02*
Y790888D01*
X1984550Y789539D02*
X1985480Y788609D01*
Y494830D02*
X2072640Y407670D01*
X1990050Y791817D02*
X1990980Y790888D01*
Y497108D02*
X2074918Y413170D01*
X2293200D01*
X2072640Y407670D02*
X2290922D01*
X2065900Y898680D02*
X2116300D01*
X2027320Y937260D02*
X2065900Y898680D01*
X2116300D02*
X2147150Y867830D01*
X2109470Y980440D02*
X2152650Y937260D01*
Y727710D02*
Y937260D01*
X2077250Y980440D02*
X2109470D01*
X2026450Y1031240D02*
X2077250Y980440D01*
X2158150Y751420D02*
Y1034630D01*
X2118360Y1074420D02*
X2158150Y1034630D01*
Y751420D02*
X2195830Y713740D01*
X2075180Y1074420D02*
X2118360D01*
X2293200Y413170D02*
X2317750Y388620D01*
X2290922Y407670D02*
X2316322Y382270D01*
X2027720Y725640D02*
X2045970Y707390D01*
X2027720Y725640D02*
Y754380D01*
X2045970Y707390D02*
X2125980D01*
X2152650Y727710D02*
X2188411Y691949D01*
X2147150Y711620D02*
X2195830Y662940D01*
X2147150Y711620D02*
Y867830D01*
X2804160Y1140460D02*
X2829560Y1115060D01*
X2764790Y1140460D02*
X2804160D01*
X2672327Y1209220D02*
X2672497Y1209390D01*
X2721310Y1220220D02*
X3085080D01*
X2672497Y1209390D02*
X2691583D01*
X2721140Y1220390D02*
X2721310Y1220220D01*
X2695049Y1214720D02*
X2695219Y1214890D01*
X3085080Y1220220D02*
X3117000Y1188300D01*
X2697497Y1209390D02*
X2716583D01*
X2666754Y1209220D02*
X2672327D01*
X2668862Y1214890D02*
X2669032Y1214720D01*
X2716754Y1209220D02*
X2908120D01*
X2719032Y1214720D02*
X3082802D01*
X2716583Y1209390D02*
X2716754Y1209220D01*
X2670219Y1214890D02*
X2693862D01*
X2694032Y1214720D01*
X2697327Y1209220D02*
X2697497Y1209390D01*
X2670049Y1214720D02*
X2670219Y1214890D01*
X2694032Y1214720D02*
X2695049D01*
X2669032D02*
X2670049D01*
X2718862Y1214890D02*
X2719032Y1214720D01*
X2696140Y1220390D02*
X2721140D01*
X2695219Y1214890D02*
X2718862D01*
X2666583Y1209390D02*
X2666754Y1209220D01*
X3082802Y1214720D02*
X3111500Y1186022D01*
X2647497Y1209390D02*
X2666583D01*
X2691583D02*
X2691754Y1209220D01*
X2697327D01*
X2645219Y1214890D02*
X2668862D01*
X2908120Y1209220D02*
X2927350Y1189990D01*
X2776460Y1203720D02*
X2842260Y1137920D01*
X2857500D01*
X2714475Y1203720D02*
X2776460D01*
X2647327Y1209220D02*
X2647497Y1209390D01*
X2645049Y1214720D02*
X2645219Y1214890D01*
X2664475Y1203720D02*
X2674605D01*
X2642940Y1220390D02*
X2671140D01*
X2504150Y1209220D02*
X2647327D01*
X2671140Y1220390D02*
X2696140D01*
X2649605Y1203720D02*
X2649775Y1203890D01*
X2664305D01*
X2664475Y1203720D01*
X2642770Y1220220D02*
X2642940Y1220390D01*
X2714305Y1203890D02*
X2714475Y1203720D01*
X2523650D02*
X2649605D01*
X2094830Y1214720D02*
X2645049D01*
X2674775Y1203890D02*
X2689305D01*
X2699605Y1203720D02*
X2699775Y1203890D01*
X2689305D02*
X2689475Y1203720D01*
X2699775Y1203890D02*
X2714305D01*
X2689475Y1203720D02*
X2699605D01*
X2092552Y1220220D02*
X2642770D01*
X2674605Y1203720D02*
X2674775Y1203890D01*
X1954980Y1082648D02*
X2092552Y1220220D01*
X2506110Y1186180D02*
X2523650Y1203720D01*
X2481110Y1186180D02*
X2504150Y1209220D01*
X1967230Y1087120D02*
X2094830Y1214720D01*
X2441260Y1123344D02*
X2471522Y1153606D01*
X2498536D01*
X2531110Y1186180D01*
X2857500Y1137920D02*
X2880360Y1115060D01*
X2596490Y1104270D02*
X2950869D01*
X2961010Y1114411D01*
X2970769Y1098770D02*
X2985620Y1113620D01*
X2550160Y1115060D02*
X2566450Y1098770D01*
X2970769D01*
X2586850Y1113911D02*
X2596490Y1104270D01*
X2441260Y1092501D02*
Y1123344D01*
X2905760Y1115060D02*
X2927350Y1136650D01*
Y1189990D01*
X2992120Y1200150D02*
X3012040D01*
X3026010Y1186180D01*
X2961010Y1169040D02*
X2992120Y1200150D01*
X2961010Y1114411D02*
Y1169040D01*
X2576709Y1113911D02*
X2586850D01*
X2575560Y1115060D02*
X2576709Y1113911D01*
X2985620Y1170790D02*
X3001010Y1186180D01*
X2985620Y1113620D02*
Y1170790D01*
X2424309Y1075550D02*
X2441260Y1092501D01*
X2423160Y1064260D02*
X2424309Y1065409D01*
Y1075550D01*
X2481770Y464820D02*
X2647950D01*
X2481580Y464630D02*
X2481770Y464820D01*
X2437130Y469900D02*
X2483293Y516063D01*
X2437130Y454660D02*
Y469900D01*
X2483293Y516063D02*
X2611373D01*
X2658220Y562910D02*
Y580323D01*
X2611373Y516063D02*
X2658220Y562910D01*
X2626360Y612183D02*
X2658220Y580323D01*
X2626360Y612183D02*
Y632460D01*
X2571589Y617381D02*
X2621280Y567690D01*
X2457450Y617381D02*
X2571589D01*
X2566889Y596681D02*
X2595880Y567690D01*
X2236470Y674370D02*
X2236580Y674480D01*
X2309075D01*
X2312966Y678370D02*
X2382836D01*
X2309075Y674480D02*
X2312966Y678370D01*
X2382836D02*
X2388736Y672470D01*
X2427629D01*
X2433339Y678180D02*
X2449830D01*
X2427629Y672470D02*
X2433339Y678180D01*
X2193370Y649080D02*
X2221723D01*
X2241623Y629180D01*
X2285890Y649080D02*
X2322830Y612140D01*
X2236580Y649080D02*
X2285890D01*
X2441019Y612140D02*
X2446128Y607031D01*
X2322830Y612140D02*
X2441019D01*
X2321092Y606100D02*
X2439281D01*
X2448700Y596681D01*
X2307590Y1037590D02*
X2335530D01*
X2376170Y1078230D01*
X2463170Y1024250D02*
X2854960Y632460D01*
X2266320Y1024250D02*
X2463170D01*
X2254250Y1036320D02*
X2266320Y1024250D01*
X2463170Y998850D02*
X2829560Y632460D01*
X2348851Y998850D02*
X2463170D01*
X2266370Y998800D02*
X2348801D01*
X2348851Y998850D01*
X2254250Y1010920D02*
X2266370Y998800D01*
X2647950Y464820D02*
X2669540Y486410D01*
X2510790Y434340D02*
X2527300Y450850D01*
X2616200D01*
X2327910Y623570D02*
X2352040D01*
X2361787Y633317D01*
X2316480Y668020D02*
X2348230D01*
X2312670Y664210D02*
X2316480Y668020D01*
X2342520Y846450D02*
X2567654D01*
X2550032Y871850D02*
X2778132Y643750D01*
X2342520Y871850D02*
X2550032D01*
X2567654Y846450D02*
X2753360Y660744D01*
X2266320Y973450D02*
X2463170D01*
X2804160Y632460D01*
X2254250Y985520D02*
X2266320Y973450D01*
X2778132Y633088D02*
X2778760Y632460D01*
X2778132Y633088D02*
Y643750D01*
X2254250Y960120D02*
X2342520Y871850D01*
X2753360Y632460D02*
Y660744D01*
X2254250Y934720D02*
X2342520Y846450D01*
Y821050D02*
X2529229D01*
X2716670Y633609D01*
X2726811D02*
X2727960Y632460D01*
X2716670Y633609D02*
X2726811D01*
X2254250Y909320D02*
X2342520Y821050D01*
X2539370Y795650D02*
X2702560Y632460D01*
X2342520Y795650D02*
X2539370D01*
X2254250Y883920D02*
X2342520Y795650D01*
X2539370Y770250D02*
X2677160Y632460D01*
X2342520Y770250D02*
X2539370D01*
X2254250Y858520D02*
X2342520Y770250D01*
X2192561Y688340D02*
X2195830D01*
X2188953Y691949D02*
X2192561Y688340D01*
X2188411Y691949D02*
X2188953D01*
X1954980Y793300D02*
Y1082648D01*
X1967230Y949960D02*
Y1087120D01*
X3048000Y1115060D02*
X3064833Y1131893D01*
X3098011D01*
X3117000Y1150882D02*
Y1188300D01*
X3044933Y1137393D02*
X3095733D01*
X3111500Y1153160D02*
Y1186022D01*
X3095733Y1137393D02*
X3111500Y1153160D01*
X3098011Y1131893D02*
X3117000Y1150882D01*
X3022600Y1115060D02*
X3044933Y1137393D01*
X1954980Y793300D02*
X1967230Y781050D01*
X1990050Y1015802D02*
X2021578Y1047330D01*
X1990050Y791817D02*
Y1015802D01*
X1984550Y789539D02*
Y1018080D01*
X2019300Y1052830D01*
X2021578Y1047330D02*
X2060360D01*
X2102720Y911860D02*
X2112670D01*
X2077320Y937260D02*
X2102720Y911860D01*
X2054070Y1095530D02*
X2075180Y1074420D01*
X2054070Y1095530D02*
Y1096800D01*
X2026920Y1123950D02*
X2054070Y1096800D01*
X2090420Y441960D02*
X2146300Y497840D01*
X2279650D01*
X2316322Y382270D02*
X2546827D01*
X2550637Y386080D01*
X2576830D01*
X2530190Y388620D02*
X2532334Y390764D01*
X2540684D01*
X2542540Y392620D01*
X2317750Y388620D02*
X2530190D01*
X2060360Y1047330D02*
X2076450Y1031240D01*
X2019300Y1052830D02*
X2079860D01*
X2101450Y1031240D01*
X2448700Y596681D02*
X2566889D01*
X2446128Y607031D02*
X2487754D01*
X2388076Y600600D02*
X2397494Y591181D01*
X2521589D01*
X2545080Y567690D01*
X2244170Y623680D02*
X2267250Y600600D01*
X2303512Y623680D02*
X2321092Y606100D01*
X2267250Y600600D02*
X2388076D01*
X2241623Y629180D02*
X2264070D01*
X2269570Y623680D01*
X2303512D01*
X2077720Y754380D02*
X2119210Y712890D01*
X2129560D01*
X2193370Y649080D01*
X2118250Y623680D02*
X2244170D01*
X2125980Y707390D02*
X2195830Y637540D01*
X2236470Y648970D02*
X2236580Y649080D01*
X2125980Y664210D02*
X2147570Y642620D01*
X2102720Y664210D02*
X2125980D01*
X2077720D02*
X2118250Y623680D01*
X2079790Y612140D02*
X2195830D01*
X2027720Y664210D02*
X2079790Y612140D01*
X2425700Y524510D02*
X2468880Y567690D01*
X2246630Y524510D02*
X2425700D01*
X2382100Y540600D02*
X2382520Y541020D01*
X2391410D01*
X2418080Y567690D01*
X2167628Y540600D02*
X2382100D01*
X2101920Y572770D02*
X2103190Y574040D01*
X2136140D01*
X2137410Y575310D01*
X2026920Y572770D02*
X2040890Y586740D01*
X2195830D01*
X2170430Y561340D02*
X2195830D01*
X2165350Y546100D02*
X2306320D01*
X2130378Y503350D02*
X2167628Y540600D01*
X2128100Y508850D02*
X2165350Y546100D01*
X2123440Y514350D02*
X2170430Y561340D01*
X2140344Y561230D02*
X2154314Y575200D01*
X2311012D01*
X2088460Y561230D02*
X2140344D01*
X2123940Y503350D02*
X2130378D01*
X2079460Y483870D02*
X2104440Y508850D01*
X2128100D01*
X2104460Y483870D02*
X2123940Y503350D01*
X2076920Y572770D02*
X2088460Y561230D01*
X2059940Y514350D02*
X2123440D01*
X2029460Y483870D02*
X2059940Y514350D01*
D36*
X2114190Y949050D02*
X2132330Y930910D01*
X2064110Y949050D02*
X2114190D01*
X2052320Y937260D02*
X2064110Y949050D01*
X2081040Y800590D02*
X2082800Y798830D01*
X2072920Y800590D02*
X2081040D01*
X2028790Y844720D02*
X2072920Y800590D01*
X2711924Y1198140D02*
X2712094Y1197970D01*
X2687094D02*
X2701986D01*
X2702156Y1198140D01*
X2643660Y1197970D02*
X2651986D01*
X2662094D02*
X2676986D01*
X2712094D02*
X2753000D01*
X2676986D02*
X2677156Y1198140D01*
X2651986Y1197970D02*
X2652156Y1198140D01*
X2632040Y1186350D02*
X2643660Y1197970D01*
X2753000D02*
X2768600Y1182370D01*
X2661924Y1198140D02*
X2662094Y1197970D01*
X2702156Y1198140D02*
X2711924D01*
X2677156D02*
X2686924D01*
X2687094Y1197970D01*
X2652156Y1198140D02*
X2661924D01*
X2433320Y1208970D02*
X2456110Y1186180D01*
X2136940Y1208970D02*
X2433320D01*
X2051920Y1123950D02*
X2136940Y1208970D01*
X2620420Y1197970D02*
X2632040Y1186350D01*
X2467900Y1174390D02*
X2510994D01*
X2456110Y1186180D02*
X2467900Y1174390D01*
X2510994D02*
X2518610Y1182007D01*
X2526226Y1197970D02*
X2620420D01*
X2518610Y1182007D02*
Y1190354D01*
X2526226Y1197970D01*
X2482490Y427080D02*
X2494280Y415290D01*
X2404470Y427080D02*
X2482490D01*
X2392680Y415290D02*
X2404470Y427080D01*
X2494280Y415290D02*
X2519680D01*
X2266750Y820620D02*
X2272030Y815340D01*
X2021840Y818610D02*
Y820420D01*
X2000400Y797170D02*
X2021840Y818610D01*
X2193799Y789500D02*
X2214689D01*
X2168500Y814799D02*
Y839470D01*
Y814799D02*
X2193799Y789500D01*
X2230120Y728980D02*
X2266750Y765610D01*
Y820620D01*
X2254250Y833120D02*
X2266750Y820620D01*
X2214689Y789500D02*
X2232909Y807720D01*
X2272030Y713740D02*
Y815340D01*
X1979730Y742750D02*
Y786228D01*
X1967230Y798728D02*
Y899160D01*
Y730250D02*
X1979730Y742750D01*
X1967230Y798728D02*
X1979730Y786228D01*
X2000400Y795175D02*
Y797170D01*
X2001520Y872490D02*
X2026020D01*
X2053790Y844720D01*
X2232909Y807720D02*
X2254250D01*
X2545080Y415290D02*
X2557690Y402680D01*
X2719580Y396680D02*
X2780030Y457130D01*
X2700580Y402680D02*
X2780840Y482940D01*
X2557690Y402680D02*
X2700580D01*
X2548665Y403220D02*
X2555205Y396680D01*
X2719580D01*
X2468880Y415290D02*
X2480950Y403220D01*
X2548665D01*
X2367280Y415290D02*
X2379070Y403500D01*
X2457090D01*
X2468880Y415290D01*
X2219960Y473710D02*
X2235200Y458470D01*
X2250440D01*
X2392680Y415290D02*
Y416155D01*
X2250440Y458470D02*
X2269490Y439420D01*
X2367280Y415290D02*
Y433070D01*
X2269490Y439420D02*
X2360930D01*
X2245360Y473710D02*
X2273070Y446000D01*
X2362835D01*
X2392680Y416155D01*
X2360930Y439420D02*
X2367280Y433070D01*
X2519680Y415290D02*
X2545080D01*
X2879880Y531650D02*
X2899810D01*
X2847340Y499110D02*
X2879880Y531650D01*
X2780840Y482940D02*
X2938520D01*
X2949810Y471650D01*
X2899810Y534513D02*
X2905760Y540463D01*
X2899810Y531650D02*
Y534513D01*
X2905760Y540463D02*
Y632460D01*
X2913520Y526973D02*
Y614820D01*
X2931160Y632460D01*
X2949810Y471650D02*
Y490684D01*
X2913520Y526973D02*
X2949810Y490684D01*
D37*
X2461260Y1115060D02*
D03*
X2397760Y632460D02*
D03*
X3210560Y1115060D02*
D03*
X2702560Y962660D02*
D03*
Y683260D02*
D03*
X3223260Y632460D02*
D03*
D38*
X3175000Y1115060D02*
D03*
X3149600D02*
D03*
X3124200D02*
D03*
X3098800D02*
D03*
X3073400D02*
D03*
X3048000D02*
D03*
X3022600D02*
D03*
X2997200D02*
D03*
X2971800D02*
D03*
X2946400D02*
D03*
X2905760D02*
D03*
X2880360D02*
D03*
X2854960D02*
D03*
X2829560D02*
D03*
X2804160D02*
D03*
X2778760D02*
D03*
X2753360D02*
D03*
X2727960D02*
D03*
X2677160D02*
D03*
X2651760D02*
D03*
X2626360D02*
D03*
X2600960D02*
D03*
X2575560D02*
D03*
X2550160D02*
D03*
X2524760D02*
D03*
X2499360D02*
D03*
X2397760D02*
D03*
X2423160D02*
D03*
X2397760Y1089660D02*
D03*
X2423160D02*
D03*
X2397760Y1064260D02*
D03*
X2423160D02*
D03*
X2397760Y1038860D02*
D03*
X2423160D02*
D03*
X2397760Y1013460D02*
D03*
X2423160D02*
D03*
X2397760Y988060D02*
D03*
X2423160D02*
D03*
X2397760Y962660D02*
D03*
X2423160D02*
D03*
X2397760Y937260D02*
D03*
X2423160D02*
D03*
X2397760Y911860D02*
D03*
X2423160D02*
D03*
X2397760Y886460D02*
D03*
X2423160D02*
D03*
X2397760Y861060D02*
D03*
X2423160D02*
D03*
X2397760Y835660D02*
D03*
X2423160D02*
D03*
X2397760Y810260D02*
D03*
X2423160D02*
D03*
X2397760Y784860D02*
D03*
X2423160D02*
D03*
Y759460D02*
D03*
X2397760D02*
D03*
X2423160Y734060D02*
D03*
X2397760D02*
D03*
X2423160Y708660D02*
D03*
X2397760D02*
D03*
X2423160Y683260D02*
D03*
X2397760D02*
D03*
X2448560Y632460D02*
D03*
X2473960D02*
D03*
X2499360D02*
D03*
X2524760D02*
D03*
X2550160D02*
D03*
X2575560D02*
D03*
X2600960D02*
D03*
X2626360D02*
D03*
X2677160D02*
D03*
X2702560D02*
D03*
X2727960D02*
D03*
X2753360D02*
D03*
X2778760D02*
D03*
X2804160D02*
D03*
X2829560D02*
D03*
X2854960D02*
D03*
X2905760D02*
D03*
X2931160D02*
D03*
X2956560D02*
D03*
X2981960D02*
D03*
X3007360D02*
D03*
X3032760D02*
D03*
X3058160D02*
D03*
D39*
X3083560D02*
D03*
D40*
X2028790Y844720D02*
D03*
X2026920Y1123950D02*
D03*
X2026450Y1031240D02*
D03*
X2027320Y937260D02*
D03*
X3001010Y1186180D02*
D03*
X2027720Y754380D02*
D03*
Y664210D02*
D03*
X2827620Y1185080D02*
D03*
X2026920Y572770D02*
D03*
X2029460Y483870D02*
D03*
X2456110Y1186180D02*
D03*
X2632040Y1186350D02*
D03*
D41*
X2053790Y844720D02*
D03*
X2103790D02*
D03*
X2078790D02*
D03*
X2272030Y561340D02*
D03*
X2195830D02*
D03*
X2272030Y586740D02*
D03*
X2195830D02*
D03*
X2272030Y612140D02*
D03*
X2195830D02*
D03*
X2272030Y637540D02*
D03*
X2195830D02*
D03*
Y662940D02*
D03*
X2272030D02*
D03*
Y688340D02*
D03*
X2195830D02*
D03*
X2272030Y713740D02*
D03*
X2780030Y507130D02*
D03*
Y532130D02*
D03*
Y482130D02*
D03*
X2076920Y1123950D02*
D03*
X2101920D02*
D03*
X2051920D02*
D03*
X2076450Y1031240D02*
D03*
X2101450D02*
D03*
X2051450D02*
D03*
X2392680Y415290D02*
D03*
X2418080D02*
D03*
X2443480D02*
D03*
X2468880D02*
D03*
X2494280D02*
D03*
X2519680D02*
D03*
X2545080D02*
D03*
X2570480D02*
D03*
X2595880D02*
D03*
X2621280D02*
D03*
X2646680D02*
D03*
Y567690D02*
D03*
X2621280D02*
D03*
X2595880D02*
D03*
X2570480D02*
D03*
X2545080D02*
D03*
X2519680D02*
D03*
X2494280D02*
D03*
X2468880D02*
D03*
X2443480D02*
D03*
X2418080D02*
D03*
X2392680D02*
D03*
X2367280D02*
D03*
X2077320Y937260D02*
D03*
X2102320D02*
D03*
X2052320D02*
D03*
X3051010Y1186180D02*
D03*
X3076010D02*
D03*
X3026010D02*
D03*
X2077720Y754380D02*
D03*
X2102720D02*
D03*
X2052720D02*
D03*
X2077720Y664210D02*
D03*
X2102720D02*
D03*
X2052720D02*
D03*
X2877620Y1185080D02*
D03*
X2902620D02*
D03*
X2852620D02*
D03*
X2076920Y572770D02*
D03*
X2101920D02*
D03*
X2051920D02*
D03*
X2079460Y483870D02*
D03*
X2104460D02*
D03*
X2054460D02*
D03*
X2506110Y1186180D02*
D03*
X2531110D02*
D03*
X2481110D02*
D03*
X2682040Y1186350D02*
D03*
X2707040D02*
D03*
X2657040D02*
D03*
D42*
X2195830Y713740D02*
D03*
X2780030Y457130D02*
D03*
X2367280Y415290D02*
D03*
D43*
X2379980Y491490D02*
D03*
X2633980D02*
D03*
D44*
X2254250Y807720D02*
D03*
Y833120D02*
D03*
Y858520D02*
D03*
Y883920D02*
D03*
Y909320D02*
D03*
Y934720D02*
D03*
Y960120D02*
D03*
Y985520D02*
D03*
Y1010920D02*
D03*
X1967230Y755650D02*
D03*
Y781050D02*
D03*
Y924560D02*
D03*
Y949960D02*
D03*
D45*
X2254250Y1036320D02*
D03*
X1967230Y730250D02*
D03*
Y899160D02*
D03*
D46*
X2899810Y471650D02*
D03*
D47*
X2924810D02*
D03*
X2949810D02*
D03*
X2899810Y531650D02*
D03*
X2924810D02*
D03*
X2949810D02*
D03*
D48*
X2270760Y473710D02*
D03*
D49*
X2245360D02*
D03*
X2219960D02*
D03*
X2194560D02*
D03*
D50*
X3060900Y507830D02*
D03*
D51*
X3085900D02*
D03*
D52*
X2315210Y939090D02*
D03*
Y1009090D02*
D03*
X2316480Y1127200D02*
D03*
Y1057200D02*
D03*
D53*
X3221211Y512616D02*
D03*
X3233911Y1181906D02*
D03*
X2195830Y1177290D02*
D03*
X1953260Y534670D02*
D03*
D54*
X2082800Y798830D02*
D03*
X2764790Y1140460D02*
D03*
X2768600Y1182370D02*
D03*
X2481580Y464630D02*
D03*
X2437130Y454660D02*
D03*
X2236470Y674370D02*
D03*
X2449830Y678180D02*
D03*
X2307590Y1037590D02*
D03*
X2376170Y1078230D02*
D03*
X2669540Y486410D02*
D03*
X2510790Y434340D02*
D03*
X2616200Y450850D02*
D03*
X2361787Y633317D02*
D03*
X2327910Y623570D02*
D03*
X2348230Y668020D02*
D03*
X2021840Y820420D02*
D03*
X2230120Y728980D02*
D03*
X2168500Y839470D02*
D03*
X2000400Y795175D02*
D03*
X2001520Y872490D02*
D03*
X2132330Y930910D02*
D03*
X2112670Y911860D02*
D03*
X2090420Y441960D02*
D03*
X2279650Y497840D02*
D03*
X2576830Y386080D02*
D03*
X2542540Y392620D02*
D03*
X2457450Y617381D02*
D03*
X2487754Y607031D02*
D03*
X2312670Y664210D02*
D03*
X2236470Y648970D02*
D03*
X2147570Y642620D02*
D03*
X2246630Y524510D02*
D03*
X2137410Y575310D02*
D03*
X2847340Y499110D02*
D03*
M02*
