M48
;Layer_Color=9474304
;FILE_FORMAT=4:4
METRIC,LZ
;TYPE=PLATED
T1F00S00C0.6000
T2F00S00C0.6350
T3F00S00C0.7500
T4F00S00C0.8500
T5F00S00C0.9000
T6F00S00C1.0000
T7F00S00C1.0500
T8F00S00C1.1000
T9F00S00C2.5000
T10F00S00C3.0000
T11F00S00C3.1000
;TYPE=NON_PLATED
T12F00S00C3.2000
%
T01
X0254254Y0039262
X0257683Y0038608
X0284734Y0049911
X0266954Y0048641
X026162Y0045085
X0251079Y0043434
X0248158Y0046463
X0243713Y0045466
X0245745Y00617381
X02487754Y00607031
X0244983Y0067818
X0234823Y0066802
X0231267Y0066421
X0232791Y0062357
X02361787Y00633317
X0223647Y0064897
Y0067437
X0223012Y0072898
X0214757Y0064262
X0213741Y0057531
X0224663Y0052451
X0227965Y0049784
X0209042Y0044196
X020828Y0079883
X0202184Y0082042
X020004Y00795175
X0200152Y0087249
X0211267Y0091186
X0213233Y0093091
X021685Y0083947
X0230759Y0103759
X0237617Y0107823
X0276479Y0114046
X027686Y0118237
T02
X0219456Y0047371
X0221996
X0224536
X0227076
T03
X0231521Y0093909
Y0100909
X0231648Y010572
Y011272
T04
X0277876Y0063246
X0280416
X0282956
X0285496
X0290576
X0293116
X0295656
X0298196
X0300736
X0303276
X0305816
X0308356
X0275336
X0272796
X0270256
X0267716
X0262636
X0260096
X0257556
X0255016
X0252476
X0249936
X0247396
X0244856
X0242316Y0068326
Y0070866
Y0073406
Y0075946
Y0078486
X0239776
Y0075946
Y0073406
Y0070866
Y0068326
Y0081026
Y0083566
Y0086106
Y0088646
Y0091186
Y0093726
Y0096266
Y0098806
Y0101346
Y0103886
Y0106426
Y0108966
Y0111506
X0242316
Y0108966
Y0106426
Y0103886
Y0101346
Y0098806
Y0096266
Y0093726
Y0091186
Y0088646
Y0086106
Y0083566
Y0081026
X0249936Y0111506
X0252476
X0255016
X0257556
X0260096
X0262636
X0265176
X0267716
X0272796
X0275336
X0277876
X0280416
X0282956
X0285496
X0288036
X0290576
X029464
X029718
X029972
X030226
X03048
X030734
X030988
X031242
X031496
X03175
T05
X0289981Y0047165
X0292481
X0294981
Y0053165
X0292481
X0289981
T06
X0278003Y0045713
Y0048213
Y0050713
Y0053213
X0264668Y0056769
X0262128
X0259588
X0257048
X0254508
X0251968
X0249428
X0246888
X0244348
X0241808
X0239268
Y0041529
X0241808
X0244348
X0246888
X0249428
X0251968
X0254508
X0257048
X0259588
X0262128
X0264668
X0236728
Y0056769
X0227203Y0056134
Y0058674
Y0061214
Y0063754
Y0066294
Y0068834
Y0071374
X0219583
Y0068834
Y0066294
Y0063754
Y0061214
Y0058674
Y0056134
X0210192Y0057277
X0207692
X0205192
X0202692
X0202946Y0048387
X0205446
X0207946
X0210446
X0210272Y0066421
X0207772
X0205272
X0202772
Y0075438
X0205272
X0207772
X0210272
X0210379Y0084472
X0207879
X0205379
X0202879
X0202732Y0093726
X0205232
X0207732
X0210232
X0210145Y0103124
X0207645
X0205145
X0202645
X0202692Y0112395
X0205192
X0207692
X0210192
X0245611Y0118618
X0248111
X0250611
X0253111
X0263204Y0118635
X0265704
X0268204
X0270704
X0282762Y0118508
X0285262
X0287762
X0290262
X0300101Y0118618
X0302601
X0305101
X0307601
T07
X030609Y0050783
X030859
T08
X0196723Y0073025
Y0075565
Y0078105
Y0089916
Y0092456
Y0094996
X0225425Y0096012
Y0093472
Y0090932
Y0088392
Y0085852
Y0083312
Y0080772
Y0098552
Y0101092
Y0103632
T09
X0237998Y0049149
T10
X03221211Y00512616
X0195326Y0053467
X0219583Y0117729
X03233911Y01181906
T11
X0263398Y0049149
T12
X0322326Y0063246
X0270256Y0068326
X0239776Y0063246
X0246126Y0111506
X0270256Y0096266
X0321056Y0111506
M30
