G04*
G04 #@! TF.GenerationSoftware,Altium Limited,Altium Designer,22.1.2 (22)*
G04*
G04 Layer_Physical_Order=2*
G04 Layer_Color=16711680*
%FSLAX44Y44*%
%MOMM*%
G71*
G04*
G04 #@! TF.SameCoordinates,ACB05888-95A5-4360-B840-782E19AB6677*
G04*
G04*
G04 #@! TF.FilePolarity,Positive*
G04*
G01*
G75*
%ADD35C,0.3000*%
%ADD36C,0.3500*%
%ADD37C,3.2000*%
%ADD38C,1.3580*%
%ADD39R,1.3580X1.3580*%
%ADD40R,1.5080X1.5080*%
%ADD41C,1.5080*%
%ADD42R,1.5080X1.5080*%
%ADD43C,3.5160*%
%ADD44C,1.6500*%
%ADD45R,1.6500X1.6500*%
%ADD46R,1.4080X1.4080*%
%ADD47C,1.4080*%
%ADD48R,0.9850X0.9850*%
%ADD49C,0.9850*%
%ADD50C,1.5750*%
%ADD51R,1.5750X1.5750*%
%ADD52C,1.2580*%
%ADD53C,4.0000*%
%ADD54C,1.2700*%
G36*
X3333750Y1205230D02*
Y440690D01*
X2904490D01*
X2860040Y396240D01*
Y393700D01*
X2632517D01*
X2632031Y394873D01*
X2643031Y405873D01*
X2645358Y405250D01*
X2648002D01*
X2650555Y405934D01*
X2652845Y407256D01*
X2654714Y409125D01*
X2656036Y411415D01*
X2656720Y413968D01*
Y416612D01*
X2656036Y419165D01*
X2654714Y421455D01*
X2652845Y423324D01*
X2650555Y424646D01*
X2648002Y425330D01*
X2645358D01*
X2642805Y424646D01*
X2640515Y423324D01*
X2638646Y421455D01*
X2637324Y419165D01*
X2636640Y416612D01*
Y413968D01*
X2637263Y411641D01*
X2619322Y393700D01*
X2606244D01*
X2606072Y394961D01*
X2606331Y395012D01*
X2607654Y395896D01*
X2617631Y405873D01*
X2619958Y405250D01*
X2622602D01*
X2625155Y405934D01*
X2627445Y407256D01*
X2629314Y409125D01*
X2630636Y411415D01*
X2631320Y413968D01*
Y416612D01*
X2630636Y419165D01*
X2629314Y421455D01*
X2627445Y423324D01*
X2625155Y424646D01*
X2622602Y425330D01*
X2619958D01*
X2617405Y424646D01*
X2615115Y423324D01*
X2613246Y421455D01*
X2611924Y419165D01*
X2611240Y416612D01*
Y413968D01*
X2611863Y411641D01*
X2603081Y402858D01*
X2551325D01*
X2551325Y402858D01*
X2549764Y402548D01*
X2548441Y401664D01*
X2547026Y400249D01*
X2545956Y400867D01*
X2543705Y401470D01*
X2541375D01*
X2539124Y400867D01*
X2537106Y399702D01*
X2535458Y398054D01*
X2534293Y396036D01*
X2533690Y393785D01*
Y393700D01*
X2058670D01*
X1932940Y519430D01*
Y522296D01*
X1934210Y522681D01*
X1935783Y520327D01*
X1938917Y517193D01*
X1942602Y514731D01*
X1946697Y513035D01*
X1951044Y512170D01*
X1955476D01*
X1959823Y513035D01*
X1963918Y514731D01*
X1967603Y517193D01*
X1970737Y520327D01*
X1973199Y524012D01*
X1974895Y528107D01*
X1975760Y532454D01*
Y536886D01*
X1974895Y541233D01*
X1973199Y545328D01*
X1970737Y549013D01*
X1967603Y552147D01*
X1963918Y554609D01*
X1959823Y556305D01*
X1955476Y557170D01*
X1951044D01*
X1946697Y556305D01*
X1942602Y554609D01*
X1938917Y552147D01*
X1935783Y549013D01*
X1934210Y546659D01*
X1932940Y547044D01*
Y1104900D01*
X2054860Y1226820D01*
X3312160D01*
X3333750Y1205230D01*
D02*
G37*
%LPC*%
G36*
X2695500Y1201968D02*
X2695500Y1201968D01*
X2566931D01*
X2566931Y1201968D01*
X2565370Y1201658D01*
X2564047Y1200774D01*
X2564047Y1200774D01*
X2485686Y1122413D01*
X2484802Y1121090D01*
X2484492Y1119529D01*
X2484492Y1119529D01*
Y1115775D01*
X2480762Y1112045D01*
X2479642Y1112644D01*
X2479760Y1113238D01*
Y1116882D01*
X2479049Y1120456D01*
X2477655Y1123823D01*
X2475630Y1126853D01*
X2473053Y1129430D01*
X2470023Y1131454D01*
X2466656Y1132849D01*
X2463082Y1133560D01*
X2459438D01*
X2455864Y1132849D01*
X2452497Y1131454D01*
X2449467Y1129430D01*
X2446890Y1126853D01*
X2444866Y1123823D01*
X2443471Y1120456D01*
X2442760Y1116882D01*
Y1113238D01*
X2443471Y1109664D01*
X2444866Y1106297D01*
X2446890Y1103267D01*
X2449467Y1100690D01*
X2449971Y1100354D01*
X2449602Y1099138D01*
X2444863D01*
X2440667Y1103334D01*
X2439344Y1104218D01*
X2437784Y1104528D01*
X2437784Y1104528D01*
X2424451D01*
X2424383Y1105770D01*
X2426746Y1106403D01*
X2428864Y1107626D01*
X2430594Y1109356D01*
X2431817Y1111474D01*
X2432450Y1113837D01*
Y1116283D01*
X2431817Y1118646D01*
X2430594Y1120764D01*
X2428864Y1122494D01*
X2426746Y1123717D01*
X2424383Y1124350D01*
X2421937D01*
X2419574Y1123717D01*
X2417456Y1122494D01*
X2415726Y1120764D01*
X2414503Y1118646D01*
X2413870Y1116283D01*
Y1113837D01*
X2414503Y1111474D01*
X2415726Y1109356D01*
X2417456Y1107626D01*
X2419574Y1106403D01*
X2421937Y1105770D01*
X2421868Y1104528D01*
X2408550D01*
X2406989Y1104218D01*
X2405666Y1103334D01*
X2405666Y1103334D01*
X2400796Y1098464D01*
X2398983Y1098950D01*
X2396537D01*
X2394174Y1098317D01*
X2392056Y1097094D01*
X2390326Y1095364D01*
X2389103Y1093246D01*
X2388470Y1090883D01*
Y1088437D01*
X2389103Y1086074D01*
X2390326Y1083956D01*
X2390800Y1083482D01*
X2390314Y1082308D01*
X2384034D01*
X2383252Y1083664D01*
X2381604Y1085312D01*
X2379586Y1086477D01*
X2377335Y1087080D01*
X2375005D01*
X2372754Y1086477D01*
X2370736Y1085312D01*
X2369088Y1083664D01*
X2367923Y1081646D01*
X2367320Y1079395D01*
Y1077065D01*
X2367923Y1074814D01*
X2369088Y1072796D01*
X2370736Y1071148D01*
X2372754Y1069983D01*
X2375005Y1069380D01*
X2377335D01*
X2379586Y1069983D01*
X2381604Y1071148D01*
X2383252Y1072796D01*
X2384034Y1074152D01*
X2393875D01*
X2394174Y1072917D01*
X2392056Y1071694D01*
X2390326Y1069964D01*
X2389103Y1067846D01*
X2388470Y1065483D01*
Y1063037D01*
X2389103Y1060674D01*
X2390175Y1058818D01*
X2389712Y1057548D01*
X2376905D01*
X2374370Y1060084D01*
X2373047Y1060968D01*
X2371486Y1061278D01*
X2371486Y1061278D01*
X2324275D01*
X2323514Y1062597D01*
X2321877Y1064234D01*
X2319873Y1065391D01*
X2317637Y1065990D01*
X2315323D01*
X2313087Y1065391D01*
X2311083Y1064234D01*
X2309446Y1062597D01*
X2308289Y1060593D01*
X2307690Y1058357D01*
Y1056043D01*
X2308289Y1053807D01*
X2309446Y1051803D01*
X2311083Y1050166D01*
X2313087Y1049009D01*
X2315323Y1048410D01*
X2317637D01*
X2319108Y1048804D01*
X2369552Y998361D01*
Y962175D01*
X2368378Y961689D01*
X2323606Y1006462D01*
X2324000Y1007933D01*
Y1010247D01*
X2323401Y1012483D01*
X2322244Y1014487D01*
X2320607Y1016124D01*
X2318603Y1017281D01*
X2316367Y1017880D01*
X2314053D01*
X2312582Y1017486D01*
X2311434Y1018633D01*
X2311668Y1019810D01*
Y1029725D01*
X2313024Y1030508D01*
X2314672Y1032156D01*
X2315837Y1034174D01*
X2316440Y1036425D01*
Y1038755D01*
X2315837Y1041006D01*
X2314672Y1043024D01*
X2313024Y1044672D01*
X2311006Y1045837D01*
X2308755Y1046440D01*
X2306425D01*
X2304174Y1045837D01*
X2302156Y1044672D01*
X2300508Y1043024D01*
X2299343Y1041006D01*
X2298740Y1038755D01*
Y1036425D01*
X2299343Y1034174D01*
X2300508Y1032156D01*
X2302156Y1030508D01*
X2303512Y1029725D01*
Y1021048D01*
X2303204Y1019503D01*
X2303204Y1019502D01*
Y1017018D01*
X2303204Y1017017D01*
X2303515Y1015457D01*
X2304399Y1014134D01*
X2306814Y1011718D01*
X2306420Y1010247D01*
Y1007933D01*
X2307019Y1005697D01*
X2308176Y1003693D01*
X2309813Y1002056D01*
X2311817Y1000899D01*
X2314053Y1000300D01*
X2316367D01*
X2317838Y1000694D01*
X2364052Y954481D01*
Y715822D01*
X2362878Y715336D01*
X2301900Y776314D01*
X2300577Y777198D01*
X2299016Y777508D01*
X2299016Y777508D01*
X2193867D01*
X2140638Y830738D01*
Y902607D01*
X2140638Y902607D01*
X2140328Y904168D01*
X2139444Y905491D01*
X2139444Y905491D01*
X2119841Y925094D01*
X2118518Y925978D01*
X2116957Y926288D01*
X2116957Y926288D01*
X2108383D01*
X2108383Y926288D01*
X2107668Y926146D01*
X2106583Y926862D01*
X2106572Y927100D01*
X2106803Y928255D01*
X2108485Y929226D01*
X2110354Y931095D01*
X2111676Y933385D01*
X2112360Y935938D01*
Y938582D01*
X2111676Y941135D01*
X2110354Y943425D01*
X2108485Y945294D01*
X2106195Y946616D01*
X2103642Y947300D01*
X2100998D01*
X2098445Y946616D01*
X2096155Y945294D01*
X2094286Y943425D01*
X2094208Y943290D01*
X2092938Y943631D01*
Y1023757D01*
X2094208Y1024283D01*
X2095285Y1023206D01*
X2097575Y1021884D01*
X2100128Y1021200D01*
X2102772D01*
X2105325Y1021884D01*
X2107615Y1023206D01*
X2109484Y1025075D01*
X2110806Y1027365D01*
X2111490Y1029918D01*
Y1032562D01*
X2110806Y1035115D01*
X2109484Y1037405D01*
X2107615Y1039274D01*
X2105325Y1040596D01*
X2102772Y1041280D01*
X2100128D01*
X2097575Y1040596D01*
X2095285Y1039274D01*
X2094208Y1038197D01*
X2092938Y1038723D01*
Y1112010D01*
X2092628Y1113571D01*
X2091744Y1114894D01*
X2086337Y1120301D01*
X2086960Y1122628D01*
Y1125272D01*
X2086276Y1127825D01*
X2084954Y1130115D01*
X2084830Y1130238D01*
X2085316Y1131412D01*
X2088691D01*
X2092504Y1127599D01*
X2091880Y1125272D01*
Y1122628D01*
X2092564Y1120075D01*
X2093886Y1117785D01*
X2095755Y1115916D01*
X2098045Y1114594D01*
X2100598Y1113910D01*
X2103242D01*
X2105795Y1114594D01*
X2108085Y1115916D01*
X2109954Y1117785D01*
X2111276Y1120075D01*
X2111960Y1122628D01*
Y1125272D01*
X2111276Y1127825D01*
X2109954Y1130115D01*
X2108085Y1131984D01*
X2105795Y1133306D01*
X2103242Y1133990D01*
X2100598D01*
X2098271Y1133366D01*
X2093264Y1138374D01*
X2091941Y1139258D01*
X2090380Y1139568D01*
X2090380Y1139568D01*
X2060050D01*
X2060050Y1139568D01*
X2058489Y1139258D01*
X2058375Y1139182D01*
X2058261Y1139258D01*
X2056700Y1139568D01*
X2056700Y1139568D01*
X2047140D01*
X2047140Y1139568D01*
X2045579Y1139258D01*
X2044256Y1138374D01*
X2044256Y1138374D01*
X2038230Y1132348D01*
X2036960Y1132874D01*
Y1133990D01*
X2016880D01*
Y1113910D01*
X2035832D01*
Y1041280D01*
X2016410D01*
Y1021200D01*
X2035832D01*
Y989999D01*
X2008986Y963154D01*
X2008102Y961831D01*
X2007792Y960270D01*
X2007792Y960270D01*
Y850025D01*
X2007722Y849921D01*
X2007412Y848360D01*
X2007412Y848360D01*
Y802339D01*
X2006238Y801852D01*
X2005834Y802257D01*
X2003816Y803422D01*
X2001565Y804025D01*
X1999235D01*
X1996984Y803422D01*
X1994966Y802257D01*
X1993318Y800609D01*
X1992153Y798591D01*
X1991550Y796340D01*
Y794010D01*
X1991840Y792928D01*
X1980322Y781410D01*
X1979383Y780005D01*
X1979053Y778346D01*
Y773601D01*
X1971174Y765722D01*
X1968645Y766400D01*
X1965815D01*
X1963286Y765722D01*
X1959063Y769945D01*
Y772355D01*
X1960237Y772841D01*
X1960629Y772448D01*
X1963081Y771033D01*
X1965815Y770300D01*
X1968645D01*
X1971379Y771033D01*
X1973831Y772448D01*
X1975832Y774449D01*
X1977247Y776901D01*
X1977980Y779635D01*
Y782465D01*
X1977247Y785199D01*
X1975832Y787651D01*
X1973831Y789652D01*
X1971379Y791067D01*
X1968645Y791800D01*
X1965815D01*
X1963081Y791067D01*
X1960629Y789652D01*
X1960237Y789259D01*
X1959063Y789745D01*
Y889640D01*
X1966595D01*
Y899160D01*
Y908680D01*
X1959063D01*
Y910265D01*
X1963286Y914488D01*
X1965815Y913810D01*
X1968645D01*
X1971379Y914543D01*
X1973831Y915958D01*
X1975832Y917959D01*
X1977247Y920411D01*
X1977980Y923145D01*
Y925975D01*
X1977247Y928709D01*
X1975832Y931161D01*
X1973831Y933162D01*
X1971379Y934577D01*
X1968645Y935310D01*
X1965815D01*
X1963081Y934577D01*
X1960629Y933162D01*
X1958628Y931161D01*
X1957213Y928709D01*
X1956480Y925975D01*
Y923145D01*
X1957158Y920616D01*
X1951666Y915124D01*
X1950727Y913718D01*
X1950397Y912060D01*
Y768150D01*
X1950727Y766492D01*
X1951666Y765086D01*
X1957158Y759594D01*
X1956480Y757065D01*
Y754235D01*
X1957213Y751501D01*
X1958628Y749049D01*
X1960629Y747048D01*
X1963081Y745633D01*
X1965815Y744900D01*
X1968645D01*
X1971379Y745633D01*
X1973831Y747048D01*
X1975832Y749049D01*
X1977247Y751501D01*
X1977980Y754235D01*
Y757065D01*
X1977302Y759594D01*
X1986450Y768742D01*
X1987390Y770148D01*
X1987719Y771806D01*
Y776551D01*
X1997861Y786693D01*
X1999235Y786325D01*
X2001565D01*
X2003816Y786928D01*
X2005834Y788093D01*
X2006238Y788497D01*
X2007412Y788011D01*
Y736830D01*
X2007412Y736830D01*
X2007722Y735269D01*
X2008606Y733946D01*
X2035832Y706721D01*
Y674250D01*
X2017680D01*
Y654170D01*
X2035832D01*
Y582810D01*
X2016880D01*
Y562730D01*
X2036812D01*
Y530860D01*
X2036812Y530860D01*
X2037122Y529299D01*
X2038006Y527976D01*
X2038842Y527141D01*
Y493910D01*
X2019420D01*
Y473830D01*
X2039500D01*
Y474946D01*
X2040770Y475472D01*
X2076686Y439556D01*
X2076686Y439556D01*
X2078009Y438672D01*
X2079570Y438362D01*
X2079570Y438362D01*
X2082278D01*
X2083338Y436526D01*
X2084986Y434878D01*
X2087004Y433713D01*
X2089255Y433110D01*
X2091585D01*
X2093836Y433713D01*
X2095854Y434878D01*
X2097502Y436526D01*
X2098667Y438544D01*
X2099270Y440795D01*
Y443125D01*
X2098667Y445376D01*
X2097502Y447394D01*
X2095854Y449042D01*
X2093836Y450207D01*
X2093389Y450327D01*
X2093556Y451597D01*
X2227580D01*
X2229238Y451927D01*
X2230644Y452866D01*
X2244725Y466947D01*
Y473710D01*
X2245360D01*
Y474345D01*
X2251555D01*
Y474942D01*
X2250612Y477219D01*
X2250448Y477383D01*
X2250934Y478557D01*
X2263335D01*
Y466285D01*
X2272417D01*
X2286926Y451776D01*
X2286926Y451776D01*
X2288249Y450892D01*
X2289810Y450582D01*
X2429265D01*
X2430048Y449226D01*
X2431696Y447578D01*
X2433714Y446413D01*
X2435965Y445810D01*
X2438295D01*
X2440546Y446413D01*
X2442564Y447578D01*
X2444212Y449226D01*
X2445377Y451244D01*
X2445980Y453495D01*
Y455825D01*
X2445377Y458076D01*
X2444212Y460094D01*
X2442564Y461742D01*
X2440546Y462907D01*
X2438295Y463510D01*
X2435965D01*
X2433714Y462907D01*
X2431696Y461742D01*
X2430048Y460094D01*
X2429265Y458738D01*
X2407043D01*
X2406517Y460008D01*
X2417410Y470902D01*
X2473178D01*
X2473802Y469689D01*
X2473313Y468898D01*
X2467610D01*
X2466049Y468588D01*
X2464726Y467704D01*
X2464726Y467704D01*
X2421729Y424706D01*
X2419402Y425330D01*
X2416758D01*
X2414205Y424646D01*
X2411915Y423324D01*
X2410046Y421455D01*
X2408724Y419165D01*
X2408040Y416612D01*
Y413968D01*
X2408724Y411415D01*
X2410046Y409125D01*
X2411915Y407256D01*
X2414205Y405934D01*
X2416758Y405250D01*
X2419402D01*
X2421955Y405934D01*
X2424245Y407256D01*
X2426114Y409125D01*
X2427436Y411415D01*
X2428120Y413968D01*
Y416612D01*
X2427496Y418939D01*
X2469299Y460742D01*
X2473606D01*
X2474498Y459196D01*
X2476146Y457548D01*
X2478164Y456383D01*
X2480415Y455780D01*
X2482745D01*
X2484996Y456383D01*
X2487014Y457548D01*
X2488662Y459196D01*
X2489827Y461214D01*
X2490430Y463465D01*
Y465795D01*
X2489827Y468046D01*
X2488911Y469632D01*
X2489498Y470902D01*
X2509101D01*
X2561064Y418939D01*
X2560440Y416612D01*
Y413968D01*
X2561124Y411415D01*
X2562446Y409125D01*
X2564315Y407256D01*
X2566605Y405934D01*
X2569158Y405250D01*
X2571802D01*
X2574355Y405934D01*
X2576645Y407256D01*
X2578514Y409125D01*
X2579418Y410691D01*
X2580459Y411522D01*
X2582020Y411212D01*
X2586642D01*
X2587846Y409125D01*
X2589715Y407256D01*
X2592005Y405934D01*
X2594558Y405250D01*
X2597202D01*
X2599755Y405934D01*
X2602045Y407256D01*
X2603914Y409125D01*
X2605236Y411415D01*
X2605920Y413968D01*
Y416612D01*
X2605236Y419165D01*
X2603914Y421455D01*
X2602045Y423324D01*
X2599755Y424646D01*
X2597202Y425330D01*
X2594558D01*
X2592005Y424646D01*
X2589715Y423324D01*
X2587846Y421455D01*
X2587304Y420517D01*
X2585966Y420738D01*
X2585788Y421631D01*
X2584904Y422954D01*
X2584904Y422954D01*
X2578144Y429714D01*
X2576821Y430598D01*
X2575260Y430908D01*
X2575260Y430908D01*
X2568408D01*
X2515762Y483554D01*
X2514439Y484438D01*
X2512878Y484748D01*
X2512878Y484748D01*
X2412735D01*
X2411175Y484438D01*
X2409852Y483554D01*
X2409852Y483554D01*
X2397706Y471408D01*
X2392918D01*
X2392866Y471617D01*
X2392777Y472678D01*
X2396081Y475389D01*
X2398912Y478840D01*
X2401016Y482776D01*
X2402312Y487048D01*
X2402750Y491490D01*
X2402312Y495932D01*
X2401016Y500204D01*
X2398912Y504140D01*
X2396081Y507591D01*
X2392630Y510422D01*
X2388694Y512526D01*
X2384422Y513822D01*
X2379980Y514260D01*
X2375538Y513822D01*
X2371266Y512526D01*
X2367330Y510422D01*
X2363879Y507591D01*
X2361048Y504140D01*
X2358944Y500204D01*
X2357648Y495932D01*
X2357210Y491490D01*
X2357648Y487048D01*
X2358944Y482776D01*
X2361048Y478840D01*
X2363879Y475389D01*
X2367183Y472678D01*
X2367094Y471617D01*
X2367042Y471408D01*
X2311849D01*
X2288095Y495163D01*
X2288500Y496675D01*
Y499005D01*
X2287897Y501256D01*
X2286732Y503274D01*
X2285084Y504922D01*
X2283066Y506087D01*
X2280815Y506690D01*
X2278485D01*
X2276234Y506087D01*
X2274216Y504922D01*
X2272568Y503274D01*
X2271403Y501256D01*
X2270800Y499005D01*
Y496675D01*
X2271403Y494424D01*
X2272568Y492406D01*
X2274216Y490758D01*
X2276234Y489593D01*
X2278485Y488990D01*
X2280815D01*
X2282327Y489395D01*
X2283836Y487887D01*
X2283350Y486713D01*
X2241507D01*
X2241507Y486713D01*
X2240734Y486560D01*
X2240108Y487730D01*
X2275094Y522716D01*
X2276033Y524122D01*
X2276363Y525780D01*
Y552249D01*
X2278195Y553306D01*
X2280064Y555175D01*
X2281386Y557465D01*
X2282070Y560018D01*
Y562662D01*
X2281386Y565215D01*
X2280064Y567505D01*
X2278195Y569374D01*
X2276363Y570431D01*
Y577649D01*
X2278195Y578706D01*
X2280064Y580575D01*
X2281386Y582865D01*
X2282070Y585418D01*
Y588062D01*
X2281386Y590615D01*
X2280064Y592905D01*
X2278195Y594774D01*
X2276363Y595831D01*
Y603049D01*
X2278195Y604106D01*
X2280064Y605975D01*
X2281386Y608265D01*
X2282070Y610818D01*
Y613462D01*
X2281386Y616015D01*
X2280064Y618305D01*
X2278195Y620174D01*
X2276363Y621231D01*
Y628449D01*
X2278195Y629506D01*
X2280064Y631375D01*
X2281386Y633665D01*
X2282070Y636218D01*
Y638862D01*
X2281386Y641415D01*
X2280064Y643705D01*
X2278195Y645574D01*
X2276363Y646631D01*
Y653849D01*
X2278195Y654906D01*
X2280064Y656775D01*
X2281386Y659065D01*
X2282070Y661618D01*
Y664262D01*
X2281386Y666815D01*
X2280064Y669105D01*
X2278195Y670974D01*
X2276363Y672031D01*
Y679249D01*
X2278195Y680306D01*
X2280064Y682175D01*
X2281386Y684465D01*
X2282070Y687018D01*
Y689662D01*
X2281386Y692215D01*
X2280064Y694505D01*
X2278195Y696374D01*
X2276363Y697431D01*
Y704649D01*
X2278195Y705706D01*
X2280064Y707575D01*
X2281386Y709865D01*
X2282070Y712418D01*
Y715062D01*
X2281386Y717615D01*
X2280064Y719905D01*
X2278195Y721774D01*
X2275905Y723096D01*
X2273352Y723780D01*
X2270708D01*
X2268155Y723096D01*
X2265865Y721774D01*
X2263996Y719905D01*
X2262674Y717615D01*
X2261990Y715062D01*
Y712418D01*
X2262674Y709865D01*
X2263996Y707575D01*
X2265865Y705706D01*
X2267697Y704649D01*
Y697431D01*
X2265865Y696374D01*
X2263996Y694505D01*
X2262674Y692215D01*
X2261990Y689662D01*
Y687018D01*
X2262674Y684465D01*
X2263996Y682175D01*
X2265865Y680306D01*
X2267697Y679249D01*
Y672031D01*
X2265865Y670974D01*
X2263996Y669105D01*
X2262674Y666815D01*
X2261990Y664262D01*
Y661618D01*
X2262674Y659065D01*
X2263996Y656775D01*
X2265865Y654906D01*
X2267697Y653849D01*
Y646631D01*
X2265865Y645574D01*
X2263996Y643705D01*
X2262674Y641415D01*
X2262328Y640125D01*
X2261058Y640292D01*
Y653860D01*
X2260748Y655421D01*
X2259864Y656744D01*
X2259864Y656744D01*
X2244915Y671693D01*
X2245320Y673205D01*
Y675535D01*
X2244717Y677786D01*
X2243552Y679804D01*
X2241904Y681452D01*
X2239886Y682617D01*
X2237635Y683220D01*
X2235305D01*
X2233054Y682617D01*
X2231036Y681452D01*
X2229388Y679804D01*
X2228223Y677786D01*
X2227620Y675535D01*
Y673205D01*
X2228223Y670954D01*
X2229388Y668936D01*
X2231036Y667288D01*
X2233054Y666123D01*
X2235305Y665520D01*
X2237635D01*
X2239147Y665925D01*
X2252902Y652171D01*
Y532428D01*
X2251632Y531841D01*
X2250046Y532757D01*
X2247795Y533360D01*
X2245465D01*
X2243214Y532757D01*
X2241196Y531592D01*
X2239548Y529944D01*
X2238766Y528588D01*
X2189899D01*
X2145855Y572633D01*
X2146260Y574145D01*
Y576475D01*
X2145657Y578726D01*
X2144492Y580744D01*
X2142844Y582392D01*
X2140826Y583557D01*
X2138575Y584160D01*
X2136245D01*
X2133994Y583557D01*
X2131976Y582392D01*
X2130328Y580744D01*
X2129163Y578726D01*
X2128560Y576475D01*
Y574145D01*
X2129163Y571894D01*
X2130328Y569876D01*
X2131976Y568228D01*
X2133994Y567063D01*
X2136245Y566460D01*
X2138575D01*
X2140087Y566865D01*
X2185326Y521626D01*
X2186649Y520742D01*
X2188210Y520432D01*
X2238766D01*
X2239548Y519076D01*
X2241196Y517428D01*
X2243214Y516263D01*
X2244983Y515789D01*
X2245466Y514477D01*
X2232690Y501700D01*
X2231250D01*
X2231250Y501700D01*
X2229689Y501390D01*
X2228366Y500506D01*
X2228366Y500506D01*
X2205649Y477788D01*
X2200779D01*
X2200501Y478269D01*
X2199119Y479651D01*
X2197426Y480629D01*
X2195538Y481135D01*
X2193582D01*
X2191694Y480629D01*
X2190001Y479651D01*
X2188619Y478269D01*
X2187641Y476576D01*
X2187135Y474688D01*
Y472733D01*
X2187641Y470844D01*
X2188051Y470133D01*
X2187318Y468863D01*
X2108914D01*
X2105121Y472657D01*
X2105607Y473830D01*
X2105782D01*
X2108335Y474514D01*
X2110625Y475836D01*
X2112494Y477705D01*
X2113816Y479995D01*
X2114500Y482548D01*
Y485192D01*
X2113816Y487745D01*
X2112494Y490035D01*
X2110625Y491904D01*
X2108335Y493226D01*
X2105782Y493910D01*
X2103138D01*
X2100585Y493226D01*
X2098295Y491904D01*
X2096426Y490035D01*
X2096182Y489612D01*
X2094843Y489833D01*
X2094768Y490211D01*
X2093884Y491534D01*
X2093884Y491534D01*
X2069458Y515959D01*
Y564374D01*
X2070632Y564860D01*
X2070755Y564736D01*
X2073045Y563414D01*
X2075598Y562730D01*
X2078242D01*
X2080795Y563414D01*
X2083085Y564736D01*
X2084954Y566605D01*
X2086276Y568895D01*
X2086960Y571448D01*
Y574092D01*
X2086276Y576645D01*
X2084954Y578935D01*
X2083085Y580804D01*
X2080795Y582126D01*
X2078242Y582810D01*
X2075598D01*
X2073045Y582126D01*
X2070755Y580804D01*
X2070632Y580680D01*
X2069458Y581166D01*
Y656477D01*
X2070728Y657003D01*
X2071555Y656176D01*
X2073845Y654854D01*
X2076398Y654170D01*
X2079042D01*
X2081595Y654854D01*
X2083885Y656176D01*
X2085754Y658045D01*
X2087076Y660335D01*
X2087760Y662888D01*
Y665532D01*
X2087076Y668085D01*
X2085754Y670375D01*
X2083885Y672244D01*
X2081595Y673566D01*
X2079042Y674250D01*
X2076398D01*
X2073845Y673566D01*
X2071555Y672244D01*
X2070728Y671417D01*
X2069458Y671943D01*
Y746647D01*
X2070728Y747173D01*
X2071555Y746346D01*
X2073845Y745024D01*
X2076398Y744340D01*
X2079042D01*
X2081595Y745024D01*
X2083885Y746346D01*
X2085589Y748051D01*
X2086522Y747968D01*
X2086927Y747838D01*
X2087866Y746432D01*
X2108382Y725916D01*
X2109788Y724977D01*
X2111447Y724647D01*
X2184879D01*
X2185790Y723780D01*
X2185790Y723377D01*
Y703700D01*
X2205870D01*
Y723377D01*
X2205870Y723780D01*
X2206781Y724647D01*
X2222403D01*
X2223038Y723546D01*
X2224686Y721898D01*
X2226704Y720733D01*
X2228955Y720130D01*
X2231285D01*
X2233536Y720733D01*
X2235554Y721898D01*
X2237202Y723546D01*
X2238367Y725564D01*
X2238970Y727815D01*
Y730145D01*
X2238367Y732396D01*
X2237202Y734414D01*
X2235554Y736062D01*
X2233536Y737227D01*
X2231285Y737830D01*
X2228955D01*
X2226704Y737227D01*
X2224686Y736062D01*
X2223038Y734414D01*
X2222403Y733313D01*
X2113241D01*
X2103388Y743167D01*
X2103874Y744340D01*
X2104042D01*
X2106595Y745024D01*
X2108885Y746346D01*
X2110754Y748215D01*
X2111959Y750302D01*
X2178426D01*
X2180182Y748546D01*
X2180182Y748546D01*
X2181505Y747662D01*
X2183065Y747352D01*
X2183066Y747352D01*
X2287261D01*
X2321722Y712891D01*
Y668772D01*
X2320452Y668432D01*
X2319752Y669644D01*
X2318104Y671292D01*
X2316086Y672457D01*
X2313835Y673060D01*
X2311505D01*
X2309254Y672457D01*
X2307236Y671292D01*
X2305588Y669644D01*
X2304423Y667626D01*
X2303820Y665375D01*
Y663045D01*
X2304423Y660794D01*
X2305588Y658776D01*
X2307236Y657128D01*
X2308592Y656346D01*
Y622300D01*
X2308592Y622300D01*
X2308902Y620739D01*
X2309786Y619416D01*
X2357863Y571339D01*
X2357240Y569012D01*
Y566368D01*
X2357924Y563815D01*
X2359246Y561525D01*
X2361115Y559656D01*
X2363405Y558334D01*
X2365958Y557650D01*
X2368602D01*
X2371155Y558334D01*
X2373445Y559656D01*
X2375314Y561525D01*
X2376636Y563815D01*
X2377320Y566368D01*
Y569012D01*
X2376636Y571565D01*
X2375314Y573855D01*
X2373445Y575724D01*
X2371155Y577046D01*
X2368602Y577730D01*
X2365958D01*
X2363631Y577107D01*
X2327288Y613450D01*
X2327814Y614720D01*
X2329075D01*
X2331326Y615323D01*
X2333344Y616488D01*
X2334491Y617636D01*
X2336967D01*
X2383264Y571339D01*
X2382640Y569012D01*
Y566368D01*
X2383324Y563815D01*
X2384646Y561525D01*
X2386515Y559656D01*
X2388805Y558334D01*
X2391358Y557650D01*
X2394002D01*
X2396555Y558334D01*
X2398845Y559656D01*
X2400714Y561525D01*
X2402036Y563815D01*
X2402720Y566368D01*
Y569012D01*
X2402036Y571565D01*
X2400714Y573855D01*
X2398845Y575724D01*
X2396555Y577046D01*
X2394002Y577730D01*
X2391358D01*
X2389031Y577107D01*
X2341540Y624598D01*
X2340217Y625482D01*
X2338656Y625792D01*
X2338656Y625792D01*
X2336477D01*
X2336157Y626986D01*
X2334992Y629004D01*
X2333344Y630652D01*
X2331326Y631817D01*
X2329075Y632420D01*
X2326745D01*
X2324494Y631817D01*
X2322476Y630652D01*
X2320828Y629004D01*
X2319663Y626986D01*
X2319060Y624735D01*
Y623474D01*
X2317790Y622948D01*
X2316748Y623989D01*
Y656346D01*
X2318104Y657128D01*
X2319752Y658776D01*
X2320452Y659988D01*
X2321722Y659648D01*
Y654668D01*
X2321722Y654668D01*
X2322032Y653107D01*
X2322916Y651784D01*
X2376124Y598576D01*
X2377447Y597692D01*
X2379008Y597382D01*
X2379008Y597382D01*
X2465997D01*
X2465997Y597382D01*
X2467558Y597692D01*
X2468881Y598576D01*
X2477634Y607329D01*
X2478904Y606803D01*
Y605866D01*
X2479507Y603615D01*
X2480672Y601597D01*
X2482320Y599949D01*
X2484338Y598784D01*
X2486589Y598181D01*
X2488919D01*
X2491170Y598784D01*
X2493188Y599949D01*
X2494335Y601097D01*
X2495746D01*
X2515602Y581241D01*
Y576929D01*
X2513515Y575724D01*
X2511646Y573855D01*
X2510324Y571565D01*
X2509640Y569012D01*
Y566368D01*
X2510324Y563815D01*
X2511646Y561525D01*
X2513515Y559656D01*
X2515805Y558334D01*
X2518358Y557650D01*
X2521002D01*
X2523555Y558334D01*
X2525845Y559656D01*
X2527714Y561525D01*
X2529036Y563815D01*
X2529720Y566368D01*
Y569012D01*
X2529036Y571565D01*
X2527714Y573855D01*
X2525845Y575724D01*
X2523758Y576929D01*
Y582930D01*
X2523758Y582930D01*
X2523448Y584491D01*
X2522564Y585814D01*
X2522564Y585814D01*
X2500319Y608059D01*
X2498996Y608943D01*
X2497435Y609254D01*
X2497435Y609254D01*
X2496321D01*
X2496001Y610447D01*
X2495686Y610992D01*
X2496322Y612092D01*
X2520311D01*
X2561064Y571339D01*
X2560440Y569012D01*
Y566368D01*
X2561124Y563815D01*
X2562446Y561525D01*
X2564315Y559656D01*
X2566605Y558334D01*
X2569158Y557650D01*
X2571802D01*
X2574355Y558334D01*
X2576645Y559656D01*
X2578514Y561525D01*
X2579836Y563815D01*
X2580520Y566368D01*
Y569012D01*
X2579836Y571565D01*
X2578514Y573855D01*
X2576645Y575724D01*
X2574355Y577046D01*
X2571802Y577730D01*
X2569158D01*
X2566831Y577107D01*
X2527519Y616418D01*
X2528005Y617592D01*
X2591011D01*
X2637263Y571339D01*
X2636640Y569012D01*
Y566368D01*
X2637324Y563815D01*
X2638646Y561525D01*
X2640515Y559656D01*
X2642805Y558334D01*
X2645358Y557650D01*
X2648002D01*
X2650555Y558334D01*
X2652845Y559656D01*
X2652968Y559780D01*
X2654142Y559294D01*
Y504673D01*
X2652981Y504184D01*
X2652872Y504190D01*
X2650081Y507591D01*
X2646630Y510422D01*
X2642693Y512526D01*
X2638422Y513822D01*
X2633980Y514260D01*
X2629538Y513822D01*
X2625266Y512526D01*
X2621330Y510422D01*
X2617879Y507591D01*
X2615048Y504140D01*
X2612944Y500204D01*
X2611648Y495932D01*
X2611210Y491490D01*
X2611648Y487048D01*
X2612944Y482776D01*
X2615048Y478840D01*
X2617879Y475389D01*
X2621330Y472558D01*
X2625266Y470454D01*
X2629538Y469158D01*
X2633980Y468720D01*
X2638233Y469139D01*
X2638921Y468326D01*
X2639031Y468142D01*
X2625818Y454928D01*
X2624065D01*
X2623282Y456284D01*
X2621634Y457932D01*
X2619616Y459097D01*
X2617365Y459700D01*
X2615035D01*
X2612784Y459097D01*
X2610766Y457932D01*
X2609118Y456284D01*
X2607953Y454266D01*
X2607350Y452015D01*
Y449685D01*
X2607953Y447434D01*
X2609118Y445416D01*
X2610766Y443768D01*
X2612784Y442603D01*
X2615035Y442000D01*
X2617365D01*
X2619616Y442603D01*
X2621634Y443768D01*
X2623282Y445416D01*
X2624065Y446772D01*
X2627507D01*
X2627507Y446772D01*
X2629068Y447082D01*
X2630391Y447966D01*
X2661104Y478679D01*
X2661104Y478679D01*
X2661847Y479791D01*
X2663040Y480153D01*
X2663049Y480154D01*
X2663307Y480127D01*
X2664106Y479328D01*
X2666124Y478163D01*
X2668375Y477560D01*
X2670705D01*
X2672956Y478163D01*
X2674974Y479328D01*
X2676622Y480976D01*
X2677787Y482994D01*
X2678390Y485245D01*
Y487575D01*
X2677787Y489826D01*
X2676622Y491844D01*
X2674974Y493492D01*
X2673618Y494274D01*
Y612318D01*
X2673308Y613878D01*
X2672424Y615201D01*
X2672424Y615201D01*
X2619526Y668099D01*
X2618203Y668983D01*
X2616642Y669293D01*
X2616642Y669293D01*
X2454678D01*
X2454338Y670563D01*
X2455264Y671098D01*
X2456912Y672746D01*
X2458077Y674764D01*
X2458680Y677015D01*
Y679345D01*
X2458077Y681596D01*
X2456912Y683614D01*
X2455264Y685262D01*
X2453908Y686044D01*
Y976649D01*
X2453908Y976649D01*
X2453598Y978210D01*
X2452714Y979533D01*
X2428388Y1003859D01*
Y1005751D01*
X2428864Y1006026D01*
X2430594Y1007756D01*
X2431817Y1009874D01*
X2432450Y1012237D01*
Y1014683D01*
X2431817Y1017046D01*
X2430594Y1019164D01*
X2428864Y1020894D01*
X2426746Y1022117D01*
X2424383Y1022750D01*
X2421937D01*
X2419574Y1022117D01*
X2417456Y1020894D01*
X2415726Y1019164D01*
X2414503Y1017046D01*
X2413870Y1014683D01*
Y1012237D01*
X2414503Y1009874D01*
X2415726Y1007756D01*
X2417456Y1006026D01*
X2419574Y1004803D01*
X2420231Y1004627D01*
Y1002170D01*
X2420231Y1002170D01*
X2420541Y1000609D01*
X2421425Y999286D01*
X2422215Y998497D01*
X2421644Y997271D01*
X2419574Y996717D01*
X2417456Y995494D01*
X2415726Y993764D01*
X2414503Y991646D01*
X2413870Y989283D01*
Y986837D01*
X2414503Y984474D01*
X2415726Y982356D01*
X2417456Y980626D01*
X2419574Y979403D01*
X2421937Y978770D01*
X2424383D01*
X2426746Y979403D01*
X2428864Y980626D01*
X2430594Y982356D01*
X2431817Y984474D01*
X2432372Y986544D01*
X2433597Y987115D01*
X2445752Y974960D01*
Y686044D01*
X2444396Y685262D01*
X2442748Y683614D01*
X2441583Y681596D01*
X2440980Y679345D01*
Y677015D01*
X2441583Y674764D01*
X2442748Y672746D01*
X2444396Y671098D01*
X2445322Y670563D01*
X2444982Y669293D01*
X2402235D01*
X2398705Y672823D01*
X2399276Y674048D01*
X2401346Y674603D01*
X2403464Y675826D01*
X2405194Y677556D01*
X2406417Y679674D01*
X2407050Y682037D01*
Y684483D01*
X2406417Y686846D01*
X2405194Y688964D01*
X2403464Y690694D01*
X2401346Y691917D01*
X2398983Y692550D01*
X2396537D01*
X2394174Y691917D01*
X2392056Y690694D01*
X2390326Y688964D01*
X2389103Y686846D01*
X2388548Y684776D01*
X2387323Y684205D01*
X2377708Y693820D01*
Y1000050D01*
X2377708Y1000050D01*
X2377398Y1001611D01*
X2376514Y1002934D01*
X2376514Y1002934D01*
X2327499Y1051948D01*
X2327985Y1053122D01*
X2369796D01*
X2372332Y1050586D01*
X2372332Y1050586D01*
X2373655Y1049702D01*
X2375216Y1049392D01*
X2396469D01*
X2396537Y1048150D01*
X2394174Y1047517D01*
X2392056Y1046294D01*
X2390326Y1044564D01*
X2389103Y1042446D01*
X2388470Y1040083D01*
Y1037637D01*
X2389103Y1035274D01*
X2390326Y1033156D01*
X2392056Y1031426D01*
X2394174Y1030203D01*
X2396537Y1029570D01*
X2398983D01*
X2401346Y1030203D01*
X2403464Y1031426D01*
X2405194Y1033156D01*
X2406417Y1035274D01*
X2407050Y1037637D01*
Y1040083D01*
X2406417Y1042446D01*
X2405194Y1044564D01*
X2403464Y1046294D01*
X2401346Y1047517D01*
X2398983Y1048150D01*
X2399052Y1049392D01*
X2421868D01*
X2421937Y1048150D01*
X2419574Y1047517D01*
X2417456Y1046294D01*
X2415726Y1044564D01*
X2414503Y1042446D01*
X2413870Y1040083D01*
Y1037637D01*
X2414503Y1035274D01*
X2415726Y1033156D01*
X2417456Y1031426D01*
X2419574Y1030203D01*
X2421937Y1029570D01*
X2424383D01*
X2426746Y1030203D01*
X2428864Y1031426D01*
X2430594Y1033156D01*
X2431817Y1035274D01*
X2432450Y1037637D01*
Y1040083D01*
X2431817Y1042446D01*
X2430594Y1044564D01*
X2428864Y1046294D01*
X2426746Y1047517D01*
X2424383Y1048150D01*
X2424451Y1049392D01*
X2463170D01*
X2463170Y1049392D01*
X2464731Y1049702D01*
X2466054Y1050586D01*
X2521724Y1106256D01*
X2523537Y1105770D01*
X2525983D01*
X2528346Y1106403D01*
X2530464Y1107626D01*
X2532194Y1109356D01*
X2533417Y1111474D01*
X2534050Y1113837D01*
Y1116283D01*
X2533417Y1118646D01*
X2532194Y1120764D01*
X2530464Y1122494D01*
X2528346Y1123717D01*
X2525983Y1124350D01*
X2523537D01*
X2521174Y1123717D01*
X2519056Y1122494D01*
X2517326Y1120764D01*
X2516103Y1118646D01*
X2515470Y1116283D01*
Y1113837D01*
X2515956Y1112024D01*
X2461481Y1057548D01*
X2431208D01*
X2430745Y1058818D01*
X2431817Y1060674D01*
X2432450Y1063037D01*
Y1065483D01*
X2431817Y1067846D01*
X2430594Y1069964D01*
X2428864Y1071694D01*
X2426746Y1072917D01*
X2427045Y1074152D01*
X2462530D01*
X2462530Y1074152D01*
X2464091Y1074462D01*
X2465414Y1075346D01*
X2496324Y1106256D01*
X2498137Y1105770D01*
X2500583D01*
X2502946Y1106403D01*
X2505064Y1107626D01*
X2506794Y1109356D01*
X2508017Y1111474D01*
X2508650Y1113837D01*
Y1116283D01*
X2508017Y1118646D01*
X2506794Y1120764D01*
X2505064Y1122494D01*
X2502946Y1123717D01*
X2500876Y1124271D01*
X2500305Y1125497D01*
X2568620Y1193812D01*
X2623230D01*
Y1186985D01*
X2632040D01*
X2640850D01*
Y1193812D01*
X2648643D01*
X2649130Y1192638D01*
X2649006Y1192515D01*
X2647684Y1190225D01*
X2647000Y1187672D01*
Y1185028D01*
X2647684Y1182475D01*
X2649006Y1180185D01*
X2650875Y1178316D01*
X2653165Y1176994D01*
X2655718Y1176310D01*
X2658362D01*
X2660689Y1176934D01*
X2705546Y1132076D01*
X2705546Y1132076D01*
X2706869Y1131192D01*
X2708430Y1130882D01*
X2747030D01*
X2752415Y1125497D01*
X2751844Y1124271D01*
X2749774Y1123717D01*
X2747656Y1122494D01*
X2745926Y1120764D01*
X2744703Y1118646D01*
X2744070Y1116283D01*
Y1113837D01*
X2744703Y1111474D01*
X2745926Y1109356D01*
X2747656Y1107626D01*
X2749282Y1106687D01*
Y647719D01*
X2749282Y647719D01*
X2749592Y646159D01*
X2750476Y644836D01*
X2752415Y642897D01*
X2751844Y641672D01*
X2749774Y641117D01*
X2747918Y640045D01*
X2746648Y640508D01*
Y1100450D01*
X2746338Y1102011D01*
X2745454Y1103334D01*
X2745454Y1103334D01*
X2736764Y1112024D01*
X2737250Y1113837D01*
Y1116283D01*
X2736617Y1118646D01*
X2735394Y1120764D01*
X2733664Y1122494D01*
X2731546Y1123717D01*
X2729183Y1124350D01*
X2726737D01*
X2724374Y1123717D01*
X2722256Y1122494D01*
X2720526Y1120764D01*
X2719303Y1118646D01*
X2718670Y1116283D01*
Y1113837D01*
X2719303Y1111474D01*
X2720526Y1109356D01*
X2722256Y1107626D01*
X2724374Y1106403D01*
X2726737Y1105770D01*
X2729183D01*
X2730996Y1106256D01*
X2738492Y1098761D01*
Y633751D01*
X2737250Y633683D01*
X2736617Y636046D01*
X2735394Y638164D01*
X2733664Y639894D01*
X2731546Y641117D01*
X2729183Y641750D01*
X2726737D01*
X2724374Y641117D01*
X2722256Y639894D01*
X2720526Y638164D01*
X2719303Y636046D01*
X2718670Y633683D01*
Y631237D01*
X2719303Y628874D01*
X2720526Y626756D01*
X2722256Y625026D01*
X2724374Y623803D01*
X2726737Y623170D01*
X2729183D01*
X2731546Y623803D01*
X2733664Y625026D01*
X2735394Y626756D01*
X2736617Y628874D01*
X2737250Y631237D01*
X2738492Y631169D01*
Y544590D01*
X2738492Y544590D01*
X2738802Y543029D01*
X2739686Y541706D01*
X2770613Y510779D01*
X2769990Y508452D01*
Y505808D01*
X2770674Y503255D01*
X2771996Y500965D01*
X2773865Y499096D01*
X2776155Y497774D01*
X2778708Y497090D01*
X2781352D01*
X2783905Y497774D01*
X2786195Y499096D01*
X2788064Y500965D01*
X2789386Y503255D01*
X2790070Y505808D01*
Y508452D01*
X2789386Y511005D01*
X2788064Y513295D01*
X2786195Y515164D01*
X2783905Y516486D01*
X2781352Y517170D01*
X2778708D01*
X2776381Y516547D01*
X2746648Y546279D01*
Y624412D01*
X2747918Y624875D01*
X2749774Y623803D01*
X2752137Y623170D01*
X2754583D01*
X2756946Y623803D01*
X2759064Y625026D01*
X2760794Y626756D01*
X2761203Y627465D01*
X2762473Y627124D01*
Y545609D01*
X2762473Y545608D01*
X2762784Y544048D01*
X2763668Y542725D01*
X2770613Y535779D01*
X2769990Y533452D01*
Y530808D01*
X2770674Y528255D01*
X2771996Y525965D01*
X2773865Y524096D01*
X2776155Y522774D01*
X2778708Y522090D01*
X2781352D01*
X2783905Y522774D01*
X2786195Y524096D01*
X2788064Y525965D01*
X2789386Y528255D01*
X2790070Y530808D01*
Y533452D01*
X2789386Y536005D01*
X2788064Y538295D01*
X2786195Y540164D01*
X2783905Y541486D01*
X2781352Y542170D01*
X2778708D01*
X2776381Y541547D01*
X2770630Y547298D01*
Y625656D01*
X2771900Y626182D01*
X2773056Y625026D01*
X2775174Y623803D01*
X2777537Y623170D01*
X2779983D01*
X2782346Y623803D01*
X2784464Y625026D01*
X2786194Y626756D01*
X2787417Y628874D01*
X2788050Y631237D01*
Y633683D01*
X2787417Y636046D01*
X2786194Y638164D01*
X2784464Y639894D01*
X2782346Y641117D01*
X2779983Y641750D01*
X2777537D01*
X2775174Y641117D01*
X2773056Y639894D01*
X2771326Y638164D01*
X2770923Y637466D01*
X2769634Y637283D01*
X2769435Y637412D01*
X2757438Y649409D01*
Y1106687D01*
X2759064Y1107626D01*
X2760794Y1109356D01*
X2761240Y1110128D01*
X2762499Y1110294D01*
X2771407Y1101386D01*
X2771407Y1101386D01*
X2772730Y1100502D01*
X2774290Y1100192D01*
X2774291Y1100192D01*
X2844170D01*
X2844170Y1100192D01*
X2845731Y1100502D01*
X2847054Y1101386D01*
X2851924Y1106256D01*
X2853737Y1105770D01*
X2856183D01*
X2858546Y1106403D01*
X2860664Y1107626D01*
X2862394Y1109356D01*
X2863617Y1111474D01*
X2864250Y1113837D01*
Y1116283D01*
X2863617Y1118646D01*
X2862394Y1120764D01*
X2860664Y1122494D01*
X2858546Y1123717D01*
X2856183Y1124350D01*
X2853737D01*
X2851374Y1123717D01*
X2849256Y1122494D01*
X2847526Y1120764D01*
X2846303Y1118646D01*
X2845670Y1116283D01*
Y1113837D01*
X2846156Y1112024D01*
X2842481Y1108348D01*
X2837608D01*
X2837145Y1109618D01*
X2838217Y1111474D01*
X2838850Y1113837D01*
Y1116283D01*
X2838217Y1118646D01*
X2836994Y1120764D01*
X2835264Y1122494D01*
X2833146Y1123717D01*
X2830783Y1124350D01*
X2828337D01*
X2825974Y1123717D01*
X2823856Y1122494D01*
X2822126Y1120764D01*
X2820903Y1118646D01*
X2820270Y1116283D01*
Y1113837D01*
X2820903Y1111474D01*
X2821974Y1109618D01*
X2821512Y1108348D01*
X2812208D01*
X2811745Y1109618D01*
X2812817Y1111474D01*
X2813450Y1113837D01*
Y1116283D01*
X2812817Y1118646D01*
X2811594Y1120764D01*
X2809864Y1122494D01*
X2808239Y1123432D01*
Y1134931D01*
X2848971Y1175664D01*
X2851298Y1175040D01*
X2853942D01*
X2856495Y1175724D01*
X2858785Y1177046D01*
X2860654Y1178915D01*
X2861976Y1181205D01*
X2862660Y1183758D01*
Y1186402D01*
X2861976Y1188955D01*
X2860654Y1191245D01*
X2860535Y1191363D01*
X2861021Y1192537D01*
X2864035D01*
X2869132Y1187440D01*
X2868810Y1186240D01*
Y1185715D01*
X2876985D01*
Y1193890D01*
X2876460D01*
X2875260Y1193568D01*
X2868894Y1199934D01*
X2867488Y1200873D01*
X2865830Y1201203D01*
X2794530D01*
X2792872Y1200873D01*
X2791466Y1199934D01*
X2778235Y1186703D01*
X2768600D01*
X2766942Y1186373D01*
X2765536Y1185434D01*
X2764597Y1184028D01*
X2764267Y1182370D01*
X2764597Y1180712D01*
X2765536Y1179306D01*
X2766942Y1178367D01*
X2768600Y1178037D01*
X2780030D01*
X2781688Y1178367D01*
X2783094Y1179306D01*
X2796325Y1192537D01*
X2817580D01*
Y1180808D01*
X2775876Y1139104D01*
X2774992Y1137781D01*
X2774682Y1136220D01*
X2774682Y1136220D01*
Y1123432D01*
X2773056Y1122494D01*
X2771326Y1120764D01*
X2770103Y1118646D01*
X2769874Y1117791D01*
X2768386Y1117145D01*
X2768228Y1117229D01*
Y1119529D01*
X2767918Y1121090D01*
X2767034Y1122413D01*
X2767034Y1122413D01*
X2754239Y1135208D01*
X2754725Y1136382D01*
X2756925D01*
X2757708Y1135026D01*
X2759356Y1133378D01*
X2761374Y1132213D01*
X2763625Y1131610D01*
X2765955D01*
X2768206Y1132213D01*
X2770224Y1133378D01*
X2771872Y1135026D01*
X2773037Y1137044D01*
X2773640Y1139295D01*
Y1141625D01*
X2773037Y1143876D01*
X2771872Y1145894D01*
X2770224Y1147542D01*
X2768206Y1148707D01*
X2765955Y1149310D01*
X2763625D01*
X2761374Y1148707D01*
X2759356Y1147542D01*
X2757708Y1145894D01*
X2756925Y1144538D01*
X2729619D01*
X2691457Y1182701D01*
X2692080Y1185028D01*
Y1187672D01*
X2691396Y1190225D01*
X2690074Y1192515D01*
X2689950Y1192638D01*
X2690436Y1193812D01*
X2693811D01*
X2697624Y1189999D01*
X2697000Y1187672D01*
Y1185028D01*
X2697684Y1182475D01*
X2699006Y1180185D01*
X2700875Y1178316D01*
X2703165Y1176994D01*
X2705718Y1176310D01*
X2708362D01*
X2710915Y1176994D01*
X2713205Y1178316D01*
X2715074Y1180185D01*
X2716396Y1182475D01*
X2717080Y1185028D01*
Y1187672D01*
X2716396Y1190225D01*
X2715074Y1192515D01*
X2713205Y1194384D01*
X2710915Y1195706D01*
X2708362Y1196390D01*
X2705718D01*
X2703391Y1195767D01*
X2698384Y1200774D01*
X2697061Y1201658D01*
X2695500Y1201968D01*
D02*
G37*
G36*
X2464920Y1194990D02*
X2456745D01*
Y1186815D01*
X2464920D01*
Y1194990D01*
D02*
G37*
G36*
X3052170D02*
X3051645D01*
Y1186815D01*
X3059820D01*
Y1187340D01*
X3059220Y1189581D01*
X3058060Y1191590D01*
X3056419Y1193230D01*
X3054410Y1194390D01*
X3052170Y1194990D01*
D02*
G37*
G36*
X3022600Y1210833D02*
X2899040D01*
X2897382Y1210503D01*
X2895976Y1209564D01*
X2879980Y1193568D01*
X2878780Y1193890D01*
X2878255D01*
Y1185715D01*
X2886430D01*
Y1186240D01*
X2886108Y1187440D01*
X2900835Y1202167D01*
X3020805D01*
X3020806Y1202166D01*
X3022212Y1201227D01*
X3023870Y1200897D01*
X3030165D01*
X3042522Y1188540D01*
X3042200Y1187340D01*
Y1186815D01*
X3050375D01*
Y1194990D01*
X3049850D01*
X3048650Y1194668D01*
X3035024Y1208294D01*
X3033618Y1209233D01*
X3031960Y1209563D01*
X3025665D01*
X3025664Y1209564D01*
X3024258Y1210503D01*
X3022600Y1210833D01*
D02*
G37*
G36*
X2455475Y1194990D02*
X2447300D01*
Y1186815D01*
X2455475D01*
Y1194990D01*
D02*
G37*
G36*
X2640850Y1185715D02*
X2632675D01*
Y1177540D01*
X2640850D01*
Y1185715D01*
D02*
G37*
G36*
X2631405D02*
X2623230D01*
Y1177540D01*
X2631405D01*
Y1185715D01*
D02*
G37*
G36*
X3059820Y1185545D02*
X3051645D01*
Y1177370D01*
X3052170D01*
X3054410Y1177970D01*
X3056419Y1179130D01*
X3058060Y1180770D01*
X3059220Y1182779D01*
X3059820Y1185020D01*
Y1185545D01*
D02*
G37*
G36*
X3050375D02*
X3042200D01*
Y1185020D01*
X3042800Y1182779D01*
X3043960Y1180770D01*
X3045601Y1179130D01*
X3047610Y1177970D01*
X3049850Y1177370D01*
X3050375D01*
Y1185545D01*
D02*
G37*
G36*
X2464920D02*
X2456745D01*
Y1177370D01*
X2464920D01*
Y1185545D01*
D02*
G37*
G36*
X2455475D02*
X2447300D01*
Y1177370D01*
X2455475D01*
Y1185545D01*
D02*
G37*
G36*
X2886430Y1184445D02*
X2878255D01*
Y1176270D01*
X2878780D01*
X2881021Y1176870D01*
X2883029Y1178030D01*
X2884670Y1179670D01*
X2885829Y1181680D01*
X2886430Y1183920D01*
Y1184445D01*
D02*
G37*
G36*
X2876985D02*
X2868810D01*
Y1183920D01*
X2869410Y1181680D01*
X2870570Y1179670D01*
X2872210Y1178030D01*
X2874219Y1176870D01*
X2876460Y1176270D01*
X2876985D01*
Y1184445D01*
D02*
G37*
G36*
X3027332Y1196220D02*
X3024688D01*
X3022135Y1195536D01*
X3019845Y1194214D01*
X3017976Y1192345D01*
X3016654Y1190055D01*
X3015970Y1187502D01*
Y1184858D01*
X3016654Y1182305D01*
X3017976Y1180015D01*
X3019845Y1178146D01*
X3022135Y1176824D01*
X3024688Y1176140D01*
X3027332D01*
X3029885Y1176824D01*
X3032175Y1178146D01*
X3034044Y1180015D01*
X3035366Y1182305D01*
X3036050Y1184858D01*
Y1187502D01*
X3035366Y1190055D01*
X3034044Y1192345D01*
X3032175Y1194214D01*
X3029885Y1195536D01*
X3027332Y1196220D01*
D02*
G37*
G36*
X3011050D02*
X2990970D01*
Y1176140D01*
X3011050D01*
Y1196220D01*
D02*
G37*
G36*
X2532432D02*
X2529788D01*
X2527235Y1195536D01*
X2524945Y1194214D01*
X2523076Y1192345D01*
X2521754Y1190055D01*
X2521070Y1187502D01*
Y1184858D01*
X2521754Y1182305D01*
X2523076Y1180015D01*
X2524945Y1178146D01*
X2527235Y1176824D01*
X2529788Y1176140D01*
X2532432D01*
X2534985Y1176824D01*
X2537275Y1178146D01*
X2539144Y1180015D01*
X2540466Y1182305D01*
X2541150Y1184858D01*
Y1187502D01*
X2540466Y1190055D01*
X2539144Y1192345D01*
X2537275Y1194214D01*
X2534985Y1195536D01*
X2532432Y1196220D01*
D02*
G37*
G36*
X2507432D02*
X2504788D01*
X2502235Y1195536D01*
X2499945Y1194214D01*
X2498076Y1192345D01*
X2496754Y1190055D01*
X2496070Y1187502D01*
Y1184858D01*
X2496754Y1182305D01*
X2498076Y1180015D01*
X2499945Y1178146D01*
X2502235Y1176824D01*
X2504788Y1176140D01*
X2507432D01*
X2509985Y1176824D01*
X2512275Y1178146D01*
X2514144Y1180015D01*
X2515466Y1182305D01*
X2516150Y1184858D01*
Y1187502D01*
X2515466Y1190055D01*
X2514144Y1192345D01*
X2512275Y1194214D01*
X2509985Y1195536D01*
X2507432Y1196220D01*
D02*
G37*
G36*
X2482432D02*
X2479788D01*
X2477235Y1195536D01*
X2474945Y1194214D01*
X2473076Y1192345D01*
X2471754Y1190055D01*
X2471070Y1187502D01*
Y1184858D01*
X2471754Y1182305D01*
X2473076Y1180015D01*
X2474945Y1178146D01*
X2477235Y1176824D01*
X2479788Y1176140D01*
X2482432D01*
X2484985Y1176824D01*
X2487275Y1178146D01*
X2489144Y1180015D01*
X2490466Y1182305D01*
X2491150Y1184858D01*
Y1187502D01*
X2490466Y1190055D01*
X2489144Y1192345D01*
X2487275Y1194214D01*
X2484985Y1195536D01*
X2482432Y1196220D01*
D02*
G37*
G36*
X3077332D02*
X3074688D01*
X3072135Y1195536D01*
X3069845Y1194214D01*
X3067976Y1192345D01*
X3066654Y1190055D01*
X3065970Y1187502D01*
Y1184858D01*
X3066517Y1182815D01*
X3053895Y1170193D01*
X2994632D01*
X2976681Y1188144D01*
X2975275Y1189083D01*
X2973617Y1189413D01*
X2911711D01*
X2910654Y1191245D01*
X2908785Y1193114D01*
X2906495Y1194436D01*
X2903942Y1195120D01*
X2901298D01*
X2898745Y1194436D01*
X2896455Y1193114D01*
X2894586Y1191245D01*
X2893264Y1188955D01*
X2892580Y1186402D01*
Y1183758D01*
X2893264Y1181205D01*
X2894586Y1178915D01*
X2896455Y1177046D01*
X2898287Y1175989D01*
Y1153307D01*
X2898617Y1151648D01*
X2899556Y1150243D01*
X2912467Y1137332D01*
Y1123115D01*
X2911197Y1122648D01*
X2909346Y1123717D01*
X2906983Y1124350D01*
X2904537D01*
X2902174Y1123717D01*
X2900056Y1122494D01*
X2898326Y1120764D01*
X2897103Y1118646D01*
X2896470Y1116283D01*
Y1113837D01*
X2897103Y1111474D01*
X2898326Y1109356D01*
X2900056Y1107626D01*
X2902174Y1106403D01*
X2904537Y1105770D01*
X2906983D01*
X2909346Y1106403D01*
X2911197Y1107472D01*
X2912467Y1107005D01*
Y645295D01*
X2908512Y641340D01*
X2906983Y641750D01*
X2904537D01*
X2902174Y641117D01*
X2900056Y639894D01*
X2898326Y638164D01*
X2897103Y636046D01*
X2896470Y633683D01*
Y631237D01*
X2897103Y628874D01*
X2898326Y626756D01*
X2900056Y625026D01*
X2902174Y623803D01*
X2904537Y623170D01*
X2906983D01*
X2909346Y623803D01*
X2911464Y625026D01*
X2913194Y626756D01*
X2914417Y628874D01*
X2915050Y631237D01*
Y633683D01*
X2914640Y635212D01*
X2919864Y640436D01*
X2920804Y641842D01*
X2921133Y643500D01*
Y1139127D01*
X2920804Y1140785D01*
X2919864Y1142191D01*
X2906953Y1155102D01*
Y1175989D01*
X2908785Y1177046D01*
X2910654Y1178915D01*
X2911711Y1180747D01*
X2971822D01*
X2989773Y1162796D01*
X2991179Y1161857D01*
X2992837Y1161527D01*
X3055690D01*
X3057348Y1161857D01*
X3058754Y1162796D01*
X3072646Y1176687D01*
X3074688Y1176140D01*
X3077332D01*
X3079885Y1176824D01*
X3082175Y1178146D01*
X3084044Y1180015D01*
X3085366Y1182305D01*
X3086050Y1184858D01*
Y1187502D01*
X3085366Y1190055D01*
X3084044Y1192345D01*
X3082175Y1194214D01*
X3079885Y1195536D01*
X3077332Y1196220D01*
D02*
G37*
G36*
X3236127Y1204406D02*
X3231695D01*
X3227348Y1203541D01*
X3223253Y1201845D01*
X3219568Y1199383D01*
X3216435Y1196249D01*
X3213972Y1192563D01*
X3212276Y1188469D01*
X3211411Y1184122D01*
Y1179690D01*
X3212276Y1175343D01*
X3213972Y1171248D01*
X3216435Y1167563D01*
X3219568Y1164429D01*
X3223253Y1161967D01*
X3227348Y1160270D01*
X3231695Y1159406D01*
X3236127D01*
X3240474Y1160270D01*
X3244569Y1161967D01*
X3248254Y1164429D01*
X3251388Y1167563D01*
X3253851Y1171248D01*
X3255547Y1175343D01*
X3256411Y1179690D01*
Y1184122D01*
X3255547Y1188469D01*
X3253851Y1192563D01*
X3251388Y1196249D01*
X3248254Y1199383D01*
X3244569Y1201845D01*
X3240474Y1203541D01*
X3236127Y1204406D01*
D02*
G37*
G36*
X2198046Y1199790D02*
X2193614D01*
X2189267Y1198925D01*
X2185172Y1197229D01*
X2181487Y1194767D01*
X2178353Y1191633D01*
X2175891Y1187948D01*
X2174195Y1183853D01*
X2173330Y1179506D01*
Y1175074D01*
X2174195Y1170727D01*
X2175891Y1166632D01*
X2178353Y1162947D01*
X2181487Y1159813D01*
X2185172Y1157351D01*
X2189267Y1155655D01*
X2193614Y1154790D01*
X2198046D01*
X2202393Y1155655D01*
X2206488Y1157351D01*
X2210173Y1159813D01*
X2213307Y1162947D01*
X2215769Y1166632D01*
X2217465Y1170727D01*
X2218330Y1175074D01*
Y1179506D01*
X2217465Y1183853D01*
X2215769Y1187948D01*
X2213307Y1191633D01*
X2210173Y1194767D01*
X2206488Y1197229D01*
X2202393Y1198925D01*
X2198046Y1199790D01*
D02*
G37*
G36*
X2317637Y1135990D02*
X2315323D01*
X2313087Y1135391D01*
X2311083Y1134234D01*
X2309446Y1132597D01*
X2308289Y1130593D01*
X2307690Y1128357D01*
Y1126043D01*
X2308008Y1124856D01*
X2289286Y1106134D01*
X2288347Y1104728D01*
X2288017Y1103070D01*
Y961950D01*
X2288347Y960292D01*
X2289286Y958886D01*
X2306738Y941434D01*
X2306420Y940247D01*
Y937933D01*
X2307019Y935697D01*
X2308176Y933693D01*
X2309813Y932056D01*
X2310877Y931442D01*
Y895875D01*
X2258194Y843192D01*
X2255665Y843870D01*
X2252835D01*
X2250101Y843137D01*
X2247649Y841722D01*
X2245648Y839721D01*
X2244233Y837269D01*
X2243500Y834535D01*
Y831705D01*
X2244233Y828971D01*
X2245648Y826519D01*
X2247649Y824518D01*
X2250101Y823103D01*
X2252835Y822370D01*
X2255665D01*
X2258399Y823103D01*
X2260851Y824518D01*
X2262852Y826519D01*
X2264267Y828971D01*
X2265000Y831705D01*
Y834535D01*
X2264322Y837064D01*
X2318274Y891016D01*
X2319213Y892422D01*
X2319543Y894080D01*
Y931442D01*
X2320607Y932056D01*
X2322244Y933693D01*
X2323401Y935697D01*
X2324000Y937933D01*
Y940247D01*
X2323401Y942483D01*
X2322244Y944487D01*
X2320607Y946124D01*
X2318603Y947281D01*
X2316367Y947880D01*
X2314053D01*
X2312866Y947562D01*
X2296683Y963745D01*
Y1101275D01*
X2314136Y1118728D01*
X2315323Y1118410D01*
X2317637D01*
X2319873Y1119009D01*
X2321877Y1120166D01*
X2323514Y1121803D01*
X2324671Y1123807D01*
X2325270Y1126043D01*
Y1128357D01*
X2324671Y1130593D01*
X2323514Y1132597D01*
X2321877Y1134234D01*
X2319873Y1135391D01*
X2317637Y1135990D01*
D02*
G37*
G36*
X3176223Y1124350D02*
X3173777D01*
X3171414Y1123717D01*
X3169296Y1122494D01*
X3167566Y1120764D01*
X3166343Y1118646D01*
X3165710Y1116283D01*
Y1113837D01*
X3166343Y1111474D01*
X3167566Y1109356D01*
X3169296Y1107626D01*
X3171414Y1106403D01*
X3173777Y1105770D01*
X3176223D01*
X3178586Y1106403D01*
X3180704Y1107626D01*
X3182434Y1109356D01*
X3183657Y1111474D01*
X3184290Y1113837D01*
Y1116283D01*
X3183657Y1118646D01*
X3182434Y1120764D01*
X3180704Y1122494D01*
X3178586Y1123717D01*
X3176223Y1124350D01*
D02*
G37*
G36*
X3150823D02*
X3148377D01*
X3146014Y1123717D01*
X3143896Y1122494D01*
X3142166Y1120764D01*
X3140943Y1118646D01*
X3140310Y1116283D01*
Y1113837D01*
X3140943Y1111474D01*
X3142166Y1109356D01*
X3143896Y1107626D01*
X3146014Y1106403D01*
X3148377Y1105770D01*
X3150823D01*
X3153186Y1106403D01*
X3155304Y1107626D01*
X3157034Y1109356D01*
X3158257Y1111474D01*
X3158890Y1113837D01*
Y1116283D01*
X3158257Y1118646D01*
X3157034Y1120764D01*
X3155304Y1122494D01*
X3153186Y1123717D01*
X3150823Y1124350D01*
D02*
G37*
G36*
X3125423D02*
X3122977D01*
X3120614Y1123717D01*
X3118496Y1122494D01*
X3116766Y1120764D01*
X3115543Y1118646D01*
X3114910Y1116283D01*
Y1113837D01*
X3115543Y1111474D01*
X3116766Y1109356D01*
X3118496Y1107626D01*
X3120614Y1106403D01*
X3122977Y1105770D01*
X3125423D01*
X3127786Y1106403D01*
X3129904Y1107626D01*
X3131634Y1109356D01*
X3132857Y1111474D01*
X3133490Y1113837D01*
Y1116283D01*
X3132857Y1118646D01*
X3131634Y1120764D01*
X3129904Y1122494D01*
X3127786Y1123717D01*
X3125423Y1124350D01*
D02*
G37*
G36*
X3100023D02*
X3097577D01*
X3095214Y1123717D01*
X3093096Y1122494D01*
X3091366Y1120764D01*
X3090143Y1118646D01*
X3089510Y1116283D01*
Y1113837D01*
X3090143Y1111474D01*
X3091366Y1109356D01*
X3093096Y1107626D01*
X3095214Y1106403D01*
X3097577Y1105770D01*
X3100023D01*
X3102386Y1106403D01*
X3104504Y1107626D01*
X3106234Y1109356D01*
X3107457Y1111474D01*
X3108090Y1113837D01*
Y1116283D01*
X3107457Y1118646D01*
X3106234Y1120764D01*
X3104504Y1122494D01*
X3102386Y1123717D01*
X3100023Y1124350D01*
D02*
G37*
G36*
X3074623D02*
X3072177D01*
X3069814Y1123717D01*
X3067696Y1122494D01*
X3065966Y1120764D01*
X3064743Y1118646D01*
X3064110Y1116283D01*
Y1113837D01*
X3064743Y1111474D01*
X3065966Y1109356D01*
X3067696Y1107626D01*
X3069814Y1106403D01*
X3072177Y1105770D01*
X3074623D01*
X3076986Y1106403D01*
X3079104Y1107626D01*
X3080834Y1109356D01*
X3082057Y1111474D01*
X3082690Y1113837D01*
Y1116283D01*
X3082057Y1118646D01*
X3080834Y1120764D01*
X3079104Y1122494D01*
X3076986Y1123717D01*
X3074623Y1124350D01*
D02*
G37*
G36*
X3049223D02*
X3046777D01*
X3044414Y1123717D01*
X3042296Y1122494D01*
X3040566Y1120764D01*
X3039343Y1118646D01*
X3038710Y1116283D01*
Y1113837D01*
X3039343Y1111474D01*
X3040566Y1109356D01*
X3042296Y1107626D01*
X3044414Y1106403D01*
X3046777Y1105770D01*
X3049223D01*
X3051586Y1106403D01*
X3053704Y1107626D01*
X3055434Y1109356D01*
X3056657Y1111474D01*
X3057290Y1113837D01*
Y1116283D01*
X3056657Y1118646D01*
X3055434Y1120764D01*
X3053704Y1122494D01*
X3051586Y1123717D01*
X3049223Y1124350D01*
D02*
G37*
G36*
X3023823D02*
X3021377D01*
X3019014Y1123717D01*
X3016896Y1122494D01*
X3015166Y1120764D01*
X3013943Y1118646D01*
X3013310Y1116283D01*
Y1113837D01*
X3013943Y1111474D01*
X3015166Y1109356D01*
X3016896Y1107626D01*
X3019014Y1106403D01*
X3021377Y1105770D01*
X3023823D01*
X3026186Y1106403D01*
X3028304Y1107626D01*
X3030034Y1109356D01*
X3031257Y1111474D01*
X3031890Y1113837D01*
Y1116283D01*
X3031257Y1118646D01*
X3030034Y1120764D01*
X3028304Y1122494D01*
X3026186Y1123717D01*
X3023823Y1124350D01*
D02*
G37*
G36*
X2998423D02*
X2995977D01*
X2993614Y1123717D01*
X2991496Y1122494D01*
X2989766Y1120764D01*
X2988543Y1118646D01*
X2987910Y1116283D01*
Y1113837D01*
X2988543Y1111474D01*
X2989766Y1109356D01*
X2991496Y1107626D01*
X2993614Y1106403D01*
X2995977Y1105770D01*
X2998423D01*
X3000786Y1106403D01*
X3002904Y1107626D01*
X3004634Y1109356D01*
X3005857Y1111474D01*
X3006490Y1113837D01*
Y1116283D01*
X3005857Y1118646D01*
X3004634Y1120764D01*
X3002904Y1122494D01*
X3000786Y1123717D01*
X2998423Y1124350D01*
D02*
G37*
G36*
X2973023D02*
X2970577D01*
X2968214Y1123717D01*
X2966096Y1122494D01*
X2964366Y1120764D01*
X2963143Y1118646D01*
X2962510Y1116283D01*
Y1113837D01*
X2963143Y1111474D01*
X2964366Y1109356D01*
X2966096Y1107626D01*
X2968214Y1106403D01*
X2970577Y1105770D01*
X2973023D01*
X2975386Y1106403D01*
X2977504Y1107626D01*
X2979234Y1109356D01*
X2980457Y1111474D01*
X2981090Y1113837D01*
Y1116283D01*
X2980457Y1118646D01*
X2979234Y1120764D01*
X2977504Y1122494D01*
X2975386Y1123717D01*
X2973023Y1124350D01*
D02*
G37*
G36*
X2947623D02*
X2945177D01*
X2942814Y1123717D01*
X2940696Y1122494D01*
X2938966Y1120764D01*
X2937743Y1118646D01*
X2937110Y1116283D01*
Y1113837D01*
X2937743Y1111474D01*
X2938966Y1109356D01*
X2940696Y1107626D01*
X2942814Y1106403D01*
X2945177Y1105770D01*
X2947623D01*
X2949986Y1106403D01*
X2952104Y1107626D01*
X2953834Y1109356D01*
X2955057Y1111474D01*
X2955690Y1113837D01*
Y1116283D01*
X2955057Y1118646D01*
X2953834Y1120764D01*
X2952104Y1122494D01*
X2949986Y1123717D01*
X2947623Y1124350D01*
D02*
G37*
G36*
X2881583D02*
X2879137D01*
X2876774Y1123717D01*
X2874656Y1122494D01*
X2872926Y1120764D01*
X2871703Y1118646D01*
X2871070Y1116283D01*
Y1113837D01*
X2871703Y1111474D01*
X2872926Y1109356D01*
X2874656Y1107626D01*
X2876774Y1106403D01*
X2879137Y1105770D01*
X2881583D01*
X2883946Y1106403D01*
X2886064Y1107626D01*
X2887794Y1109356D01*
X2889017Y1111474D01*
X2889650Y1113837D01*
Y1116283D01*
X2889017Y1118646D01*
X2887794Y1120764D01*
X2886064Y1122494D01*
X2883946Y1123717D01*
X2881583Y1124350D01*
D02*
G37*
G36*
X2678383D02*
X2675937D01*
X2673574Y1123717D01*
X2671456Y1122494D01*
X2669726Y1120764D01*
X2668503Y1118646D01*
X2667870Y1116283D01*
Y1113837D01*
X2668503Y1111474D01*
X2669726Y1109356D01*
X2671456Y1107626D01*
X2673574Y1106403D01*
X2675937Y1105770D01*
X2678383D01*
X2680746Y1106403D01*
X2682864Y1107626D01*
X2684594Y1109356D01*
X2685817Y1111474D01*
X2686450Y1113837D01*
Y1116283D01*
X2685817Y1118646D01*
X2684594Y1120764D01*
X2682864Y1122494D01*
X2680746Y1123717D01*
X2678383Y1124350D01*
D02*
G37*
G36*
X2652983D02*
X2650537D01*
X2648174Y1123717D01*
X2646056Y1122494D01*
X2644326Y1120764D01*
X2643103Y1118646D01*
X2642470Y1116283D01*
Y1113837D01*
X2643103Y1111474D01*
X2644326Y1109356D01*
X2646056Y1107626D01*
X2648174Y1106403D01*
X2650537Y1105770D01*
X2652983D01*
X2655346Y1106403D01*
X2657464Y1107626D01*
X2659194Y1109356D01*
X2660417Y1111474D01*
X2661050Y1113837D01*
Y1116283D01*
X2660417Y1118646D01*
X2659194Y1120764D01*
X2657464Y1122494D01*
X2655346Y1123717D01*
X2652983Y1124350D01*
D02*
G37*
G36*
X2627583D02*
X2625137D01*
X2622774Y1123717D01*
X2620656Y1122494D01*
X2618926Y1120764D01*
X2617703Y1118646D01*
X2617070Y1116283D01*
Y1113837D01*
X2617703Y1111474D01*
X2618926Y1109356D01*
X2620656Y1107626D01*
X2622774Y1106403D01*
X2625137Y1105770D01*
X2627583D01*
X2629946Y1106403D01*
X2632064Y1107626D01*
X2633794Y1109356D01*
X2635017Y1111474D01*
X2635650Y1113837D01*
Y1116283D01*
X2635017Y1118646D01*
X2633794Y1120764D01*
X2632064Y1122494D01*
X2629946Y1123717D01*
X2627583Y1124350D01*
D02*
G37*
G36*
X2602183D02*
X2599737D01*
X2597374Y1123717D01*
X2595256Y1122494D01*
X2593526Y1120764D01*
X2592303Y1118646D01*
X2591670Y1116283D01*
Y1113837D01*
X2592303Y1111474D01*
X2593526Y1109356D01*
X2595256Y1107626D01*
X2597374Y1106403D01*
X2599737Y1105770D01*
X2602183D01*
X2604546Y1106403D01*
X2606664Y1107626D01*
X2608394Y1109356D01*
X2609617Y1111474D01*
X2610250Y1113837D01*
Y1116283D01*
X2609617Y1118646D01*
X2608394Y1120764D01*
X2606664Y1122494D01*
X2604546Y1123717D01*
X2602183Y1124350D01*
D02*
G37*
G36*
X2576783D02*
X2574337D01*
X2571974Y1123717D01*
X2569856Y1122494D01*
X2568126Y1120764D01*
X2566903Y1118646D01*
X2566270Y1116283D01*
Y1113837D01*
X2566903Y1111474D01*
X2568126Y1109356D01*
X2569856Y1107626D01*
X2571974Y1106403D01*
X2574337Y1105770D01*
X2576783D01*
X2579146Y1106403D01*
X2581264Y1107626D01*
X2582994Y1109356D01*
X2584217Y1111474D01*
X2584850Y1113837D01*
Y1116283D01*
X2584217Y1118646D01*
X2582994Y1120764D01*
X2581264Y1122494D01*
X2579146Y1123717D01*
X2576783Y1124350D01*
D02*
G37*
G36*
X2551383D02*
X2548937D01*
X2546574Y1123717D01*
X2544456Y1122494D01*
X2542726Y1120764D01*
X2541503Y1118646D01*
X2540870Y1116283D01*
Y1113837D01*
X2541503Y1111474D01*
X2542726Y1109356D01*
X2544456Y1107626D01*
X2546574Y1106403D01*
X2548937Y1105770D01*
X2551383D01*
X2553746Y1106403D01*
X2555864Y1107626D01*
X2557594Y1109356D01*
X2558817Y1111474D01*
X2559450Y1113837D01*
Y1116283D01*
X2558817Y1118646D01*
X2557594Y1120764D01*
X2555864Y1122494D01*
X2553746Y1123717D01*
X2551383Y1124350D01*
D02*
G37*
G36*
X2398983D02*
X2396537D01*
X2394174Y1123717D01*
X2392056Y1122494D01*
X2390326Y1120764D01*
X2389103Y1118646D01*
X2388470Y1116283D01*
Y1113837D01*
X2389103Y1111474D01*
X2390326Y1109356D01*
X2392056Y1107626D01*
X2394174Y1106403D01*
X2396537Y1105770D01*
X2398983D01*
X2401346Y1106403D01*
X2403464Y1107626D01*
X2405194Y1109356D01*
X2406417Y1111474D01*
X2407050Y1113837D01*
Y1116283D01*
X2406417Y1118646D01*
X2405194Y1120764D01*
X2403464Y1122494D01*
X2401346Y1123717D01*
X2398983Y1124350D01*
D02*
G37*
G36*
X3212382Y1133560D02*
X3208738D01*
X3205164Y1132849D01*
X3201797Y1131454D01*
X3198767Y1129430D01*
X3196190Y1126853D01*
X3194166Y1123823D01*
X3192771Y1120456D01*
X3192060Y1116882D01*
Y1113238D01*
X3192771Y1109664D01*
X3194166Y1106297D01*
X3196190Y1103267D01*
X3198767Y1100690D01*
X3201797Y1098665D01*
X3205164Y1097271D01*
X3208738Y1096560D01*
X3212382D01*
X3215956Y1097271D01*
X3219323Y1098665D01*
X3222353Y1100690D01*
X3224930Y1103267D01*
X3226955Y1106297D01*
X3228349Y1109664D01*
X3229060Y1113238D01*
Y1116882D01*
X3228349Y1120456D01*
X3226955Y1123823D01*
X3224930Y1126853D01*
X3222353Y1129430D01*
X3219323Y1131454D01*
X3215956Y1132849D01*
X3212382Y1133560D01*
D02*
G37*
G36*
X2265000Y1047070D02*
X2243500D01*
Y1025570D01*
X2265000D01*
Y1047070D01*
D02*
G37*
G36*
X2398983Y1022750D02*
X2396537D01*
X2394174Y1022117D01*
X2392056Y1020894D01*
X2390326Y1019164D01*
X2389103Y1017046D01*
X2388470Y1014683D01*
Y1012237D01*
X2389103Y1009874D01*
X2390326Y1007756D01*
X2392056Y1006026D01*
X2394174Y1004803D01*
X2396537Y1004170D01*
X2398983D01*
X2401346Y1004803D01*
X2403464Y1006026D01*
X2405194Y1007756D01*
X2406417Y1009874D01*
X2407050Y1012237D01*
Y1014683D01*
X2406417Y1017046D01*
X2405194Y1019164D01*
X2403464Y1020894D01*
X2401346Y1022117D01*
X2398983Y1022750D01*
D02*
G37*
G36*
X2255665Y1021670D02*
X2252835D01*
X2250101Y1020937D01*
X2247649Y1019522D01*
X2245648Y1017521D01*
X2244233Y1015069D01*
X2243500Y1012335D01*
Y1009505D01*
X2244233Y1006771D01*
X2245648Y1004319D01*
X2247649Y1002318D01*
X2250101Y1000903D01*
X2252835Y1000170D01*
X2255665D01*
X2258399Y1000903D01*
X2260851Y1002318D01*
X2262852Y1004319D01*
X2264267Y1006771D01*
X2265000Y1009505D01*
Y1012335D01*
X2264267Y1015069D01*
X2262852Y1017521D01*
X2260851Y1019522D01*
X2258399Y1020937D01*
X2255665Y1021670D01*
D02*
G37*
G36*
X2398983Y997350D02*
X2396537D01*
X2394174Y996717D01*
X2392056Y995494D01*
X2390326Y993764D01*
X2389103Y991646D01*
X2388470Y989283D01*
Y986837D01*
X2389103Y984474D01*
X2390326Y982356D01*
X2392056Y980626D01*
X2394174Y979403D01*
X2396537Y978770D01*
X2398983D01*
X2401346Y979403D01*
X2403464Y980626D01*
X2405194Y982356D01*
X2406417Y984474D01*
X2407050Y986837D01*
Y989283D01*
X2406417Y991646D01*
X2405194Y993764D01*
X2403464Y995494D01*
X2401346Y996717D01*
X2398983Y997350D01*
D02*
G37*
G36*
X2255665Y996270D02*
X2252835D01*
X2250101Y995537D01*
X2247649Y994122D01*
X2245648Y992121D01*
X2244233Y989669D01*
X2243500Y986935D01*
Y984105D01*
X2244233Y981371D01*
X2245648Y978919D01*
X2247649Y976918D01*
X2250101Y975503D01*
X2252835Y974770D01*
X2255665D01*
X2258399Y975503D01*
X2260851Y976918D01*
X2262852Y978919D01*
X2264267Y981371D01*
X2265000Y984105D01*
Y986935D01*
X2264267Y989669D01*
X2262852Y992121D01*
X2260851Y994122D01*
X2258399Y995537D01*
X2255665Y996270D01*
D02*
G37*
G36*
X2424383Y971950D02*
X2421937D01*
X2419574Y971317D01*
X2417456Y970094D01*
X2415726Y968364D01*
X2414503Y966246D01*
X2413870Y963883D01*
Y961437D01*
X2414503Y959074D01*
X2415726Y956956D01*
X2417456Y955226D01*
X2419574Y954003D01*
X2421937Y953370D01*
X2424383D01*
X2426746Y954003D01*
X2428864Y955226D01*
X2430594Y956956D01*
X2431817Y959074D01*
X2432450Y961437D01*
Y963883D01*
X2431817Y966246D01*
X2430594Y968364D01*
X2428864Y970094D01*
X2426746Y971317D01*
X2424383Y971950D01*
D02*
G37*
G36*
X2398983D02*
X2396537D01*
X2394174Y971317D01*
X2392056Y970094D01*
X2390326Y968364D01*
X2389103Y966246D01*
X2388470Y963883D01*
Y961437D01*
X2389103Y959074D01*
X2390326Y956956D01*
X2392056Y955226D01*
X2394174Y954003D01*
X2396537Y953370D01*
X2398983D01*
X2401346Y954003D01*
X2403464Y955226D01*
X2405194Y956956D01*
X2406417Y959074D01*
X2407050Y961437D01*
Y963883D01*
X2406417Y966246D01*
X2405194Y968364D01*
X2403464Y970094D01*
X2401346Y971317D01*
X2398983Y971950D01*
D02*
G37*
G36*
X2255665Y970870D02*
X2252835D01*
X2250101Y970137D01*
X2247649Y968722D01*
X2245648Y966721D01*
X2244233Y964269D01*
X2243500Y961535D01*
Y958705D01*
X2244233Y955971D01*
X2245648Y953519D01*
X2247649Y951518D01*
X2250101Y950103D01*
X2252835Y949370D01*
X2255665D01*
X2258399Y950103D01*
X2260851Y951518D01*
X2262852Y953519D01*
X2264267Y955971D01*
X2265000Y958705D01*
Y961535D01*
X2264267Y964269D01*
X2262852Y966721D01*
X2260851Y968722D01*
X2258399Y970137D01*
X2255665Y970870D01*
D02*
G37*
G36*
X2704382Y981160D02*
X2700738D01*
X2697164Y980449D01*
X2693797Y979054D01*
X2690767Y977030D01*
X2688190Y974453D01*
X2686165Y971423D01*
X2684771Y968056D01*
X2684060Y964482D01*
Y960838D01*
X2684771Y957264D01*
X2686165Y953897D01*
X2688190Y950867D01*
X2690767Y948290D01*
X2693797Y946265D01*
X2697164Y944871D01*
X2700738Y944160D01*
X2704382D01*
X2707956Y944871D01*
X2711323Y946265D01*
X2714353Y948290D01*
X2716930Y950867D01*
X2718954Y953897D01*
X2720349Y957264D01*
X2721060Y960838D01*
Y964482D01*
X2720349Y968056D01*
X2718954Y971423D01*
X2716930Y974453D01*
X2714353Y977030D01*
X2711323Y979054D01*
X2707956Y980449D01*
X2704382Y981160D01*
D02*
G37*
G36*
X1968645Y960710D02*
X1965815D01*
X1963081Y959977D01*
X1960629Y958562D01*
X1958628Y956561D01*
X1957213Y954109D01*
X1956480Y951375D01*
Y948545D01*
X1957213Y945811D01*
X1958628Y943359D01*
X1960629Y941358D01*
X1963081Y939943D01*
X1965815Y939210D01*
X1968645D01*
X1971379Y939943D01*
X1973831Y941358D01*
X1975832Y943359D01*
X1977247Y945811D01*
X1977980Y948545D01*
Y951375D01*
X1977247Y954109D01*
X1975832Y956561D01*
X1973831Y958562D01*
X1971379Y959977D01*
X1968645Y960710D01*
D02*
G37*
G36*
X2424383Y946550D02*
X2421937D01*
X2419574Y945917D01*
X2417456Y944694D01*
X2415726Y942964D01*
X2414503Y940846D01*
X2413870Y938483D01*
Y936037D01*
X2414503Y933674D01*
X2415726Y931556D01*
X2417456Y929826D01*
X2419574Y928603D01*
X2421937Y927970D01*
X2424383D01*
X2426746Y928603D01*
X2428864Y929826D01*
X2430594Y931556D01*
X2431817Y933674D01*
X2432450Y936037D01*
Y938483D01*
X2431817Y940846D01*
X2430594Y942964D01*
X2428864Y944694D01*
X2426746Y945917D01*
X2424383Y946550D01*
D02*
G37*
G36*
X2398983D02*
X2396537D01*
X2394174Y945917D01*
X2392056Y944694D01*
X2390326Y942964D01*
X2389103Y940846D01*
X2388470Y938483D01*
Y936037D01*
X2389103Y933674D01*
X2390326Y931556D01*
X2392056Y929826D01*
X2394174Y928603D01*
X2396537Y927970D01*
X2398983D01*
X2401346Y928603D01*
X2403464Y929826D01*
X2405194Y931556D01*
X2406417Y933674D01*
X2407050Y936037D01*
Y938483D01*
X2406417Y940846D01*
X2405194Y942964D01*
X2403464Y944694D01*
X2401346Y945917D01*
X2398983Y946550D01*
D02*
G37*
G36*
X2255665Y945470D02*
X2252835D01*
X2250101Y944737D01*
X2247649Y943322D01*
X2245648Y941321D01*
X2244233Y938869D01*
X2243500Y936135D01*
Y933305D01*
X2244233Y930571D01*
X2245648Y928119D01*
X2247649Y926118D01*
X2250101Y924703D01*
X2252835Y923970D01*
X2255665D01*
X2258399Y924703D01*
X2260851Y926118D01*
X2262852Y928119D01*
X2264267Y930571D01*
X2265000Y933305D01*
Y936135D01*
X2264267Y938869D01*
X2262852Y941321D01*
X2260851Y943322D01*
X2258399Y944737D01*
X2255665Y945470D01*
D02*
G37*
G36*
X2424383Y921150D02*
X2421937D01*
X2419574Y920517D01*
X2417456Y919294D01*
X2415726Y917564D01*
X2414503Y915446D01*
X2413870Y913083D01*
Y910637D01*
X2414503Y908274D01*
X2415726Y906156D01*
X2417456Y904426D01*
X2419574Y903203D01*
X2421937Y902570D01*
X2424383D01*
X2426746Y903203D01*
X2428864Y904426D01*
X2430594Y906156D01*
X2431817Y908274D01*
X2432450Y910637D01*
Y913083D01*
X2431817Y915446D01*
X2430594Y917564D01*
X2428864Y919294D01*
X2426746Y920517D01*
X2424383Y921150D01*
D02*
G37*
G36*
X2398983D02*
X2396537D01*
X2394174Y920517D01*
X2392056Y919294D01*
X2390326Y917564D01*
X2389103Y915446D01*
X2388470Y913083D01*
Y910637D01*
X2389103Y908274D01*
X2390326Y906156D01*
X2392056Y904426D01*
X2394174Y903203D01*
X2396537Y902570D01*
X2398983D01*
X2401346Y903203D01*
X2403464Y904426D01*
X2405194Y906156D01*
X2406417Y908274D01*
X2407050Y910637D01*
Y913083D01*
X2406417Y915446D01*
X2405194Y917564D01*
X2403464Y919294D01*
X2401346Y920517D01*
X2398983Y921150D01*
D02*
G37*
G36*
X1976750Y908680D02*
X1967865D01*
Y899795D01*
X1976750D01*
Y908680D01*
D02*
G37*
G36*
X2255665Y920070D02*
X2252835D01*
X2250101Y919337D01*
X2247649Y917922D01*
X2245648Y915921D01*
X2244233Y913469D01*
X2243500Y910735D01*
Y907905D01*
X2244233Y905171D01*
X2245648Y902719D01*
X2247649Y900718D01*
X2250101Y899303D01*
X2252835Y898570D01*
X2255665D01*
X2258399Y899303D01*
X2260851Y900718D01*
X2262852Y902719D01*
X2264267Y905171D01*
X2265000Y907905D01*
Y910735D01*
X2264267Y913469D01*
X2262852Y915921D01*
X2260851Y917922D01*
X2258399Y919337D01*
X2255665Y920070D01*
D02*
G37*
G36*
X2424383Y895750D02*
X2421937D01*
X2419574Y895117D01*
X2417456Y893894D01*
X2415726Y892164D01*
X2414503Y890046D01*
X2413870Y887683D01*
Y885237D01*
X2414503Y882874D01*
X2415726Y880756D01*
X2417456Y879026D01*
X2419574Y877803D01*
X2421937Y877170D01*
X2424383D01*
X2426746Y877803D01*
X2428864Y879026D01*
X2430594Y880756D01*
X2431817Y882874D01*
X2432450Y885237D01*
Y887683D01*
X2431817Y890046D01*
X2430594Y892164D01*
X2428864Y893894D01*
X2426746Y895117D01*
X2424383Y895750D01*
D02*
G37*
G36*
X2398983D02*
X2396537D01*
X2394174Y895117D01*
X2392056Y893894D01*
X2390326Y892164D01*
X2389103Y890046D01*
X2388470Y887683D01*
Y885237D01*
X2389103Y882874D01*
X2390326Y880756D01*
X2392056Y879026D01*
X2394174Y877803D01*
X2396537Y877170D01*
X2398983D01*
X2401346Y877803D01*
X2403464Y879026D01*
X2405194Y880756D01*
X2406417Y882874D01*
X2407050Y885237D01*
Y887683D01*
X2406417Y890046D01*
X2405194Y892164D01*
X2403464Y893894D01*
X2401346Y895117D01*
X2398983Y895750D01*
D02*
G37*
G36*
X2255665Y894670D02*
X2252835D01*
X2250101Y893937D01*
X2247649Y892522D01*
X2245648Y890521D01*
X2244233Y888069D01*
X2243500Y885335D01*
Y882505D01*
X2244233Y879771D01*
X2245648Y877319D01*
X2247649Y875318D01*
X2250101Y873903D01*
X2252835Y873170D01*
X2255665D01*
X2258399Y873903D01*
X2260851Y875318D01*
X2262852Y877319D01*
X2264267Y879771D01*
X2265000Y882505D01*
Y885335D01*
X2264267Y888069D01*
X2262852Y890521D01*
X2260851Y892522D01*
X2258399Y893937D01*
X2255665Y894670D01*
D02*
G37*
G36*
X1976750Y898525D02*
X1967865D01*
Y889640D01*
X1970622D01*
X1989076Y871186D01*
X1990481Y870247D01*
X1992140Y869917D01*
X1997965D01*
X1998456Y869426D01*
X1999862Y868487D01*
X2001520Y868157D01*
X2003178Y868487D01*
X2004584Y869426D01*
X2005523Y870832D01*
X2005853Y872490D01*
X2005523Y874148D01*
X2004584Y875554D01*
X2002824Y877314D01*
X2001418Y878254D01*
X1999760Y878584D01*
X1993935D01*
X1976750Y895768D01*
Y898525D01*
D02*
G37*
G36*
X2424383Y870350D02*
X2421937D01*
X2419574Y869717D01*
X2417456Y868494D01*
X2415726Y866764D01*
X2414503Y864646D01*
X2413870Y862283D01*
Y859837D01*
X2414503Y857474D01*
X2415726Y855356D01*
X2417456Y853626D01*
X2419574Y852403D01*
X2421937Y851770D01*
X2424383D01*
X2426746Y852403D01*
X2428864Y853626D01*
X2430594Y855356D01*
X2431817Y857474D01*
X2432450Y859837D01*
Y862283D01*
X2431817Y864646D01*
X2430594Y866764D01*
X2428864Y868494D01*
X2426746Y869717D01*
X2424383Y870350D01*
D02*
G37*
G36*
X2398983D02*
X2396537D01*
X2394174Y869717D01*
X2392056Y868494D01*
X2390326Y866764D01*
X2389103Y864646D01*
X2388470Y862283D01*
Y859837D01*
X2389103Y857474D01*
X2390326Y855356D01*
X2392056Y853626D01*
X2394174Y852403D01*
X2396537Y851770D01*
X2398983D01*
X2401346Y852403D01*
X2403464Y853626D01*
X2405194Y855356D01*
X2406417Y857474D01*
X2407050Y859837D01*
Y862283D01*
X2406417Y864646D01*
X2405194Y866764D01*
X2403464Y868494D01*
X2401346Y869717D01*
X2398983Y870350D01*
D02*
G37*
G36*
X2255665Y869270D02*
X2252835D01*
X2250101Y868537D01*
X2247649Y867122D01*
X2245648Y865121D01*
X2244233Y862669D01*
X2243500Y859935D01*
Y857105D01*
X2244233Y854371D01*
X2245648Y851919D01*
X2247649Y849918D01*
X2250101Y848503D01*
X2252835Y847770D01*
X2255665D01*
X2258399Y848503D01*
X2260851Y849918D01*
X2262852Y851919D01*
X2264267Y854371D01*
X2265000Y857105D01*
Y859935D01*
X2264267Y862669D01*
X2262852Y865121D01*
X2260851Y867122D01*
X2258399Y868537D01*
X2255665Y869270D01*
D02*
G37*
G36*
X2132330Y935243D02*
X2130672Y934913D01*
X2129266Y933974D01*
X2128327Y932568D01*
X2127997Y930910D01*
X2128327Y929252D01*
X2129266Y927846D01*
X2146082Y911030D01*
Y857555D01*
X2146412Y855897D01*
X2147351Y854491D01*
X2165436Y836406D01*
X2166842Y835467D01*
X2168500Y835137D01*
X2170158Y835467D01*
X2171564Y836406D01*
X2172503Y837812D01*
X2172833Y839470D01*
X2172503Y841128D01*
X2171564Y842534D01*
X2154748Y859350D01*
Y912825D01*
X2154418Y914483D01*
X2153479Y915889D01*
X2135394Y933974D01*
X2133988Y934913D01*
X2132330Y935243D01*
D02*
G37*
G36*
X2424383Y844950D02*
X2421937D01*
X2419574Y844317D01*
X2417456Y843094D01*
X2415726Y841364D01*
X2414503Y839246D01*
X2413870Y836883D01*
Y834437D01*
X2414503Y832074D01*
X2415726Y829956D01*
X2417456Y828226D01*
X2419574Y827003D01*
X2421937Y826370D01*
X2424383D01*
X2426746Y827003D01*
X2428864Y828226D01*
X2430594Y829956D01*
X2431817Y832074D01*
X2432450Y834437D01*
Y836883D01*
X2431817Y839246D01*
X2430594Y841364D01*
X2428864Y843094D01*
X2426746Y844317D01*
X2424383Y844950D01*
D02*
G37*
G36*
X2398983D02*
X2396537D01*
X2394174Y844317D01*
X2392056Y843094D01*
X2390326Y841364D01*
X2389103Y839246D01*
X2388470Y836883D01*
Y834437D01*
X2389103Y832074D01*
X2390326Y829956D01*
X2392056Y828226D01*
X2394174Y827003D01*
X2396537Y826370D01*
X2398983D01*
X2401346Y827003D01*
X2403464Y828226D01*
X2405194Y829956D01*
X2406417Y832074D01*
X2407050Y834437D01*
Y836883D01*
X2406417Y839246D01*
X2405194Y841364D01*
X2403464Y843094D01*
X2401346Y844317D01*
X2398983Y844950D01*
D02*
G37*
G36*
X2255503Y817240D02*
X2254885D01*
Y808355D01*
X2263770D01*
Y808973D01*
X2263121Y811395D01*
X2261868Y813565D01*
X2260095Y815338D01*
X2257925Y816591D01*
X2255503Y817240D01*
D02*
G37*
G36*
X2253615D02*
X2252997D01*
X2250575Y816591D01*
X2248405Y815338D01*
X2246632Y813565D01*
X2245379Y811395D01*
X2244730Y808973D01*
Y808355D01*
X2253615D01*
Y817240D01*
D02*
G37*
G36*
X2424383Y819550D02*
X2421937D01*
X2419574Y818917D01*
X2417456Y817694D01*
X2415726Y815964D01*
X2414503Y813846D01*
X2413870Y811483D01*
Y809037D01*
X2414503Y806674D01*
X2415726Y804556D01*
X2417456Y802826D01*
X2419574Y801603D01*
X2421937Y800970D01*
X2424383D01*
X2426746Y801603D01*
X2428864Y802826D01*
X2430594Y804556D01*
X2431817Y806674D01*
X2432450Y809037D01*
Y811483D01*
X2431817Y813846D01*
X2430594Y815964D01*
X2428864Y817694D01*
X2426746Y818917D01*
X2424383Y819550D01*
D02*
G37*
G36*
X2398983D02*
X2396537D01*
X2394174Y818917D01*
X2392056Y817694D01*
X2390326Y815964D01*
X2389103Y813846D01*
X2388470Y811483D01*
Y809037D01*
X2389103Y806674D01*
X2390326Y804556D01*
X2392056Y802826D01*
X2394174Y801603D01*
X2396537Y800970D01*
X2398983D01*
X2401346Y801603D01*
X2403464Y802826D01*
X2405194Y804556D01*
X2406417Y806674D01*
X2407050Y809037D01*
Y811483D01*
X2406417Y813846D01*
X2405194Y815964D01*
X2403464Y817694D01*
X2401346Y818917D01*
X2398983Y819550D01*
D02*
G37*
G36*
X2263770Y807085D02*
X2254885D01*
Y798200D01*
X2255503D01*
X2257925Y798849D01*
X2260095Y800102D01*
X2261868Y801875D01*
X2263121Y804045D01*
X2263770Y806467D01*
Y807085D01*
D02*
G37*
G36*
X2253615D02*
X2244730D01*
Y806467D01*
X2245379Y804045D01*
X2246632Y801875D01*
X2248405Y800102D01*
X2250575Y798849D01*
X2252997Y798200D01*
X2253615D01*
Y807085D01*
D02*
G37*
G36*
X2205326Y1068079D02*
X2201574D01*
X2201328Y1068030D01*
X2201076D01*
X2197396Y1067298D01*
X2197164Y1067202D01*
X2196918Y1067153D01*
X2193451Y1065717D01*
X2193242Y1065577D01*
X2193010Y1065481D01*
X2189890Y1063397D01*
X2189713Y1063219D01*
X2189504Y1063080D01*
X2186850Y1060426D01*
X2186711Y1060217D01*
X2186534Y1060040D01*
X2184449Y1056920D01*
X2184353Y1056688D01*
X2184213Y1056479D01*
X2182777Y1053012D01*
X2182728Y1052766D01*
X2182632Y1052534D01*
X2181900Y1048854D01*
Y1048602D01*
X2181851Y1048356D01*
Y1046480D01*
Y812800D01*
Y810924D01*
X2181900Y810678D01*
Y810426D01*
X2182632Y806746D01*
X2182728Y806514D01*
X2182777Y806268D01*
X2184213Y802801D01*
X2184353Y802592D01*
X2184449Y802360D01*
X2186534Y799240D01*
X2186711Y799063D01*
X2186850Y798854D01*
X2189504Y796200D01*
X2189713Y796061D01*
X2189890Y795883D01*
X2193010Y793799D01*
X2193242Y793703D01*
X2193451Y793563D01*
X2196918Y792127D01*
X2197164Y792078D01*
X2197396Y791982D01*
X2201076Y791250D01*
X2201328D01*
X2201574Y791201D01*
X2205326D01*
X2205572Y791250D01*
X2205824D01*
X2209504Y791982D01*
X2209736Y792078D01*
X2209982Y792127D01*
X2213449Y793563D01*
X2213658Y793703D01*
X2213890Y793799D01*
X2217010Y795883D01*
X2217187Y796061D01*
X2217396Y796200D01*
X2220049Y798854D01*
X2220189Y799063D01*
X2220367Y799240D01*
X2222451Y802360D01*
X2222547Y802592D01*
X2222687Y802801D01*
X2224123Y806268D01*
X2224172Y806514D01*
X2224268Y806746D01*
X2225000Y810426D01*
Y810678D01*
X2225049Y810924D01*
Y812800D01*
Y1046480D01*
Y1048356D01*
X2225000Y1048602D01*
Y1048854D01*
X2224268Y1052534D01*
X2224172Y1052766D01*
X2224123Y1053012D01*
X2222687Y1056479D01*
X2222547Y1056688D01*
X2222451Y1056920D01*
X2220367Y1060040D01*
X2220189Y1060217D01*
X2220049Y1060426D01*
X2217396Y1063080D01*
X2217187Y1063219D01*
X2217010Y1063397D01*
X2213890Y1065481D01*
X2213658Y1065577D01*
X2213449Y1065717D01*
X2209982Y1067153D01*
X2209736Y1067202D01*
X2209504Y1067298D01*
X2205824Y1068030D01*
X2205572D01*
X2205326Y1068079D01*
D02*
G37*
G36*
X2424383Y794150D02*
X2421937D01*
X2419574Y793517D01*
X2417456Y792294D01*
X2415726Y790564D01*
X2414503Y788446D01*
X2413870Y786083D01*
Y783637D01*
X2414503Y781274D01*
X2415726Y779156D01*
X2417456Y777426D01*
X2419574Y776203D01*
X2421937Y775570D01*
X2424383D01*
X2426746Y776203D01*
X2428864Y777426D01*
X2430594Y779156D01*
X2431817Y781274D01*
X2432450Y783637D01*
Y786083D01*
X2431817Y788446D01*
X2430594Y790564D01*
X2428864Y792294D01*
X2426746Y793517D01*
X2424383Y794150D01*
D02*
G37*
G36*
X2398983D02*
X2396537D01*
X2394174Y793517D01*
X2392056Y792294D01*
X2390326Y790564D01*
X2389103Y788446D01*
X2388470Y786083D01*
Y783637D01*
X2389103Y781274D01*
X2390326Y779156D01*
X2392056Y777426D01*
X2394174Y776203D01*
X2396537Y775570D01*
X2398983D01*
X2401346Y776203D01*
X2403464Y777426D01*
X2405194Y779156D01*
X2406417Y781274D01*
X2407050Y783637D01*
Y786083D01*
X2406417Y788446D01*
X2405194Y790564D01*
X2403464Y792294D01*
X2401346Y793517D01*
X2398983Y794150D01*
D02*
G37*
G36*
X2424383Y768750D02*
X2421937D01*
X2419574Y768117D01*
X2417456Y766894D01*
X2415726Y765164D01*
X2414503Y763046D01*
X2413870Y760683D01*
Y758237D01*
X2414503Y755874D01*
X2415726Y753756D01*
X2417456Y752026D01*
X2419574Y750803D01*
X2421937Y750170D01*
X2424383D01*
X2426746Y750803D01*
X2428864Y752026D01*
X2430594Y753756D01*
X2431817Y755874D01*
X2432450Y758237D01*
Y760683D01*
X2431817Y763046D01*
X2430594Y765164D01*
X2428864Y766894D01*
X2426746Y768117D01*
X2424383Y768750D01*
D02*
G37*
G36*
X2398983D02*
X2396537D01*
X2394174Y768117D01*
X2392056Y766894D01*
X2390326Y765164D01*
X2389103Y763046D01*
X2388470Y760683D01*
Y758237D01*
X2389103Y755874D01*
X2390326Y753756D01*
X2392056Y752026D01*
X2394174Y750803D01*
X2396537Y750170D01*
X2398983D01*
X2401346Y750803D01*
X2403464Y752026D01*
X2405194Y753756D01*
X2406417Y755874D01*
X2407050Y758237D01*
Y760683D01*
X2406417Y763046D01*
X2405194Y765164D01*
X2403464Y766894D01*
X2401346Y768117D01*
X2398983Y768750D01*
D02*
G37*
G36*
X1976750Y739770D02*
X1967865D01*
Y730885D01*
X1976750D01*
Y739770D01*
D02*
G37*
G36*
X1966595D02*
X1957710D01*
Y730885D01*
X1966595D01*
Y739770D01*
D02*
G37*
G36*
X2424383Y743350D02*
X2421937D01*
X2419574Y742717D01*
X2417456Y741494D01*
X2415726Y739764D01*
X2414503Y737646D01*
X2413870Y735283D01*
Y732837D01*
X2414503Y730474D01*
X2415726Y728356D01*
X2417456Y726626D01*
X2419574Y725403D01*
X2421937Y724770D01*
X2424383D01*
X2426746Y725403D01*
X2428864Y726626D01*
X2430594Y728356D01*
X2431817Y730474D01*
X2432450Y732837D01*
Y735283D01*
X2431817Y737646D01*
X2430594Y739764D01*
X2428864Y741494D01*
X2426746Y742717D01*
X2424383Y743350D01*
D02*
G37*
G36*
X2398983D02*
X2396537D01*
X2394174Y742717D01*
X2392056Y741494D01*
X2390326Y739764D01*
X2389103Y737646D01*
X2388470Y735283D01*
Y732837D01*
X2389103Y730474D01*
X2390326Y728356D01*
X2392056Y726626D01*
X2394174Y725403D01*
X2396537Y724770D01*
X2398983D01*
X2401346Y725403D01*
X2403464Y726626D01*
X2405194Y728356D01*
X2406417Y730474D01*
X2407050Y732837D01*
Y735283D01*
X2406417Y737646D01*
X2405194Y739764D01*
X2403464Y741494D01*
X2401346Y742717D01*
X2398983Y743350D01*
D02*
G37*
G36*
X1976750Y729615D02*
X1967865D01*
Y720730D01*
X1976750D01*
Y729615D01*
D02*
G37*
G36*
X1966595D02*
X1957710D01*
Y720730D01*
X1966595D01*
Y729615D01*
D02*
G37*
G36*
X2424383Y717950D02*
X2421937D01*
X2419574Y717317D01*
X2417456Y716094D01*
X2415726Y714364D01*
X2414503Y712246D01*
X2413870Y709883D01*
Y707437D01*
X2414503Y705074D01*
X2415726Y702956D01*
X2417456Y701226D01*
X2419574Y700003D01*
X2421937Y699370D01*
X2424383D01*
X2426746Y700003D01*
X2428864Y701226D01*
X2430594Y702956D01*
X2431817Y705074D01*
X2432450Y707437D01*
Y709883D01*
X2431817Y712246D01*
X2430594Y714364D01*
X2428864Y716094D01*
X2426746Y717317D01*
X2424383Y717950D01*
D02*
G37*
G36*
X2398983D02*
X2396537D01*
X2394174Y717317D01*
X2392056Y716094D01*
X2390326Y714364D01*
X2389103Y712246D01*
X2388470Y709883D01*
Y707437D01*
X2389103Y705074D01*
X2390326Y702956D01*
X2392056Y701226D01*
X2394174Y700003D01*
X2396537Y699370D01*
X2398983D01*
X2401346Y700003D01*
X2403464Y701226D01*
X2405194Y702956D01*
X2406417Y705074D01*
X2407050Y707437D01*
Y709883D01*
X2406417Y712246D01*
X2405194Y714364D01*
X2403464Y716094D01*
X2401346Y717317D01*
X2398983Y717950D01*
D02*
G37*
G36*
X2197152Y698380D02*
X2194508D01*
X2191955Y697696D01*
X2189665Y696374D01*
X2187796Y694505D01*
X2186474Y692215D01*
X2185790Y689662D01*
Y687018D01*
X2186474Y684465D01*
X2187796Y682175D01*
X2189665Y680306D01*
X2191955Y678984D01*
X2194508Y678300D01*
X2197152D01*
X2199705Y678984D01*
X2201995Y680306D01*
X2203864Y682175D01*
X2205186Y684465D01*
X2205870Y687018D01*
Y689662D01*
X2205186Y692215D01*
X2203864Y694505D01*
X2201995Y696374D01*
X2199705Y697696D01*
X2197152Y698380D01*
D02*
G37*
G36*
X2424383Y692550D02*
X2421937D01*
X2419574Y691917D01*
X2417456Y690694D01*
X2415726Y688964D01*
X2414503Y686846D01*
X2413870Y684483D01*
Y682037D01*
X2414503Y679674D01*
X2415726Y677556D01*
X2417456Y675826D01*
X2419574Y674603D01*
X2421937Y673970D01*
X2424383D01*
X2426746Y674603D01*
X2428864Y675826D01*
X2430594Y677556D01*
X2431817Y679674D01*
X2432450Y682037D01*
Y684483D01*
X2431817Y686846D01*
X2430594Y688964D01*
X2428864Y690694D01*
X2426746Y691917D01*
X2424383Y692550D01*
D02*
G37*
G36*
X2704382Y701760D02*
X2700738D01*
X2697164Y701049D01*
X2693797Y699654D01*
X2690767Y697630D01*
X2688190Y695053D01*
X2686165Y692023D01*
X2684771Y688656D01*
X2684060Y685082D01*
Y681438D01*
X2684771Y677864D01*
X2686165Y674497D01*
X2688190Y671467D01*
X2690767Y668890D01*
X2693797Y666865D01*
X2697164Y665471D01*
X2700738Y664760D01*
X2704382D01*
X2707956Y665471D01*
X2711323Y666865D01*
X2714353Y668890D01*
X2716930Y671467D01*
X2718954Y674497D01*
X2720349Y677864D01*
X2721060Y681438D01*
Y685082D01*
X2720349Y688656D01*
X2718954Y692023D01*
X2716930Y695053D01*
X2714353Y697630D01*
X2711323Y699654D01*
X2707956Y701049D01*
X2704382Y701760D01*
D02*
G37*
G36*
X2104042Y674250D02*
X2101398D01*
X2098845Y673566D01*
X2096555Y672244D01*
X2094686Y670375D01*
X2093364Y668085D01*
X2092680Y665532D01*
Y662888D01*
X2093364Y660335D01*
X2094686Y658045D01*
X2096555Y656176D01*
X2098845Y654854D01*
X2101398Y654170D01*
X2104042D01*
X2106595Y654854D01*
X2108885Y656176D01*
X2110754Y658045D01*
X2112076Y660335D01*
X2112760Y662888D01*
Y665532D01*
X2112076Y668085D01*
X2110754Y670375D01*
X2108885Y672244D01*
X2106595Y673566D01*
X2104042Y674250D01*
D02*
G37*
G36*
X2197152Y672980D02*
X2194508D01*
X2191955Y672296D01*
X2189665Y670974D01*
X2187796Y669105D01*
X2186474Y666815D01*
X2185790Y664262D01*
Y661618D01*
X2186474Y659065D01*
X2187796Y656775D01*
X2189665Y654906D01*
X2190603Y654364D01*
X2190382Y653026D01*
X2189489Y652848D01*
X2188166Y651964D01*
X2188166Y651964D01*
X2182901Y646698D01*
X2155435D01*
X2154652Y648054D01*
X2153004Y649702D01*
X2150986Y650867D01*
X2148735Y651470D01*
X2146405D01*
X2144154Y650867D01*
X2142136Y649702D01*
X2140488Y648054D01*
X2139323Y646036D01*
X2138720Y643785D01*
Y641455D01*
X2139323Y639204D01*
X2140488Y637186D01*
X2142136Y635538D01*
X2144154Y634373D01*
X2146405Y633770D01*
X2148735D01*
X2150986Y634373D01*
X2153004Y635538D01*
X2154652Y637186D01*
X2155435Y638542D01*
X2184590D01*
X2184590Y638542D01*
X2184808Y638585D01*
X2185790Y637779D01*
Y636218D01*
X2186474Y633665D01*
X2187796Y631375D01*
X2189665Y629506D01*
X2191955Y628184D01*
X2194508Y627500D01*
X2197152D01*
X2199705Y628184D01*
X2201995Y629506D01*
X2203864Y631375D01*
X2205186Y633665D01*
X2205870Y636218D01*
Y638862D01*
X2205186Y641415D01*
X2203864Y643705D01*
X2203740Y643828D01*
X2204226Y645002D01*
X2228542D01*
X2229388Y643536D01*
X2231036Y641888D01*
X2233054Y640723D01*
X2235305Y640120D01*
X2237635D01*
X2239886Y640723D01*
X2241904Y641888D01*
X2243552Y643536D01*
X2244717Y645554D01*
X2245320Y647805D01*
Y650135D01*
X2244717Y652386D01*
X2243552Y654404D01*
X2241904Y656052D01*
X2239886Y657217D01*
X2237635Y657820D01*
X2235305D01*
X2233054Y657217D01*
X2231036Y656052D01*
X2229388Y654404D01*
X2228669Y653158D01*
X2201508D01*
X2201167Y654428D01*
X2201995Y654906D01*
X2203864Y656775D01*
X2205186Y659065D01*
X2205870Y661618D01*
Y664262D01*
X2205186Y666815D01*
X2203864Y669105D01*
X2201995Y670974D01*
X2199705Y672296D01*
X2197152Y672980D01*
D02*
G37*
G36*
X2932221Y640520D02*
X2931795D01*
Y633095D01*
X2939220D01*
Y633521D01*
X2938671Y635571D01*
X2937610Y637409D01*
X2936109Y638910D01*
X2934271Y639971D01*
X2932221Y640520D01*
D02*
G37*
G36*
X2930525D02*
X2930099D01*
X2928049Y639971D01*
X2926211Y638910D01*
X2924710Y637409D01*
X2923649Y635571D01*
X2923100Y633521D01*
Y633095D01*
X2930525D01*
Y640520D01*
D02*
G37*
G36*
X2939220Y631825D02*
X2931795D01*
Y624400D01*
X2932221D01*
X2934271Y624949D01*
X2936109Y626010D01*
X2937610Y627511D01*
X2938671Y629349D01*
X2939220Y631399D01*
Y631825D01*
D02*
G37*
G36*
X2930525D02*
X2923100D01*
Y631399D01*
X2923649Y629349D01*
X2924710Y627511D01*
X2926211Y626010D01*
X2928049Y624949D01*
X2930099Y624400D01*
X2930525D01*
Y631825D01*
D02*
G37*
G36*
X3092850Y641750D02*
X3074270D01*
Y623170D01*
X3092850D01*
Y641750D01*
D02*
G37*
G36*
X3059383D02*
X3056937D01*
X3054574Y641117D01*
X3052456Y639894D01*
X3050726Y638164D01*
X3049503Y636046D01*
X3048870Y633683D01*
Y631237D01*
X3049503Y628874D01*
X3050726Y626756D01*
X3052456Y625026D01*
X3054574Y623803D01*
X3056937Y623170D01*
X3059383D01*
X3061746Y623803D01*
X3063864Y625026D01*
X3065594Y626756D01*
X3066817Y628874D01*
X3067450Y631237D01*
Y633683D01*
X3066817Y636046D01*
X3065594Y638164D01*
X3063864Y639894D01*
X3061746Y641117D01*
X3059383Y641750D01*
D02*
G37*
G36*
X3033983D02*
X3031537D01*
X3029174Y641117D01*
X3027056Y639894D01*
X3025326Y638164D01*
X3024103Y636046D01*
X3023470Y633683D01*
Y631237D01*
X3024103Y628874D01*
X3025326Y626756D01*
X3027056Y625026D01*
X3029174Y623803D01*
X3031537Y623170D01*
X3033983D01*
X3036346Y623803D01*
X3038464Y625026D01*
X3040194Y626756D01*
X3041417Y628874D01*
X3042050Y631237D01*
Y633683D01*
X3041417Y636046D01*
X3040194Y638164D01*
X3038464Y639894D01*
X3036346Y641117D01*
X3033983Y641750D01*
D02*
G37*
G36*
X3008583D02*
X3006137D01*
X3003774Y641117D01*
X3001656Y639894D01*
X2999926Y638164D01*
X2998703Y636046D01*
X2998070Y633683D01*
Y631237D01*
X2998703Y628874D01*
X2999926Y626756D01*
X3001656Y625026D01*
X3003774Y623803D01*
X3006137Y623170D01*
X3008583D01*
X3010946Y623803D01*
X3013064Y625026D01*
X3014794Y626756D01*
X3016017Y628874D01*
X3016650Y631237D01*
Y633683D01*
X3016017Y636046D01*
X3014794Y638164D01*
X3013064Y639894D01*
X3010946Y641117D01*
X3008583Y641750D01*
D02*
G37*
G36*
X2983183D02*
X2980737D01*
X2978374Y641117D01*
X2976256Y639894D01*
X2974526Y638164D01*
X2973303Y636046D01*
X2972670Y633683D01*
Y631237D01*
X2973303Y628874D01*
X2974526Y626756D01*
X2976256Y625026D01*
X2978374Y623803D01*
X2980737Y623170D01*
X2983183D01*
X2985546Y623803D01*
X2987664Y625026D01*
X2989394Y626756D01*
X2990617Y628874D01*
X2991250Y631237D01*
Y633683D01*
X2990617Y636046D01*
X2989394Y638164D01*
X2987664Y639894D01*
X2985546Y641117D01*
X2983183Y641750D01*
D02*
G37*
G36*
X2957783D02*
X2955337D01*
X2952974Y641117D01*
X2950856Y639894D01*
X2949126Y638164D01*
X2947903Y636046D01*
X2947270Y633683D01*
Y631237D01*
X2947903Y628874D01*
X2949126Y626756D01*
X2950856Y625026D01*
X2952974Y623803D01*
X2955337Y623170D01*
X2957783D01*
X2960146Y623803D01*
X2962264Y625026D01*
X2963994Y626756D01*
X2965217Y628874D01*
X2965850Y631237D01*
Y633683D01*
X2965217Y636046D01*
X2963994Y638164D01*
X2962264Y639894D01*
X2960146Y641117D01*
X2957783Y641750D01*
D02*
G37*
G36*
X2856183D02*
X2853737D01*
X2851374Y641117D01*
X2849256Y639894D01*
X2847526Y638164D01*
X2846303Y636046D01*
X2845670Y633683D01*
Y631237D01*
X2846303Y628874D01*
X2847526Y626756D01*
X2849256Y625026D01*
X2851374Y623803D01*
X2853737Y623170D01*
X2856183D01*
X2858546Y623803D01*
X2860664Y625026D01*
X2862394Y626756D01*
X2863617Y628874D01*
X2864250Y631237D01*
Y633683D01*
X2863617Y636046D01*
X2862394Y638164D01*
X2860664Y639894D01*
X2858546Y641117D01*
X2856183Y641750D01*
D02*
G37*
G36*
X2830783D02*
X2828337D01*
X2825974Y641117D01*
X2823856Y639894D01*
X2822126Y638164D01*
X2820903Y636046D01*
X2820270Y633683D01*
Y631237D01*
X2820903Y628874D01*
X2822126Y626756D01*
X2823856Y625026D01*
X2825974Y623803D01*
X2828337Y623170D01*
X2830783D01*
X2833146Y623803D01*
X2835264Y625026D01*
X2836994Y626756D01*
X2838217Y628874D01*
X2838850Y631237D01*
Y633683D01*
X2838217Y636046D01*
X2836994Y638164D01*
X2835264Y639894D01*
X2833146Y641117D01*
X2830783Y641750D01*
D02*
G37*
G36*
X2805383D02*
X2802937D01*
X2800574Y641117D01*
X2798456Y639894D01*
X2796726Y638164D01*
X2795503Y636046D01*
X2794870Y633683D01*
Y631237D01*
X2795503Y628874D01*
X2796726Y626756D01*
X2798456Y625026D01*
X2800574Y623803D01*
X2802937Y623170D01*
X2805383D01*
X2807746Y623803D01*
X2809864Y625026D01*
X2811594Y626756D01*
X2812817Y628874D01*
X2813450Y631237D01*
Y633683D01*
X2812817Y636046D01*
X2811594Y638164D01*
X2809864Y639894D01*
X2807746Y641117D01*
X2805383Y641750D01*
D02*
G37*
G36*
X2703783D02*
X2701337D01*
X2698974Y641117D01*
X2696856Y639894D01*
X2695126Y638164D01*
X2693903Y636046D01*
X2693270Y633683D01*
Y631237D01*
X2693903Y628874D01*
X2695126Y626756D01*
X2696856Y625026D01*
X2698974Y623803D01*
X2701337Y623170D01*
X2703783D01*
X2706146Y623803D01*
X2708264Y625026D01*
X2709994Y626756D01*
X2711217Y628874D01*
X2711850Y631237D01*
Y633683D01*
X2711217Y636046D01*
X2709994Y638164D01*
X2708264Y639894D01*
X2706146Y641117D01*
X2703783Y641750D01*
D02*
G37*
G36*
X2678383D02*
X2675937D01*
X2673574Y641117D01*
X2671456Y639894D01*
X2669726Y638164D01*
X2668503Y636046D01*
X2667870Y633683D01*
Y631237D01*
X2668503Y628874D01*
X2669726Y626756D01*
X2671456Y625026D01*
X2673574Y623803D01*
X2675937Y623170D01*
X2678383D01*
X2680746Y623803D01*
X2682864Y625026D01*
X2684594Y626756D01*
X2685817Y628874D01*
X2686450Y631237D01*
Y633683D01*
X2685817Y636046D01*
X2684594Y638164D01*
X2682864Y639894D01*
X2680746Y641117D01*
X2678383Y641750D01*
D02*
G37*
G36*
X3225082Y650960D02*
X3221438D01*
X3217864Y650249D01*
X3214497Y648855D01*
X3211467Y646830D01*
X3208890Y644253D01*
X3206866Y641223D01*
X3205471Y637856D01*
X3204760Y634282D01*
Y630638D01*
X3205471Y627064D01*
X3206866Y623697D01*
X3208890Y620667D01*
X3211467Y618090D01*
X3214497Y616065D01*
X3217864Y614671D01*
X3221438Y613960D01*
X3225082D01*
X3228656Y614671D01*
X3232023Y616065D01*
X3235053Y618090D01*
X3237630Y620667D01*
X3239655Y623697D01*
X3241049Y627064D01*
X3241760Y630638D01*
Y634282D01*
X3241049Y637856D01*
X3239655Y641223D01*
X3237630Y644253D01*
X3235053Y646830D01*
X3232023Y648855D01*
X3228656Y650249D01*
X3225082Y650960D01*
D02*
G37*
G36*
X2197152Y622180D02*
X2194508D01*
X2191955Y621496D01*
X2189665Y620174D01*
X2187796Y618305D01*
X2186474Y616015D01*
X2185790Y613462D01*
Y610818D01*
X2186474Y608265D01*
X2187796Y605975D01*
X2189665Y604106D01*
X2191955Y602784D01*
X2194508Y602100D01*
X2197152D01*
X2199705Y602784D01*
X2201995Y604106D01*
X2203864Y605975D01*
X2205186Y608265D01*
X2205870Y610818D01*
Y613462D01*
X2205186Y616015D01*
X2203864Y618305D01*
X2201995Y620174D01*
X2199705Y621496D01*
X2197152Y622180D01*
D02*
G37*
G36*
Y596780D02*
X2194508D01*
X2191955Y596096D01*
X2189665Y594774D01*
X2187796Y592905D01*
X2186474Y590615D01*
X2185790Y588062D01*
Y585418D01*
X2186474Y582865D01*
X2187796Y580575D01*
X2189665Y578706D01*
X2191955Y577384D01*
X2194508Y576700D01*
X2197152D01*
X2199705Y577384D01*
X2201995Y578706D01*
X2203864Y580575D01*
X2205186Y582865D01*
X2205870Y585418D01*
Y588062D01*
X2205186Y590615D01*
X2203864Y592905D01*
X2201995Y594774D01*
X2199705Y596096D01*
X2197152Y596780D01*
D02*
G37*
G36*
X2103242Y582810D02*
X2100598D01*
X2098045Y582126D01*
X2095755Y580804D01*
X2093886Y578935D01*
X2092564Y576645D01*
X2091880Y574092D01*
Y571448D01*
X2092564Y568895D01*
X2093886Y566605D01*
X2095755Y564736D01*
X2098045Y563414D01*
X2100598Y562730D01*
X2103242D01*
X2105795Y563414D01*
X2108085Y564736D01*
X2109954Y566605D01*
X2111276Y568895D01*
X2111960Y571448D01*
Y574092D01*
X2111276Y576645D01*
X2109954Y578935D01*
X2108085Y580804D01*
X2105795Y582126D01*
X2103242Y582810D01*
D02*
G37*
G36*
X2622602Y577730D02*
X2619958D01*
X2617405Y577046D01*
X2615115Y575724D01*
X2613246Y573855D01*
X2611924Y571565D01*
X2611240Y569012D01*
Y566368D01*
X2611924Y563815D01*
X2613246Y561525D01*
X2615115Y559656D01*
X2617405Y558334D01*
X2619958Y557650D01*
X2622602D01*
X2625155Y558334D01*
X2627445Y559656D01*
X2629314Y561525D01*
X2630636Y563815D01*
X2631320Y566368D01*
Y569012D01*
X2630636Y571565D01*
X2629314Y573855D01*
X2627445Y575724D01*
X2625155Y577046D01*
X2622602Y577730D01*
D02*
G37*
G36*
X2597202D02*
X2594558D01*
X2592005Y577046D01*
X2589715Y575724D01*
X2587846Y573855D01*
X2586524Y571565D01*
X2585840Y569012D01*
Y566368D01*
X2586524Y563815D01*
X2587846Y561525D01*
X2589715Y559656D01*
X2592005Y558334D01*
X2594558Y557650D01*
X2597202D01*
X2599755Y558334D01*
X2602045Y559656D01*
X2603914Y561525D01*
X2605236Y563815D01*
X2605920Y566368D01*
Y569012D01*
X2605236Y571565D01*
X2603914Y573855D01*
X2602045Y575724D01*
X2599755Y577046D01*
X2597202Y577730D01*
D02*
G37*
G36*
X2546402D02*
X2543758D01*
X2541205Y577046D01*
X2538915Y575724D01*
X2537046Y573855D01*
X2535724Y571565D01*
X2535040Y569012D01*
Y566368D01*
X2535724Y563815D01*
X2537046Y561525D01*
X2538915Y559656D01*
X2541205Y558334D01*
X2543758Y557650D01*
X2546402D01*
X2548955Y558334D01*
X2551245Y559656D01*
X2553114Y561525D01*
X2554436Y563815D01*
X2555120Y566368D01*
Y569012D01*
X2554436Y571565D01*
X2553114Y573855D01*
X2551245Y575724D01*
X2548955Y577046D01*
X2546402Y577730D01*
D02*
G37*
G36*
X2495602D02*
X2492958D01*
X2490405Y577046D01*
X2488115Y575724D01*
X2486246Y573855D01*
X2484924Y571565D01*
X2484240Y569012D01*
Y566368D01*
X2484924Y563815D01*
X2486246Y561525D01*
X2488115Y559656D01*
X2490405Y558334D01*
X2492958Y557650D01*
X2495602D01*
X2498155Y558334D01*
X2500445Y559656D01*
X2502314Y561525D01*
X2503636Y563815D01*
X2504320Y566368D01*
Y569012D01*
X2503636Y571565D01*
X2502314Y573855D01*
X2500445Y575724D01*
X2498155Y577046D01*
X2495602Y577730D01*
D02*
G37*
G36*
X2470202D02*
X2467558D01*
X2465005Y577046D01*
X2462715Y575724D01*
X2460846Y573855D01*
X2459524Y571565D01*
X2458840Y569012D01*
Y566368D01*
X2459524Y563815D01*
X2460846Y561525D01*
X2462715Y559656D01*
X2465005Y558334D01*
X2467558Y557650D01*
X2470202D01*
X2472755Y558334D01*
X2475045Y559656D01*
X2476914Y561525D01*
X2478236Y563815D01*
X2478920Y566368D01*
Y569012D01*
X2478236Y571565D01*
X2476914Y573855D01*
X2475045Y575724D01*
X2472755Y577046D01*
X2470202Y577730D01*
D02*
G37*
G36*
X2444802D02*
X2442158D01*
X2439605Y577046D01*
X2437315Y575724D01*
X2435446Y573855D01*
X2434124Y571565D01*
X2433440Y569012D01*
Y566368D01*
X2434124Y563815D01*
X2435446Y561525D01*
X2437315Y559656D01*
X2439605Y558334D01*
X2442158Y557650D01*
X2444802D01*
X2447355Y558334D01*
X2449645Y559656D01*
X2451514Y561525D01*
X2452836Y563815D01*
X2453520Y566368D01*
Y569012D01*
X2452836Y571565D01*
X2451514Y573855D01*
X2449645Y575724D01*
X2447355Y577046D01*
X2444802Y577730D01*
D02*
G37*
G36*
X2419402D02*
X2416758D01*
X2414205Y577046D01*
X2411915Y575724D01*
X2410046Y573855D01*
X2408724Y571565D01*
X2408040Y569012D01*
Y566368D01*
X2408724Y563815D01*
X2410046Y561525D01*
X2411915Y559656D01*
X2414205Y558334D01*
X2416758Y557650D01*
X2419402D01*
X2421955Y558334D01*
X2424245Y559656D01*
X2426114Y561525D01*
X2427436Y563815D01*
X2428120Y566368D01*
Y569012D01*
X2427436Y571565D01*
X2426114Y573855D01*
X2424245Y575724D01*
X2421955Y577046D01*
X2419402Y577730D01*
D02*
G37*
G36*
X2197152Y571380D02*
X2194508D01*
X2191955Y570696D01*
X2189665Y569374D01*
X2187796Y567505D01*
X2186474Y565215D01*
X2185790Y562662D01*
Y560018D01*
X2186474Y557465D01*
X2187796Y555175D01*
X2189665Y553306D01*
X2191955Y551984D01*
X2194508Y551300D01*
X2197152D01*
X2199705Y551984D01*
X2201995Y553306D01*
X2203864Y555175D01*
X2205186Y557465D01*
X2205870Y560018D01*
Y562662D01*
X2205186Y565215D01*
X2203864Y567505D01*
X2201995Y569374D01*
X2199705Y570696D01*
X2197152Y571380D01*
D02*
G37*
G36*
X2951066Y541190D02*
X2948554D01*
X2946128Y540540D01*
X2943952Y539284D01*
X2942176Y537508D01*
X2940920Y535332D01*
X2940270Y532906D01*
Y530394D01*
X2940920Y527968D01*
X2942176Y525792D01*
X2943952Y524016D01*
X2946128Y522760D01*
X2948554Y522110D01*
X2951066D01*
X2953492Y522760D01*
X2955668Y524016D01*
X2957444Y525792D01*
X2958700Y527968D01*
X2959350Y530394D01*
Y532906D01*
X2958700Y535332D01*
X2957444Y537508D01*
X2955668Y539284D01*
X2953492Y540540D01*
X2951066Y541190D01*
D02*
G37*
G36*
X2926066D02*
X2923554D01*
X2921128Y540540D01*
X2918952Y539284D01*
X2917176Y537508D01*
X2915920Y535332D01*
X2915270Y532906D01*
Y530394D01*
X2915920Y527968D01*
X2917176Y525792D01*
X2918952Y524016D01*
X2921128Y522760D01*
X2923554Y522110D01*
X2926066D01*
X2928492Y522760D01*
X2930668Y524016D01*
X2932444Y525792D01*
X2933700Y527968D01*
X2934350Y530394D01*
Y532906D01*
X2933700Y535332D01*
X2932444Y537508D01*
X2930668Y539284D01*
X2928492Y540540D01*
X2926066Y541190D01*
D02*
G37*
G36*
X2901066D02*
X2898554D01*
X2896128Y540540D01*
X2893952Y539284D01*
X2892176Y537508D01*
X2890920Y535332D01*
X2890270Y532906D01*
Y530394D01*
X2890920Y527968D01*
X2892176Y525792D01*
X2893952Y524016D01*
X2896128Y522760D01*
X2898554Y522110D01*
X2901066D01*
X2903492Y522760D01*
X2905668Y524016D01*
X2907444Y525792D01*
X2908700Y527968D01*
X2909350Y530394D01*
Y532906D01*
X2908700Y535332D01*
X2907444Y537508D01*
X2905668Y539284D01*
X2903492Y540540D01*
X2901066Y541190D01*
D02*
G37*
G36*
X3096275Y518205D02*
X3075525D01*
Y497455D01*
X3096275D01*
Y518205D01*
D02*
G37*
G36*
X3062266D02*
X3059534D01*
X3056895Y517498D01*
X3054530Y516132D01*
X3052598Y514200D01*
X3051232Y511835D01*
X3050525Y509196D01*
Y506464D01*
X3051232Y503825D01*
X3052598Y501460D01*
X3054530Y499528D01*
X3056895Y498162D01*
X3059534Y497455D01*
X3062266D01*
X3064904Y498162D01*
X3067271Y499528D01*
X3069202Y501460D01*
X3070568Y503825D01*
X3071275Y506464D01*
Y509196D01*
X3070568Y511835D01*
X3069202Y514200D01*
X3067271Y516132D01*
X3064904Y517498D01*
X3062266Y518205D01*
D02*
G37*
G36*
X2848505Y507960D02*
X2846175D01*
X2843924Y507357D01*
X2841906Y506192D01*
X2840258Y504544D01*
X2839093Y502526D01*
X2838490Y500275D01*
Y497945D01*
X2838819Y496717D01*
X2803565Y461463D01*
X2790070D01*
Y467170D01*
X2769990D01*
Y447090D01*
X2790070D01*
Y452797D01*
X2805360D01*
X2807018Y453127D01*
X2808424Y454066D01*
X2844947Y490589D01*
X2846175Y490260D01*
X2848505D01*
X2850756Y490863D01*
X2852774Y492028D01*
X2854422Y493676D01*
X2855587Y495694D01*
X2856190Y497945D01*
Y500275D01*
X2855587Y502526D01*
X2854422Y504544D01*
X2852774Y506192D01*
X2850756Y507357D01*
X2848505Y507960D01*
D02*
G37*
G36*
X3223427Y535116D02*
X3218995D01*
X3214648Y534251D01*
X3210554Y532555D01*
X3206868Y530093D01*
X3203734Y526959D01*
X3201272Y523274D01*
X3199576Y519179D01*
X3198712Y514832D01*
Y510400D01*
X3199576Y506053D01*
X3201272Y501958D01*
X3203734Y498273D01*
X3206868Y495139D01*
X3210554Y492677D01*
X3214648Y490980D01*
X3218995Y490116D01*
X3223427D01*
X3227774Y490980D01*
X3231869Y492677D01*
X3235554Y495139D01*
X3238688Y498273D01*
X3241151Y501958D01*
X3242847Y506053D01*
X3243711Y510400D01*
Y514832D01*
X3242847Y519179D01*
X3241151Y523274D01*
X3238688Y526959D01*
X3235554Y530093D01*
X3231869Y532555D01*
X3227774Y534251D01*
X3223427Y535116D01*
D02*
G37*
G36*
X2781190Y490940D02*
X2780665D01*
Y482765D01*
X2788840D01*
Y483290D01*
X2788240Y485531D01*
X2787080Y487539D01*
X2785439Y489180D01*
X2783430Y490340D01*
X2781190Y490940D01*
D02*
G37*
G36*
X2779395D02*
X2778870D01*
X2776630Y490340D01*
X2774620Y489180D01*
X2772980Y487539D01*
X2771820Y485531D01*
X2771220Y483290D01*
Y482765D01*
X2779395D01*
Y490940D01*
D02*
G37*
G36*
X2788840Y481495D02*
X2780665D01*
Y473320D01*
X2781190D01*
X2783430Y473920D01*
X2785439Y475080D01*
X2787080Y476721D01*
X2788240Y478730D01*
X2788840Y480970D01*
Y481495D01*
D02*
G37*
G36*
X2779395D02*
X2771220D01*
Y480970D01*
X2771820Y478730D01*
X2772980Y476721D01*
X2774620Y475080D01*
X2776630Y473920D01*
X2778870Y473320D01*
X2779395D01*
Y481495D01*
D02*
G37*
G36*
X2950904Y479960D02*
X2950445D01*
Y472285D01*
X2958120D01*
Y472744D01*
X2957554Y474857D01*
X2956460Y476753D01*
X2954912Y478300D01*
X2953018Y479394D01*
X2950904Y479960D01*
D02*
G37*
G36*
X2949175D02*
X2948716D01*
X2946602Y479394D01*
X2944708Y478300D01*
X2943160Y476753D01*
X2942066Y474857D01*
X2941500Y472744D01*
Y472285D01*
X2949175D01*
Y479960D01*
D02*
G37*
G36*
X2251555Y473075D02*
X2245995D01*
Y467515D01*
X2246592D01*
X2248869Y468458D01*
X2250612Y470201D01*
X2251555Y472478D01*
Y473075D01*
D02*
G37*
G36*
X2958120Y471015D02*
X2950445D01*
Y463340D01*
X2950904D01*
X2953018Y463906D01*
X2954912Y465000D01*
X2956460Y466548D01*
X2957554Y468442D01*
X2958120Y470556D01*
Y471015D01*
D02*
G37*
G36*
X2949175D02*
X2941500D01*
Y470556D01*
X2942066Y468442D01*
X2943160Y466548D01*
X2944708Y465000D01*
X2946602Y463906D01*
X2948716Y463340D01*
X2949175D01*
Y471015D01*
D02*
G37*
G36*
X2926066Y481190D02*
X2923554D01*
X2921128Y480540D01*
X2918952Y479284D01*
X2917176Y477508D01*
X2915920Y475332D01*
X2915270Y472906D01*
Y470394D01*
X2915920Y467968D01*
X2917176Y465792D01*
X2918952Y464016D01*
X2921128Y462760D01*
X2923554Y462110D01*
X2926066D01*
X2928492Y462760D01*
X2930668Y464016D01*
X2932444Y465792D01*
X2933700Y467968D01*
X2934350Y470394D01*
Y472906D01*
X2933700Y475332D01*
X2932444Y477508D01*
X2930668Y479284D01*
X2928492Y480540D01*
X2926066Y481190D01*
D02*
G37*
G36*
X2909350D02*
X2890270D01*
Y462110D01*
X2909350D01*
Y481190D01*
D02*
G37*
G36*
X2511955Y443190D02*
X2509625D01*
X2507374Y442587D01*
X2505356Y441422D01*
X2503708Y439774D01*
X2502926Y438418D01*
X2462530D01*
X2460969Y438108D01*
X2459646Y437224D01*
X2459646Y437224D01*
X2447129Y424706D01*
X2444802Y425330D01*
X2442158D01*
X2439605Y424646D01*
X2437315Y423324D01*
X2435446Y421455D01*
X2434124Y419165D01*
X2433440Y416612D01*
Y413968D01*
X2434124Y411415D01*
X2435446Y409125D01*
X2437315Y407256D01*
X2439605Y405934D01*
X2442158Y405250D01*
X2444802D01*
X2447355Y405934D01*
X2449645Y407256D01*
X2451514Y409125D01*
X2452836Y411415D01*
X2453520Y413968D01*
Y416612D01*
X2452897Y418939D01*
X2464219Y430262D01*
X2502926D01*
X2503708Y428906D01*
X2505356Y427258D01*
X2507374Y426093D01*
X2509625Y425490D01*
X2511955D01*
X2514206Y426093D01*
X2516224Y427258D01*
X2517872Y428906D01*
X2519037Y430924D01*
X2519640Y433175D01*
Y435505D01*
X2519037Y437756D01*
X2517872Y439774D01*
X2516224Y441422D01*
X2514206Y442587D01*
X2511955Y443190D01*
D02*
G37*
G36*
X2546240Y424100D02*
X2545715D01*
Y415925D01*
X2553890D01*
Y416450D01*
X2553290Y418690D01*
X2552130Y420700D01*
X2550490Y422340D01*
X2548481Y423500D01*
X2546240Y424100D01*
D02*
G37*
G36*
X2520840D02*
X2520315D01*
Y415925D01*
X2528490D01*
Y416450D01*
X2527890Y418690D01*
X2526730Y420700D01*
X2525090Y422340D01*
X2523080Y423500D01*
X2520840Y424100D01*
D02*
G37*
G36*
X2495440D02*
X2494915D01*
Y415925D01*
X2503090D01*
Y416450D01*
X2502490Y418690D01*
X2501330Y420700D01*
X2499689Y422340D01*
X2497681Y423500D01*
X2495440Y424100D01*
D02*
G37*
G36*
X2393840D02*
X2393315D01*
Y415925D01*
X2401490D01*
Y416450D01*
X2400890Y418690D01*
X2399730Y420700D01*
X2398089Y422340D01*
X2396080Y423500D01*
X2393840Y424100D01*
D02*
G37*
G36*
X2544445D02*
X2543920D01*
X2541680Y423500D01*
X2539671Y422340D01*
X2538030Y420700D01*
X2536870Y418690D01*
X2536270Y416450D01*
Y415925D01*
X2544445D01*
Y424100D01*
D02*
G37*
G36*
X2519045D02*
X2518520D01*
X2516279Y423500D01*
X2514270Y422340D01*
X2512630Y420700D01*
X2511470Y418690D01*
X2510870Y416450D01*
Y415925D01*
X2519045D01*
Y424100D01*
D02*
G37*
G36*
X2493645D02*
X2493120D01*
X2490880Y423500D01*
X2488871Y422340D01*
X2487230Y420700D01*
X2486070Y418690D01*
X2485470Y416450D01*
Y415925D01*
X2493645D01*
Y424100D01*
D02*
G37*
G36*
X2392045D02*
X2391520D01*
X2389279Y423500D01*
X2387271Y422340D01*
X2385630Y420700D01*
X2384470Y418690D01*
X2383870Y416450D01*
Y415925D01*
X2392045D01*
Y424100D01*
D02*
G37*
G36*
X2553890Y414655D02*
X2545715D01*
Y406480D01*
X2546240D01*
X2548481Y407080D01*
X2550490Y408240D01*
X2552130Y409880D01*
X2553290Y411889D01*
X2553890Y414130D01*
Y414655D01*
D02*
G37*
G36*
X2544445D02*
X2536270D01*
Y414130D01*
X2536870Y411889D01*
X2538030Y409880D01*
X2539671Y408240D01*
X2541680Y407080D01*
X2543920Y406480D01*
X2544445D01*
Y414655D01*
D02*
G37*
G36*
X2528490D02*
X2520315D01*
Y406480D01*
X2520840D01*
X2523080Y407080D01*
X2525090Y408240D01*
X2526730Y409880D01*
X2527890Y411889D01*
X2528490Y414130D01*
Y414655D01*
D02*
G37*
G36*
X2519045D02*
X2510870D01*
Y414130D01*
X2511470Y411889D01*
X2512630Y409880D01*
X2514270Y408240D01*
X2516279Y407080D01*
X2518520Y406480D01*
X2519045D01*
Y414655D01*
D02*
G37*
G36*
X2503090D02*
X2494915D01*
Y406480D01*
X2495440D01*
X2497681Y407080D01*
X2499689Y408240D01*
X2501330Y409880D01*
X2502490Y411889D01*
X2503090Y414130D01*
Y414655D01*
D02*
G37*
G36*
X2493645D02*
X2485470D01*
Y414130D01*
X2486070Y411889D01*
X2487230Y409880D01*
X2488871Y408240D01*
X2490880Y407080D01*
X2493120Y406480D01*
X2493645D01*
Y414655D01*
D02*
G37*
G36*
X2401490D02*
X2393315D01*
Y406480D01*
X2393840D01*
X2396080Y407080D01*
X2398089Y408240D01*
X2399730Y409880D01*
X2400890Y411889D01*
X2401490Y414130D01*
Y414655D01*
D02*
G37*
G36*
X2392045D02*
X2383870D01*
Y414130D01*
X2384470Y411889D01*
X2385630Y409880D01*
X2387271Y408240D01*
X2389279Y407080D01*
X2391520Y406480D01*
X2392045D01*
Y414655D01*
D02*
G37*
G36*
X2470202Y425330D02*
X2467558D01*
X2465005Y424646D01*
X2462715Y423324D01*
X2460846Y421455D01*
X2459524Y419165D01*
X2458840Y416612D01*
Y413968D01*
X2459524Y411415D01*
X2460846Y409125D01*
X2462715Y407256D01*
X2465005Y405934D01*
X2467558Y405250D01*
X2470202D01*
X2472755Y405934D01*
X2475045Y407256D01*
X2476914Y409125D01*
X2478236Y411415D01*
X2478920Y413968D01*
Y416612D01*
X2478236Y419165D01*
X2476914Y421455D01*
X2475045Y423324D01*
X2472755Y424646D01*
X2470202Y425330D01*
D02*
G37*
G36*
X2377320D02*
X2357240D01*
Y405250D01*
X2377320D01*
Y425330D01*
D02*
G37*
%LPD*%
G36*
X2674130Y1192638D02*
X2674006Y1192515D01*
X2672684Y1190225D01*
X2672000Y1187672D01*
Y1185028D01*
X2672684Y1182475D01*
X2674006Y1180185D01*
X2675875Y1178316D01*
X2678165Y1176994D01*
X2680718Y1176310D01*
X2683362D01*
X2685689Y1176934D01*
X2722411Y1140212D01*
X2721925Y1139038D01*
X2710119D01*
X2666457Y1182701D01*
X2667080Y1185028D01*
Y1187672D01*
X2666396Y1190225D01*
X2665074Y1192515D01*
X2664950Y1192638D01*
X2665436Y1193812D01*
X2673643D01*
X2674130Y1192638D01*
D02*
G37*
G36*
X2069010Y1130238D02*
X2068886Y1130115D01*
X2067564Y1127825D01*
X2066880Y1125272D01*
Y1122628D01*
X2067564Y1120075D01*
X2068886Y1117785D01*
X2070755Y1115916D01*
X2073045Y1114594D01*
X2075598Y1113910D01*
X2078242D01*
X2080569Y1114533D01*
X2084782Y1110321D01*
Y1038903D01*
X2083512Y1038377D01*
X2082615Y1039274D01*
X2080325Y1040596D01*
X2077772Y1041280D01*
X2075128D01*
X2072575Y1040596D01*
X2070285Y1039274D01*
X2068416Y1037405D01*
X2067094Y1035115D01*
X2066410Y1032562D01*
Y1029918D01*
X2067094Y1027365D01*
X2068416Y1025075D01*
X2070285Y1023206D01*
X2072575Y1021884D01*
X2075128Y1021200D01*
X2077772D01*
X2080325Y1021884D01*
X2082615Y1023206D01*
X2083512Y1024103D01*
X2084782Y1023577D01*
Y945656D01*
X2083608Y945170D01*
X2083485Y945294D01*
X2081195Y946616D01*
X2078642Y947300D01*
X2075998D01*
X2073445Y946616D01*
X2071155Y945294D01*
X2069286Y943425D01*
X2067964Y941135D01*
X2067280Y938582D01*
Y935938D01*
X2067964Y933385D01*
X2069286Y931095D01*
X2071155Y929226D01*
X2073445Y927904D01*
X2075998Y927220D01*
X2078642D01*
X2081195Y927904D01*
X2083485Y929226D01*
X2083608Y929350D01*
X2084782Y928864D01*
Y872799D01*
X2062496Y850514D01*
X2062275Y850183D01*
X2060907Y850132D01*
X2060763Y850206D01*
X2059200Y851770D01*
X2057388Y852815D01*
Y930013D01*
X2057729Y930210D01*
X2059370Y931851D01*
X2060530Y933859D01*
X2061130Y936100D01*
Y936625D01*
X2052320D01*
X2043510D01*
Y936100D01*
X2044110Y933859D01*
X2045270Y931851D01*
X2046911Y930210D01*
X2048722Y929165D01*
Y851967D01*
X2048380Y851770D01*
X2046740Y850129D01*
X2045580Y848120D01*
X2044980Y845880D01*
Y845355D01*
X2053790D01*
Y844085D01*
X2044980D01*
Y843560D01*
X2045580Y841320D01*
X2046740Y839311D01*
X2048380Y837670D01*
X2048922Y837358D01*
Y762360D01*
X2047310Y761430D01*
X2045670Y759790D01*
X2044510Y757781D01*
X2043910Y755540D01*
Y755015D01*
X2052720D01*
Y753745D01*
X2043910D01*
Y753220D01*
X2044510Y750980D01*
X2045670Y748970D01*
X2047310Y747330D01*
X2048387Y746709D01*
Y671881D01*
X2047310Y671260D01*
X2045670Y669620D01*
X2045258Y668906D01*
X2043988Y669246D01*
Y708410D01*
X2043678Y709971D01*
X2042794Y711294D01*
X2042794Y711294D01*
X2015568Y738519D01*
Y812502D01*
X2016838Y813089D01*
X2018424Y812173D01*
X2020675Y811570D01*
X2023005D01*
X2025256Y812173D01*
X2027274Y813338D01*
X2028922Y814986D01*
X2030087Y817004D01*
X2030690Y819255D01*
Y821585D01*
X2030087Y823836D01*
X2028922Y825854D01*
X2027274Y827502D01*
X2026173Y828137D01*
Y830279D01*
X2027003Y831522D01*
X2027333Y833180D01*
Y834680D01*
X2038830D01*
Y854760D01*
X2018750D01*
Y839349D01*
X2018667Y838930D01*
Y834921D01*
X2017837Y833678D01*
X2017507Y832020D01*
Y828757D01*
X2016838Y828342D01*
X2015568Y829007D01*
Y847075D01*
X2015638Y847179D01*
X2015948Y848740D01*
X2015948Y848740D01*
Y958581D01*
X2042794Y985426D01*
X2042794Y985426D01*
X2043678Y986749D01*
X2043988Y988310D01*
X2043988Y988310D01*
Y1024446D01*
X2045258Y1024972D01*
X2046040Y1024190D01*
X2047552Y1023318D01*
Y944680D01*
X2046911Y944310D01*
X2045270Y942670D01*
X2044110Y940660D01*
X2043510Y938420D01*
Y937895D01*
X2052320D01*
X2061130D01*
Y938420D01*
X2060530Y940660D01*
X2059370Y942670D01*
X2057729Y944310D01*
X2056218Y945182D01*
Y1023820D01*
X2056859Y1024190D01*
X2058500Y1025831D01*
X2059660Y1027840D01*
X2060260Y1030080D01*
Y1030605D01*
X2051450D01*
Y1031875D01*
X2060260D01*
Y1032400D01*
X2059660Y1034641D01*
X2058500Y1036649D01*
X2056859Y1038290D01*
X2056018Y1038775D01*
Y1116143D01*
X2057330Y1116900D01*
X2058970Y1118540D01*
X2060130Y1120549D01*
X2060730Y1122790D01*
Y1123315D01*
X2051920D01*
Y1124585D01*
X2060730D01*
Y1125110D01*
X2060130Y1127350D01*
X2058970Y1129360D01*
X2058523Y1129806D01*
X2059009Y1130979D01*
X2059617D01*
X2059618Y1130979D01*
X2061178Y1131290D01*
X2061361Y1131412D01*
X2068524D01*
X2069010Y1130238D01*
D02*
G37*
G36*
X2835639Y1173867D02*
X2801276Y1139504D01*
X2800392Y1138181D01*
X2800081Y1136620D01*
X2800081Y1136620D01*
Y1123432D01*
X2798456Y1122494D01*
X2796726Y1120764D01*
X2795503Y1118646D01*
X2794870Y1116283D01*
Y1113837D01*
X2795503Y1111474D01*
X2796575Y1109618D01*
X2796112Y1108348D01*
X2786808D01*
X2786346Y1109618D01*
X2787417Y1111474D01*
X2788050Y1113837D01*
Y1116283D01*
X2787417Y1118646D01*
X2786194Y1120764D01*
X2784464Y1122494D01*
X2782838Y1123432D01*
Y1134531D01*
X2823348Y1175040D01*
X2835153D01*
X2835639Y1173867D01*
D02*
G37*
G36*
X2440290Y1092176D02*
X2440290Y1092176D01*
X2441613Y1091292D01*
X2443174Y1090982D01*
X2467855D01*
X2468341Y1089808D01*
X2460841Y1082308D01*
X2430606D01*
X2430120Y1083482D01*
X2430594Y1083956D01*
X2431817Y1086074D01*
X2432450Y1088437D01*
Y1090883D01*
X2431817Y1093246D01*
X2430745Y1095102D01*
X2431208Y1096372D01*
X2436094D01*
X2440290Y1092176D01*
D02*
G37*
G36*
X2419574Y1072917D02*
X2417456Y1071694D01*
X2415726Y1069964D01*
X2414503Y1067846D01*
X2413870Y1065483D01*
Y1063037D01*
X2414503Y1060674D01*
X2415575Y1058818D01*
X2415112Y1057548D01*
X2405808D01*
X2405345Y1058818D01*
X2406417Y1060674D01*
X2407050Y1063037D01*
Y1065483D01*
X2406417Y1067846D01*
X2405194Y1069964D01*
X2403464Y1071694D01*
X2401346Y1072917D01*
X2401645Y1074152D01*
X2419275D01*
X2419574Y1072917D01*
D02*
G37*
G36*
X2046510Y1116900D02*
X2047352Y1116415D01*
Y1039047D01*
X2046040Y1038290D01*
X2045258Y1037508D01*
X2043988Y1038034D01*
Y1117626D01*
X2045258Y1118152D01*
X2046510Y1116900D01*
D02*
G37*
G36*
X2094286Y931095D02*
X2096155Y929226D01*
X2098242Y928021D01*
Y922147D01*
X2098242Y922147D01*
X2098552Y920586D01*
X2099436Y919263D01*
X2101194Y917506D01*
X2101194Y917506D01*
X2102517Y916622D01*
X2103608Y916405D01*
X2104157Y915645D01*
X2104278Y915409D01*
X2104360Y915041D01*
X2103820Y913025D01*
Y910695D01*
X2104423Y908444D01*
X2105588Y906426D01*
X2107236Y904778D01*
X2109254Y903613D01*
X2111505Y903010D01*
X2113835D01*
X2114827Y903276D01*
X2126982Y891121D01*
Y828955D01*
X2125808Y828469D01*
X2113206Y841071D01*
X2113830Y843398D01*
Y846042D01*
X2113146Y848595D01*
X2111824Y850885D01*
X2109955Y852754D01*
X2107665Y854076D01*
X2105112Y854760D01*
X2102468D01*
X2099915Y854076D01*
X2097625Y852754D01*
X2095756Y850885D01*
X2094434Y848595D01*
X2093750Y846042D01*
Y843398D01*
X2094434Y840845D01*
X2095756Y838555D01*
X2097625Y836686D01*
X2099915Y835364D01*
X2102468Y834680D01*
X2105112D01*
X2107439Y835303D01*
X2177611Y765132D01*
X2177125Y763958D01*
X2165319D01*
X2088206Y841071D01*
X2088830Y843398D01*
Y846042D01*
X2088146Y848595D01*
X2086824Y850885D01*
X2084955Y852754D01*
X2082665Y854076D01*
X2080112Y854760D01*
X2079937D01*
X2079451Y855933D01*
X2091744Y868226D01*
X2091744Y868226D01*
X2092628Y869549D01*
X2092938Y871110D01*
Y930890D01*
X2094208Y931230D01*
X2094286Y931095D01*
D02*
G37*
G36*
X2061302Y837976D02*
Y759676D01*
X2060032Y759336D01*
X2059770Y759790D01*
X2058129Y761430D01*
X2057588Y761742D01*
Y836740D01*
X2059200Y837670D01*
X2060032Y838502D01*
X2061302Y837976D01*
D02*
G37*
G36*
X2070756Y838555D02*
X2072625Y836686D01*
X2074915Y835364D01*
X2077468Y834680D01*
X2080112D01*
X2082439Y835303D01*
X2158111Y759632D01*
X2157625Y758458D01*
X2111959D01*
X2110754Y760545D01*
X2108885Y762414D01*
X2106595Y763736D01*
X2104042Y764420D01*
X2101398D01*
X2098845Y763736D01*
X2096555Y762414D01*
X2096437Y762295D01*
X2095263Y762781D01*
Y790555D01*
X2094933Y792214D01*
X2093994Y793619D01*
X2091290Y796323D01*
X2091650Y797665D01*
Y799995D01*
X2091047Y802246D01*
X2089882Y804264D01*
X2088234Y805912D01*
X2086216Y807077D01*
X2083965Y807680D01*
X2081635D01*
X2079384Y807077D01*
X2077366Y805912D01*
X2075718Y804264D01*
X2074553Y802246D01*
X2073950Y799995D01*
Y797665D01*
X2074553Y795414D01*
X2075718Y793396D01*
X2077366Y791748D01*
X2079384Y790583D01*
X2081635Y789980D01*
X2083965D01*
X2085079Y790278D01*
X2086597Y788760D01*
Y761498D01*
X2085327Y760972D01*
X2083885Y762414D01*
X2081595Y763736D01*
X2079042Y764420D01*
X2076398D01*
X2073845Y763736D01*
X2071555Y762414D01*
X2070728Y761587D01*
X2069458Y762113D01*
Y838350D01*
X2070685Y838678D01*
X2070756Y838555D01*
D02*
G37*
G36*
X2353052Y705849D02*
Y676725D01*
X2351952Y676090D01*
X2351646Y676267D01*
X2349395Y676870D01*
X2347065D01*
X2344814Y676267D01*
X2343798Y675680D01*
X2340878Y678599D01*
Y716363D01*
X2342052Y716849D01*
X2353052Y705849D01*
D02*
G37*
G36*
X2061302Y749084D02*
Y669506D01*
X2060032Y669166D01*
X2059770Y669620D01*
X2058129Y671260D01*
X2057053Y671881D01*
Y746709D01*
X2058129Y747330D01*
X2059770Y748970D01*
X2060032Y749424D01*
X2061302Y749084D01*
D02*
G37*
G36*
X2339380Y668562D02*
Y666855D01*
X2339983Y664604D01*
X2341148Y662586D01*
X2342796Y660938D01*
X2344814Y659773D01*
X2347065Y659170D01*
X2349395D01*
X2351646Y659773D01*
X2353664Y660938D01*
X2355312Y662586D01*
X2356477Y664604D01*
X2356951Y666373D01*
X2358263Y666856D01*
X2368059Y657060D01*
Y641235D01*
X2366789Y640649D01*
X2365203Y641564D01*
X2362953Y642167D01*
X2360622D01*
X2360327Y642088D01*
X2358965Y643450D01*
Y643583D01*
X2358965Y643583D01*
X2358655Y645144D01*
X2357771Y646467D01*
X2352726Y651512D01*
X2351403Y652396D01*
X2349842Y652706D01*
X2349842Y652706D01*
X2345181D01*
X2335378Y662509D01*
Y670905D01*
X2336552Y671391D01*
X2339380Y668562D01*
D02*
G37*
G36*
X2395384Y656831D02*
X2395384Y656831D01*
X2396707Y655947D01*
X2398268Y655637D01*
X2398268Y655637D01*
X2612675D01*
X2625415Y642897D01*
X2624844Y641672D01*
X2622774Y641117D01*
X2620656Y639894D01*
X2618926Y638164D01*
X2617703Y636046D01*
X2617070Y633683D01*
Y631237D01*
X2617703Y628874D01*
X2618926Y626756D01*
X2620656Y625026D01*
X2622774Y623803D01*
X2625137Y623170D01*
X2627583D01*
X2629946Y623803D01*
X2632064Y625026D01*
X2633794Y626756D01*
X2635017Y628874D01*
X2635572Y630944D01*
X2636797Y631515D01*
X2654142Y614170D01*
Y576086D01*
X2652968Y575600D01*
X2652845Y575724D01*
X2650555Y577046D01*
X2648002Y577730D01*
X2645358D01*
X2643031Y577107D01*
X2597750Y622388D01*
X2598408Y623526D01*
X2599737Y623170D01*
X2602183D01*
X2604546Y623803D01*
X2606664Y625026D01*
X2608394Y626756D01*
X2609617Y628874D01*
X2610250Y631237D01*
Y633683D01*
X2609617Y636046D01*
X2608394Y638164D01*
X2606664Y639894D01*
X2604546Y641117D01*
X2602183Y641750D01*
X2599737D01*
X2597374Y641117D01*
X2595256Y639894D01*
X2593526Y638164D01*
X2592303Y636046D01*
X2591670Y633683D01*
Y631237D01*
X2592303Y628874D01*
X2593446Y626895D01*
X2593260Y626408D01*
X2592747Y625739D01*
X2592700Y625748D01*
X2592700Y625748D01*
X2583608D01*
X2583145Y627018D01*
X2584217Y628874D01*
X2584850Y631237D01*
Y633683D01*
X2584217Y636046D01*
X2582994Y638164D01*
X2581264Y639894D01*
X2579146Y641117D01*
X2576783Y641750D01*
X2574337D01*
X2571974Y641117D01*
X2569856Y639894D01*
X2568126Y638164D01*
X2566903Y636046D01*
X2566270Y633683D01*
Y631237D01*
X2566903Y628874D01*
X2567975Y627018D01*
X2567512Y625748D01*
X2558208D01*
X2557745Y627018D01*
X2558817Y628874D01*
X2559450Y631237D01*
Y633683D01*
X2558817Y636046D01*
X2557594Y638164D01*
X2555864Y639894D01*
X2553746Y641117D01*
X2551383Y641750D01*
X2548937D01*
X2546574Y641117D01*
X2544456Y639894D01*
X2542726Y638164D01*
X2541503Y636046D01*
X2540870Y633683D01*
Y631237D01*
X2541503Y628874D01*
X2542575Y627018D01*
X2542112Y625748D01*
X2532808D01*
X2532345Y627018D01*
X2533417Y628874D01*
X2534050Y631237D01*
Y633683D01*
X2533417Y636046D01*
X2532194Y638164D01*
X2530464Y639894D01*
X2528346Y641117D01*
X2525983Y641750D01*
X2523537D01*
X2521174Y641117D01*
X2519056Y639894D01*
X2517326Y638164D01*
X2516103Y636046D01*
X2515470Y633683D01*
Y631237D01*
X2516103Y628874D01*
X2517175Y627018D01*
X2516712Y625748D01*
X2507408D01*
X2506945Y627018D01*
X2508017Y628874D01*
X2508650Y631237D01*
Y633683D01*
X2508017Y636046D01*
X2506794Y638164D01*
X2505064Y639894D01*
X2502946Y641117D01*
X2500583Y641750D01*
X2498137D01*
X2495774Y641117D01*
X2493656Y639894D01*
X2491926Y638164D01*
X2490703Y636046D01*
X2490070Y633683D01*
Y631237D01*
X2490703Y628874D01*
X2491174Y628059D01*
X2490538Y626960D01*
X2482782D01*
X2482146Y628059D01*
X2482617Y628874D01*
X2483250Y631237D01*
Y633683D01*
X2482617Y636046D01*
X2481394Y638164D01*
X2479664Y639894D01*
X2477546Y641117D01*
X2475183Y641750D01*
X2472737D01*
X2470374Y641117D01*
X2468256Y639894D01*
X2466526Y638164D01*
X2465303Y636046D01*
X2464670Y633683D01*
Y631237D01*
X2465303Y628874D01*
X2466526Y626756D01*
X2468256Y625026D01*
X2470374Y623803D01*
X2472444Y623248D01*
X2473015Y622023D01*
X2467570Y616578D01*
X2466300Y617104D01*
Y618546D01*
X2465697Y620797D01*
X2464532Y622815D01*
X2462884Y624463D01*
X2460866Y625628D01*
X2458615Y626231D01*
X2457157D01*
X2456424Y627501D01*
X2457217Y628874D01*
X2457850Y631237D01*
Y633683D01*
X2457217Y636046D01*
X2455994Y638164D01*
X2454264Y639894D01*
X2452146Y641117D01*
X2449783Y641750D01*
X2447337D01*
X2444974Y641117D01*
X2442856Y639894D01*
X2441126Y638164D01*
X2439903Y636046D01*
X2439270Y633683D01*
Y631237D01*
X2439903Y628874D01*
X2441126Y626756D01*
X2442856Y625026D01*
X2444974Y623803D01*
X2447337Y623170D01*
X2448164D01*
X2448906Y621900D01*
X2448658Y621460D01*
X2424611D01*
X2423050Y621149D01*
X2421727Y620265D01*
X2421727Y620265D01*
X2418000Y616538D01*
X2409418D01*
X2409050Y617754D01*
X2409553Y618090D01*
X2412130Y620667D01*
X2414155Y623697D01*
X2415549Y627064D01*
X2416260Y630638D01*
Y634282D01*
X2415549Y637856D01*
X2414155Y641223D01*
X2412130Y644253D01*
X2409553Y646830D01*
X2406523Y648855D01*
X2403156Y650249D01*
X2399582Y650960D01*
X2395938D01*
X2392364Y650249D01*
X2388997Y648855D01*
X2385967Y646830D01*
X2383390Y644253D01*
X2382931Y643566D01*
X2381716Y643935D01*
Y661028D01*
X2381716Y661028D01*
X2381405Y662589D01*
X2380521Y663912D01*
X2366708Y677725D01*
Y683847D01*
X2367882Y684333D01*
X2395384Y656831D01*
D02*
G37*
G36*
X2045670Y658801D02*
X2047310Y657160D01*
X2047987Y656770D01*
Y580672D01*
X2046510Y579820D01*
X2045258Y578568D01*
X2043988Y579094D01*
Y659174D01*
X2045258Y659514D01*
X2045670Y658801D01*
D02*
G37*
G36*
X2061302Y658914D02*
Y577236D01*
X2061080Y577065D01*
X2059424Y577393D01*
X2058970Y578180D01*
X2057330Y579820D01*
X2056653Y580210D01*
Y656308D01*
X2058129Y657160D01*
X2059770Y658801D01*
X2060032Y659254D01*
X2061302Y658914D01*
D02*
G37*
G36*
X2262674Y557465D02*
X2263996Y555175D01*
X2265865Y553306D01*
X2267697Y552249D01*
Y527575D01*
X2262232Y522110D01*
X2261058Y522596D01*
Y558588D01*
X2262328Y558755D01*
X2262674Y557465D01*
D02*
G37*
G36*
X2665462Y610628D02*
Y494274D01*
X2664106Y493492D01*
X2663568Y492954D01*
X2662298Y493480D01*
Y612132D01*
X2663472Y612618D01*
X2665462Y610628D01*
D02*
G37*
G36*
X2046510Y565720D02*
X2048519Y564560D01*
X2048857Y564470D01*
Y491208D01*
X2048268Y490760D01*
X2046998Y491388D01*
Y528830D01*
X2046688Y530391D01*
X2045804Y531714D01*
X2045804Y531714D01*
X2044968Y532549D01*
Y565603D01*
X2046142Y566089D01*
X2046510Y565720D01*
D02*
G37*
G36*
X2061302Y568304D02*
Y514270D01*
X2061302Y514270D01*
X2061612Y512709D01*
X2062496Y511386D01*
X2078799Y495083D01*
X2078313Y493910D01*
X2078138D01*
X2075585Y493226D01*
X2073295Y491904D01*
X2071426Y490035D01*
X2070104Y487745D01*
X2069420Y485192D01*
Y482548D01*
X2070104Y479995D01*
X2071426Y477705D01*
X2073295Y475836D01*
X2075585Y474514D01*
X2078138Y473830D01*
X2080782D01*
X2083335Y474514D01*
X2085625Y475836D01*
X2087150Y477361D01*
X2087566Y477691D01*
X2088806Y477437D01*
X2104341Y461901D01*
X2104341Y461901D01*
X2104892Y461533D01*
X2104507Y460263D01*
X2084195D01*
X2062948Y481510D01*
X2063270Y482710D01*
Y483235D01*
X2054460D01*
Y484505D01*
X2063270D01*
Y485030D01*
X2062670Y487271D01*
X2061510Y489280D01*
X2059870Y490920D01*
X2057861Y492080D01*
X2057523Y492170D01*
Y565914D01*
X2058970Y567360D01*
X2059424Y568147D01*
X2061080Y568475D01*
X2061302Y568304D01*
D02*
G37*
G36*
X2303936Y460008D02*
X2303410Y458738D01*
X2291499D01*
X2278185Y472053D01*
Y478557D01*
X2285388D01*
X2303936Y460008D01*
D02*
G37*
%LPC*%
G36*
X2037360Y947300D02*
X2017280D01*
Y927220D01*
X2037360D01*
Y947300D01*
D02*
G37*
G36*
X2037760Y764420D02*
X2017680D01*
Y744340D01*
X2037760D01*
Y764420D01*
D02*
G37*
%LPD*%
D35*
X2065380Y847630D02*
X2088860Y871110D01*
Y1112010D01*
X2065380Y514270D02*
Y847630D01*
X2076920Y1123950D02*
X2088860Y1112010D01*
X2039910Y568460D02*
Y708410D01*
Y568460D02*
X2040890Y567480D01*
X2011490Y736830D02*
X2039910Y708410D01*
X2011490Y848360D02*
X2011870Y848740D01*
X2011490Y736830D02*
Y848360D01*
X2065380Y514270D02*
X2091000Y488650D01*
X2163630Y759880D02*
X2182394D01*
X2078790Y844720D02*
X2163630Y759880D01*
X2189900Y767930D02*
X2296738D01*
X2112670Y911200D02*
X2131060Y892810D01*
X2103790Y844720D02*
X2183130Y765380D01*
X2184672D01*
X2116957Y922210D02*
X2136560Y902607D01*
X2192178Y773430D02*
X2299016D01*
X2131060Y826770D02*
Y892810D01*
Y826770D02*
X2189900Y767930D01*
X2136560Y829048D02*
Y902607D01*
Y829048D02*
X2192178Y773430D01*
X2294460Y762430D02*
X2336800Y720090D01*
X2288950Y751430D02*
X2325800Y714580D01*
X2187622Y762430D02*
X2294460D01*
X2184672Y765380D02*
X2187622Y762430D01*
X2291228Y756930D02*
X2331300Y716858D01*
X2180116Y754380D02*
X2183065Y751430D01*
X2102720Y754380D02*
X2180116D01*
X2185344Y756930D02*
X2291228D01*
X2182394Y759880D02*
X2185344Y756930D01*
X2183065Y751430D02*
X2288950D01*
X2299016Y773430D02*
X2362630Y709816D01*
X2296738Y767930D02*
X2357130Y707538D01*
X2748719Y1134960D02*
X2764150Y1119529D01*
X2708430Y1134960D02*
X2748719D01*
X2682040Y1186350D02*
X2727930Y1140460D01*
X2764790D01*
X2657040Y1186350D02*
X2708430Y1134960D01*
X2778760Y1136220D02*
X2827620Y1185080D01*
X2778760Y1115060D02*
Y1136220D01*
X2774290Y1104270D02*
X2844170D01*
X2764150Y1114411D02*
Y1119529D01*
Y1114411D02*
X2774290Y1104270D01*
X2844170D02*
X2854960Y1115060D01*
X2566931Y1197890D02*
X2695500D01*
X2488570Y1119529D02*
X2566931Y1197890D01*
X2695500D02*
X2707040Y1186350D01*
X2804160Y1115060D02*
Y1136620D01*
X2852620Y1185080D01*
X2488570Y1114086D02*
Y1119529D01*
X2469544Y1095060D02*
X2488570Y1114086D01*
X2443174Y1095060D02*
X2469544D01*
X2437784Y1100450D02*
X2443174Y1095060D01*
X2408550Y1100450D02*
X2437784D01*
X2397760Y1089660D02*
X2408550Y1100450D01*
X2310160Y467330D02*
X2399395D01*
X2412735Y480670D02*
X2512878D01*
X2399395Y467330D02*
X2412735Y480670D01*
X2307882Y461830D02*
X2402571D01*
X2289810Y454660D02*
X2437130D01*
X2270760Y473710D02*
X2289810Y454660D01*
X2279650Y497840D02*
X2310160Y467330D01*
X2287077Y482635D02*
X2307882Y461830D01*
X2402571D02*
X2415721Y474980D01*
X2510790D01*
X2570480Y415290D01*
X2467610Y464820D02*
X2481390D01*
X2481580Y464630D01*
X2512878Y480670D02*
X2566718Y426830D01*
X2418080Y415290D02*
X2467610Y464820D01*
X2236470Y674370D02*
X2256980Y653860D01*
Y520223D02*
Y653860D01*
X2234379Y497622D02*
X2256980Y520223D01*
X2231250Y497622D02*
X2234379D01*
X2194560Y473710D02*
X2207338D01*
X2231250Y497622D01*
X2191050Y649080D02*
X2236360D01*
X2236470Y648970D01*
X2449830Y678180D02*
Y976649D01*
X2424309Y1002170D02*
X2449830Y976649D01*
X2424309Y1002170D02*
Y1012311D01*
X2423160Y1013460D02*
X2424309Y1012311D01*
X2398268Y659715D02*
X2614364D01*
X2307283Y1017017D02*
X2368130Y956170D01*
X2614364Y659715D02*
X2658220Y615859D01*
X2368130Y689853D02*
X2398268Y659715D01*
X2616642Y665215D02*
X2669540Y612318D01*
X2400546Y665215D02*
X2616642D01*
X2373630Y692131D02*
X2400546Y665215D01*
X2307283Y1017017D02*
Y1019503D01*
X2307590Y1019810D02*
Y1037590D01*
X2307283Y1019503D02*
X2307590Y1019810D01*
X2462530Y1078230D02*
X2499360Y1115060D01*
X2376170Y1078230D02*
X2462530D01*
X2316480Y1057200D02*
X2371486D01*
X2375216Y1053470D01*
X2316480Y1057200D02*
X2373630Y1000050D01*
Y692131D02*
Y1000050D01*
X2377637Y624298D02*
X2389476Y612460D01*
X2372137Y622020D02*
X2387198Y606960D01*
X2669540Y486410D02*
Y612318D01*
X2372137Y622020D02*
Y658750D01*
X2357130Y673757D02*
X2372137Y658750D01*
X2357130Y673757D02*
Y707538D01*
X2377637Y624298D02*
Y661028D01*
X2362630Y676035D02*
Y709816D01*
X2368130Y689853D02*
Y956170D01*
X2362630Y676035D02*
X2377637Y661028D01*
X2658220Y481563D02*
Y615859D01*
X2627507Y450850D02*
X2658220Y481563D01*
X2462530Y434340D02*
X2510790D01*
X2443480Y415290D02*
X2462530Y434340D01*
X2616200Y450850D02*
X2627507D01*
X2424611Y617381D02*
X2457450D01*
X2419690Y612460D02*
X2424611Y617381D01*
X2389476Y612460D02*
X2419690D01*
X2387198Y606960D02*
X2463719D01*
X2379008Y601460D02*
X2465997D01*
X2463719Y606960D02*
X2479641Y622881D01*
X2465997Y601460D02*
X2481919Y617381D01*
X2325800Y654668D02*
X2379008Y601460D01*
X2354887Y641761D02*
Y643583D01*
X2325800Y654668D02*
Y714580D01*
X2361787Y633317D02*
Y634860D01*
X2354887Y641761D02*
X2361787Y634860D01*
X2349842Y648628D02*
X2354887Y643583D01*
X2345690Y668020D02*
X2348230D01*
X2338656Y621714D02*
X2392680Y567690D01*
X2336800Y676910D02*
X2345690Y668020D01*
X2329766Y621714D02*
X2338656D01*
X2327910Y623570D02*
X2329766Y621714D01*
X2343492Y648628D02*
X2349842D01*
X2375216Y1053470D02*
X2463170D01*
X2524760Y1115060D01*
X2011870Y848740D02*
Y960270D01*
X2039910Y988310D01*
X2108383Y922210D02*
X2116957D01*
X2112670Y911200D02*
Y911860D01*
X2106563Y920390D02*
X2108383Y922210D01*
X2102320Y922147D02*
X2104077Y920390D01*
X2106563D01*
X2102320Y922147D02*
Y937260D01*
X2060050Y1135490D02*
X2090380D01*
X2056700D02*
X2057132Y1135058D01*
X2059618D02*
X2060050Y1135490D01*
X2090380D02*
X2101920Y1123950D01*
X2047140Y1135490D02*
X2056700D01*
X2057132Y1135058D02*
X2059618D01*
X2039910Y988310D02*
Y1128260D01*
X2040890Y530860D02*
Y567480D01*
Y530860D02*
X2042920Y528830D01*
X2039910Y1128260D02*
X2047140Y1135490D01*
X2042920Y479090D02*
Y528830D01*
Y479090D02*
X2079570Y442440D01*
X2089940D01*
X2090420Y441960D01*
X2107225Y464785D02*
X2223657D01*
X2091000Y481010D02*
Y488650D01*
Y481010D02*
X2107225Y464785D01*
X2241507Y482635D02*
X2287077D01*
X2582020Y415290D02*
X2595880D01*
X2575260Y426830D02*
X2582020Y420070D01*
Y415290D02*
Y420070D01*
X2566718Y426830D02*
X2575260D01*
X2223657Y464785D02*
X2241507Y482635D01*
X2551325Y398780D02*
X2604770D01*
X2542540Y392620D02*
X2545165D01*
X2551325Y398780D01*
X2604770D02*
X2621280Y415290D01*
X2576830Y386080D02*
X2617470D01*
X2646680Y415290D01*
X2331300Y660820D02*
X2343492Y648628D01*
X2336800Y676910D02*
Y720090D01*
X2481919Y617381D02*
X2491401D01*
X2492612Y616170D01*
X2592700Y621670D02*
X2646680Y567690D01*
X2489610Y605175D02*
X2497435D01*
X2519680Y567690D02*
Y582930D01*
X2497435Y605175D02*
X2519680Y582930D01*
X2494891Y621670D02*
X2592700D01*
X2522000Y616170D02*
X2570480Y567690D01*
X2492612Y616170D02*
X2522000D01*
X2479641Y622881D02*
X2493679D01*
X2494891Y621670D01*
X2487754Y607031D02*
X2489610Y605175D01*
X2331300Y660820D02*
Y716858D01*
X2312670Y622300D02*
Y664210D01*
Y622300D02*
X2367280Y567690D01*
X2184590Y642620D02*
X2191050Y649080D01*
X2147570Y642620D02*
X2184590D01*
X2188210Y524510D02*
X2246630D01*
X2137410Y575310D02*
X2188210Y524510D01*
X2766552Y545608D02*
X2780030Y532130D01*
X2766552Y545608D02*
Y634528D01*
X2753360Y647719D02*
X2766552Y634528D01*
X2753360Y647719D02*
Y1115060D01*
X2742570Y544590D02*
X2780030Y507130D01*
X2727960Y1115060D02*
X2742570Y1100450D01*
Y544590D02*
Y1100450D01*
D36*
X2090930Y749496D02*
X2111447Y728980D01*
X2090930Y749496D02*
Y790555D01*
X2082800Y798685D02*
Y798830D01*
Y798685D02*
X2090930Y790555D01*
X2111447Y728980D02*
X2230120D01*
X2916800Y643500D02*
Y1139127D01*
X2905760Y632460D02*
X2916800Y643500D01*
X2902620Y1153307D02*
Y1185080D01*
Y1153307D02*
X2916800Y1139127D01*
X3055690Y1165860D02*
X3076010Y1186180D01*
X2992837Y1165860D02*
X3055690D01*
X2973617Y1185080D02*
X2992837Y1165860D01*
X2902620Y1185080D02*
X2973617D01*
X3031960Y1205230D02*
X3051010Y1186180D01*
X3023870Y1205230D02*
X3031960D01*
X2899040Y1206500D02*
X3022600D01*
X3023870Y1205230D01*
X2877620Y1185080D02*
X2899040Y1206500D01*
X2794530Y1196870D02*
X2865830D01*
X2877620Y1185080D01*
X2780030Y1182370D02*
X2794530Y1196870D01*
X2768600Y1182370D02*
X2780030D01*
X2292350Y1103070D02*
X2316480Y1127200D01*
X2292350Y961950D02*
X2315210Y939090D01*
X2292350Y961950D02*
Y1103070D01*
X2315210Y894080D02*
Y939090D01*
X2254250Y833120D02*
X2315210Y894080D01*
X2052720Y664210D02*
Y754380D01*
X2053255Y754915D02*
Y844185D01*
X2053790Y844720D01*
X2052720Y754380D02*
X2053255Y754915D01*
X2023000Y833180D02*
Y838930D01*
X2021840Y832020D02*
X2023000Y833180D01*
Y838930D02*
X2028790Y844720D01*
X2021840Y820420D02*
Y832020D01*
X2150415Y857555D02*
X2168500Y839470D01*
X2000215Y795175D02*
X2000400D01*
X1983386Y778346D02*
X2000215Y795175D01*
X1992140Y874250D02*
X1999760D01*
X1967230Y899160D02*
X1992140Y874250D01*
X1999760D02*
X2001520Y872490D01*
X1954730Y912060D02*
X1967230Y924560D01*
X1954730Y768150D02*
Y912060D01*
Y768150D02*
X1967230Y755650D01*
X1983386Y771806D02*
Y778346D01*
X1967230Y755650D02*
X1983386Y771806D01*
X2150415Y857555D02*
Y912825D01*
X2132330Y930910D02*
X2150415Y912825D01*
X2051885Y937695D02*
Y1030805D01*
X2052320Y937260D02*
X2053055Y936525D01*
X2051885Y937695D02*
X2052320Y937260D01*
X2053190Y485140D02*
Y571500D01*
X2051920Y572770D02*
X2053190Y571500D01*
Y485140D02*
X2054460Y483870D01*
X2227580Y455930D02*
X2245360Y473710D01*
X2082400Y455930D02*
X2227580D01*
X2054460Y483870D02*
X2082400Y455930D01*
X2051920Y572770D02*
X2052320Y573170D01*
X2272030Y525780D02*
Y561340D01*
X2219960Y473710D02*
X2272030Y525780D01*
Y561340D02*
Y586740D01*
Y688340D02*
Y713740D01*
Y662940D02*
Y688340D01*
Y637540D02*
Y662940D01*
Y612140D02*
Y637540D01*
Y586740D02*
Y612140D01*
X2051685Y1031475D02*
Y1123715D01*
X2051450Y1031240D02*
X2051685Y1031475D01*
Y1123715D02*
X2051920Y1123950D01*
X2051450Y1031240D02*
X2051885Y1030805D01*
X2053055Y845455D02*
X2053790Y844720D01*
X2053055Y845455D02*
Y936525D01*
X2052320Y663810D02*
X2052720Y664210D01*
X2052320Y573170D02*
Y663810D01*
X2780030Y457130D02*
X2805360D01*
X2847340Y499110D01*
D37*
X2461260Y1115060D02*
D03*
X2397760Y632460D02*
D03*
X3210560Y1115060D02*
D03*
X2702560Y962660D02*
D03*
Y683260D02*
D03*
X3223260Y632460D02*
D03*
D38*
X3175000Y1115060D02*
D03*
X3149600D02*
D03*
X3124200D02*
D03*
X3098800D02*
D03*
X3073400D02*
D03*
X3048000D02*
D03*
X3022600D02*
D03*
X2997200D02*
D03*
X2971800D02*
D03*
X2946400D02*
D03*
X2905760D02*
D03*
X2880360D02*
D03*
X2854960D02*
D03*
X2829560D02*
D03*
X2804160D02*
D03*
X2778760D02*
D03*
X2753360D02*
D03*
X2727960D02*
D03*
X2677160D02*
D03*
X2651760D02*
D03*
X2626360D02*
D03*
X2600960D02*
D03*
X2575560D02*
D03*
X2550160D02*
D03*
X2524760D02*
D03*
X2499360D02*
D03*
X2397760D02*
D03*
X2423160D02*
D03*
X2397760Y1089660D02*
D03*
X2423160D02*
D03*
X2397760Y1064260D02*
D03*
X2423160D02*
D03*
X2397760Y1038860D02*
D03*
X2423160D02*
D03*
X2397760Y1013460D02*
D03*
X2423160D02*
D03*
X2397760Y988060D02*
D03*
X2423160D02*
D03*
X2397760Y962660D02*
D03*
X2423160D02*
D03*
X2397760Y937260D02*
D03*
X2423160D02*
D03*
X2397760Y911860D02*
D03*
X2423160D02*
D03*
X2397760Y886460D02*
D03*
X2423160D02*
D03*
X2397760Y861060D02*
D03*
X2423160D02*
D03*
X2397760Y835660D02*
D03*
X2423160D02*
D03*
X2397760Y810260D02*
D03*
X2423160D02*
D03*
X2397760Y784860D02*
D03*
X2423160D02*
D03*
Y759460D02*
D03*
X2397760D02*
D03*
X2423160Y734060D02*
D03*
X2397760D02*
D03*
X2423160Y708660D02*
D03*
X2397760D02*
D03*
X2423160Y683260D02*
D03*
X2397760D02*
D03*
X2448560Y632460D02*
D03*
X2473960D02*
D03*
X2499360D02*
D03*
X2524760D02*
D03*
X2550160D02*
D03*
X2575560D02*
D03*
X2600960D02*
D03*
X2626360D02*
D03*
X2677160D02*
D03*
X2702560D02*
D03*
X2727960D02*
D03*
X2753360D02*
D03*
X2778760D02*
D03*
X2804160D02*
D03*
X2829560D02*
D03*
X2854960D02*
D03*
X2905760D02*
D03*
X2931160D02*
D03*
X2956560D02*
D03*
X2981960D02*
D03*
X3007360D02*
D03*
X3032760D02*
D03*
X3058160D02*
D03*
D39*
X3083560D02*
D03*
D40*
X2028790Y844720D02*
D03*
X2026920Y1123950D02*
D03*
X2026450Y1031240D02*
D03*
X2027320Y937260D02*
D03*
X3001010Y1186180D02*
D03*
X2027720Y754380D02*
D03*
Y664210D02*
D03*
X2827620Y1185080D02*
D03*
X2026920Y572770D02*
D03*
X2029460Y483870D02*
D03*
X2456110Y1186180D02*
D03*
X2632040Y1186350D02*
D03*
D41*
X2053790Y844720D02*
D03*
X2103790D02*
D03*
X2078790D02*
D03*
X2272030Y561340D02*
D03*
X2195830D02*
D03*
X2272030Y586740D02*
D03*
X2195830D02*
D03*
X2272030Y612140D02*
D03*
X2195830D02*
D03*
X2272030Y637540D02*
D03*
X2195830D02*
D03*
Y662940D02*
D03*
X2272030D02*
D03*
Y688340D02*
D03*
X2195830D02*
D03*
X2272030Y713740D02*
D03*
X2780030Y507130D02*
D03*
Y532130D02*
D03*
Y482130D02*
D03*
X2076920Y1123950D02*
D03*
X2101920D02*
D03*
X2051920D02*
D03*
X2076450Y1031240D02*
D03*
X2101450D02*
D03*
X2051450D02*
D03*
X2392680Y415290D02*
D03*
X2418080D02*
D03*
X2443480D02*
D03*
X2468880D02*
D03*
X2494280D02*
D03*
X2519680D02*
D03*
X2545080D02*
D03*
X2570480D02*
D03*
X2595880D02*
D03*
X2621280D02*
D03*
X2646680D02*
D03*
Y567690D02*
D03*
X2621280D02*
D03*
X2595880D02*
D03*
X2570480D02*
D03*
X2545080D02*
D03*
X2519680D02*
D03*
X2494280D02*
D03*
X2468880D02*
D03*
X2443480D02*
D03*
X2418080D02*
D03*
X2392680D02*
D03*
X2367280D02*
D03*
X2077320Y937260D02*
D03*
X2102320D02*
D03*
X2052320D02*
D03*
X3051010Y1186180D02*
D03*
X3076010D02*
D03*
X3026010D02*
D03*
X2077720Y754380D02*
D03*
X2102720D02*
D03*
X2052720D02*
D03*
X2077720Y664210D02*
D03*
X2102720D02*
D03*
X2052720D02*
D03*
X2877620Y1185080D02*
D03*
X2902620D02*
D03*
X2852620D02*
D03*
X2076920Y572770D02*
D03*
X2101920D02*
D03*
X2051920D02*
D03*
X2079460Y483870D02*
D03*
X2104460D02*
D03*
X2054460D02*
D03*
X2506110Y1186180D02*
D03*
X2531110D02*
D03*
X2481110D02*
D03*
X2682040Y1186350D02*
D03*
X2707040D02*
D03*
X2657040D02*
D03*
D42*
X2195830Y713740D02*
D03*
X2780030Y457130D02*
D03*
X2367280Y415290D02*
D03*
D43*
X2379980Y491490D02*
D03*
X2633980D02*
D03*
D44*
X2254250Y807720D02*
D03*
Y833120D02*
D03*
Y858520D02*
D03*
Y883920D02*
D03*
Y909320D02*
D03*
Y934720D02*
D03*
Y960120D02*
D03*
Y985520D02*
D03*
Y1010920D02*
D03*
X1967230Y755650D02*
D03*
Y781050D02*
D03*
Y924560D02*
D03*
Y949960D02*
D03*
D45*
X2254250Y1036320D02*
D03*
X1967230Y730250D02*
D03*
Y899160D02*
D03*
D46*
X2899810Y471650D02*
D03*
D47*
X2924810D02*
D03*
X2949810D02*
D03*
X2899810Y531650D02*
D03*
X2924810D02*
D03*
X2949810D02*
D03*
D48*
X2270760Y473710D02*
D03*
D49*
X2245360D02*
D03*
X2219960D02*
D03*
X2194560D02*
D03*
D50*
X3060900Y507830D02*
D03*
D51*
X3085900D02*
D03*
D52*
X2315210Y939090D02*
D03*
Y1009090D02*
D03*
X2316480Y1127200D02*
D03*
Y1057200D02*
D03*
D53*
X3221211Y512616D02*
D03*
X3233911Y1181906D02*
D03*
X2195830Y1177290D02*
D03*
X1953260Y534670D02*
D03*
D54*
X2082800Y798830D02*
D03*
X2764790Y1140460D02*
D03*
X2768600Y1182370D02*
D03*
X2481580Y464630D02*
D03*
X2437130Y454660D02*
D03*
X2236470Y674370D02*
D03*
X2449830Y678180D02*
D03*
X2307590Y1037590D02*
D03*
X2376170Y1078230D02*
D03*
X2669540Y486410D02*
D03*
X2510790Y434340D02*
D03*
X2616200Y450850D02*
D03*
X2361787Y633317D02*
D03*
X2327910Y623570D02*
D03*
X2348230Y668020D02*
D03*
X2021840Y820420D02*
D03*
X2230120Y728980D02*
D03*
X2168500Y839470D02*
D03*
X2000400Y795175D02*
D03*
X2001520Y872490D02*
D03*
X2132330Y930910D02*
D03*
X2112670Y911860D02*
D03*
X2090420Y441960D02*
D03*
X2279650Y497840D02*
D03*
X2576830Y386080D02*
D03*
X2542540Y392620D02*
D03*
X2457450Y617381D02*
D03*
X2487754Y607031D02*
D03*
X2312670Y664210D02*
D03*
X2236470Y648970D02*
D03*
X2147570Y642620D02*
D03*
X2246630Y524510D02*
D03*
X2137410Y575310D02*
D03*
X2847340Y499110D02*
D03*
M02*
