G04*
G04 #@! TF.GenerationSoftware,Altium Limited,Altium Designer,22.1.2 (22)*
G04*
G04 Layer_Color=16711935*
%FSLAX44Y44*%
%MOMM*%
G71*
G04*
G04 #@! TF.SameCoordinates,ACB05888-95A5-4360-B840-782E19AB6677*
G04*
G04*
G04 #@! TF.FilePolarity,Positive*
G04*
G01*
G75*
%ADD10C,0.2000*%
%ADD11C,0.1270*%
%ADD55C,0.1000*%
D10*
X1997290Y844720D02*
G03*
X1997290Y844720I-1000J0D01*
G01*
X2197930Y742340D02*
G03*
X2197930Y742340I-1000J0D01*
G01*
X2255250Y1054570D02*
G03*
X2255250Y1054570I-1000J0D01*
G01*
X2900410Y456650D02*
G03*
X2900410Y456650I-1000J0D01*
G01*
X1968230Y712000D02*
G03*
X1968230Y712000I-1000J0D01*
G01*
Y880910D02*
G03*
X1968230Y880910I-1000J0D01*
G01*
X2290960Y473710D02*
G03*
X2290960Y473710I-1000J0D01*
G01*
X2781030Y424630D02*
G03*
X2781030Y424630I-1000J0D01*
G01*
X3118800Y507830D02*
G03*
X3118800Y507830I-1000J0D01*
G01*
X1995420Y1123950D02*
G03*
X1995420Y1123950I-1000J0D01*
G01*
X1994950Y1031240D02*
G03*
X1994950Y1031240I-1000J0D01*
G01*
X2368280Y396490D02*
G03*
X2368280Y396490I-1000J0D01*
G01*
X1995820Y937260D02*
G03*
X1995820Y937260I-1000J0D01*
G01*
X2969510Y1186180D02*
G03*
X2969510Y1186180I-1000J0D01*
G01*
X1996220Y754380D02*
G03*
X1996220Y754380I-1000J0D01*
G01*
Y664210D02*
G03*
X1996220Y664210I-1000J0D01*
G01*
X2796120Y1185080D02*
G03*
X2796120Y1185080I-1000J0D01*
G01*
X1995420Y572770D02*
G03*
X1995420Y572770I-1000J0D01*
G01*
X1997960Y483870D02*
G03*
X1997960Y483870I-1000J0D01*
G01*
X2424610Y1186180D02*
G03*
X2424610Y1186180I-1000J0D01*
G01*
X2600540Y1186350D02*
G03*
X2600540Y1186350I-1000J0D01*
G01*
D11*
X3362960Y729980D02*
X3381060D01*
Y640060D02*
Y729980D01*
X3362960Y640060D02*
X3381060D01*
X3362960Y895960D02*
X3426460D01*
Y1013960D01*
X3362960D02*
X3426460D01*
X2346960Y607060D02*
X3362960D01*
X2346960D02*
Y1140460D01*
X3362960D01*
Y1013960D02*
Y1140460D01*
Y895960D02*
Y1013960D01*
Y729980D02*
Y895960D01*
Y640060D02*
Y729980D01*
Y607060D02*
Y640060D01*
X2128290Y810720D02*
Y868220D01*
X2004290D02*
X2128290D01*
X2004290Y810720D02*
Y868220D01*
Y810720D02*
X2128290D01*
X2287930Y540740D02*
Y734340D01*
X2179930Y540740D02*
X2287930D01*
X2179930D02*
Y734340D01*
X2287930D01*
X2242250Y795020D02*
Y1049020D01*
Y795020D02*
X2266250D01*
Y1049020D01*
X2242250D02*
X2266250D01*
X2884810Y541650D02*
X2964810D01*
Y461650D02*
Y541650D01*
X2884810Y461650D02*
X2964810D01*
X2884810D02*
Y541650D01*
X1955230Y717550D02*
X1979230D01*
Y793750D01*
X1955230D02*
X1979230D01*
X1955230Y717550D02*
Y793750D01*
Y886460D02*
X1979230D01*
Y962660D01*
X1955230D02*
X1979230D01*
X1955230Y886460D02*
Y962660D01*
X2814030Y432630D02*
Y556630D01*
X2756530Y432630D02*
X2814030D01*
X2756530D02*
Y556630D01*
X2814030D01*
X3110400Y484330D02*
Y541830D01*
X3036400Y484330D02*
X3110400D01*
X3036400D02*
Y541830D01*
X3110400D01*
X2305960Y956590D02*
Y991590D01*
X2315210D01*
X2324460D01*
Y956590D02*
Y991590D01*
X2315210Y956590D02*
X2324460D01*
X2305960D02*
X2315210D01*
Y944840D02*
Y956590D01*
Y991590D02*
Y1003340D01*
X2002420Y1089950D02*
X2126420D01*
X2002420D02*
Y1147450D01*
X2126420D01*
Y1089950D02*
Y1147450D01*
X2325730Y1074700D02*
Y1109700D01*
X2316480Y1074700D02*
X2325730D01*
X2307230D02*
X2316480D01*
X2307230D02*
Y1109700D01*
X2316480D01*
X2325730D01*
X2316480D02*
Y1121450D01*
Y1062950D02*
Y1074700D01*
X2001950Y997240D02*
X2125950D01*
X2001950D02*
Y1054740D01*
X2125950D01*
Y997240D02*
Y1054740D01*
X2659380Y402590D02*
Y580390D01*
X2354580Y402590D02*
X2659380D01*
X2354580D02*
Y580390D01*
X2659380D01*
X2002820Y903260D02*
X2126820D01*
X2002820D02*
Y960760D01*
X2126820D01*
Y903260D02*
Y960760D01*
X2976510Y1152180D02*
X3100510D01*
X2976510D02*
Y1209680D01*
X3100510D01*
Y1152180D02*
Y1209680D01*
X2003220Y720380D02*
X2127220D01*
X2003220D02*
Y777880D01*
X2127220D01*
Y720380D02*
Y777880D01*
X2003220Y630210D02*
X2127220D01*
X2003220D02*
Y687710D01*
X2127220D01*
Y630210D02*
Y687710D01*
X2803120Y1151080D02*
X2927120D01*
X2803120D02*
Y1208580D01*
X2927120D01*
Y1151080D02*
Y1208580D01*
X2002420Y538770D02*
X2126420D01*
X2002420D02*
Y596270D01*
X2126420D01*
Y538770D02*
Y596270D01*
X2004960Y449870D02*
X2128960D01*
X2004960D02*
Y507370D01*
X2128960D01*
Y449870D02*
Y507370D01*
X2431610Y1152180D02*
X2555610D01*
X2431610D02*
Y1209680D01*
X2555610D01*
Y1152180D02*
Y1209680D01*
X2607540Y1152350D02*
X2731540D01*
X2607540D02*
Y1209850D01*
X2731540D01*
Y1152350D02*
Y1209850D01*
D55*
X2283460Y461010D02*
Y486410D01*
X2181860Y461010D02*
X2283460D01*
X2181860D02*
Y486410D01*
X2283460D01*
Y461010D02*
Y486410D01*
X2181860Y461010D02*
X2283460D01*
X2181860D02*
Y486410D01*
M02*
