G04*
G04 #@! TF.GenerationSoftware,Altium Limited,Altium Designer,22.1.2 (22)*
G04*
G04 Layer_Color=32768*
%FSLAX44Y44*%
%MOMM*%
G71*
G04*
G04 #@! TF.SameCoordinates,ACB05888-95A5-4360-B840-782E19AB6677*
G04*
G04*
G04 #@! TF.FilePolarity,Positive*
G04*
G01*
G75*
%ADD56C,0.0500*%
D56*
X2344460Y604560D02*
X3365460D01*
X2344460D02*
Y1142960D01*
X3365460D01*
Y1016460D02*
Y1142960D01*
Y1016460D02*
X3428960D01*
Y893460D02*
Y1016460D01*
X3365460Y893460D02*
X3428960D01*
X3365460Y732480D02*
Y893460D01*
Y732480D02*
X3383560D01*
Y637560D02*
Y732480D01*
X3365460Y637560D02*
X3383560D01*
X3365460Y604560D02*
Y637560D01*
X2130790Y808220D02*
Y870720D01*
X2001790D02*
X2130790D01*
X2001790Y808220D02*
Y870720D01*
Y808220D02*
X2130790D01*
X2177430Y736840D02*
X2290430D01*
X2177430Y538240D02*
Y736840D01*
Y538240D02*
X2290430D01*
Y736840D01*
X2239750Y792520D02*
Y1051520D01*
Y792520D02*
X2268750D01*
Y1051520D01*
X2239750D02*
X2268750D01*
X2882310Y544150D02*
X2967310D01*
Y459150D02*
Y544150D01*
X2882310Y459150D02*
X2967310D01*
X2882310D02*
Y544150D01*
X1952730Y715050D02*
X1981730D01*
Y796250D01*
X1952730D02*
X1981730D01*
X1952730Y715050D02*
Y796250D01*
Y883960D02*
X1981730D01*
Y965160D01*
X1952730D02*
X1981730D01*
X1952730Y883960D02*
Y965160D01*
X2285960Y458510D02*
Y488910D01*
X2179360Y458510D02*
X2285960D01*
X2179360D02*
Y488910D01*
X2285960D01*
X2816530Y430130D02*
Y559130D01*
X2754030Y430130D02*
X2816530D01*
X2754030D02*
Y559130D01*
X2816530D01*
X3033900Y481830D02*
Y544330D01*
Y481830D02*
X3112900D01*
Y544330D01*
X3033900D02*
X3112900D01*
X2303460Y954090D02*
Y994090D01*
X2306410D01*
Y1017890D01*
X2324010D01*
Y994090D02*
Y1017890D01*
Y994090D02*
X2326960D01*
Y954090D02*
Y994090D01*
X2324010Y954090D02*
X2326960D01*
X2324010Y930290D02*
Y954090D01*
X2306410Y930290D02*
X2324010D01*
X2306410D02*
Y954090D01*
X2303460D02*
X2306410D01*
X1999920Y1087450D02*
X2128920D01*
X1999920D02*
Y1149950D01*
X2128920D01*
Y1087450D02*
Y1149950D01*
X2328230Y1072200D02*
Y1112200D01*
X2325280Y1072200D02*
X2328230D01*
X2325280Y1048400D02*
Y1072200D01*
X2307680Y1048400D02*
X2325280D01*
X2307680D02*
Y1072200D01*
X2304730D02*
X2307680D01*
X2304730D02*
Y1112200D01*
X2307680D01*
Y1136000D01*
X2325280D01*
Y1112200D02*
Y1136000D01*
Y1112200D02*
X2328230D01*
X1999450Y994740D02*
X2128450D01*
X1999450D02*
Y1057240D01*
X2128450D01*
Y994740D02*
Y1057240D01*
X2661880Y400090D02*
Y582890D01*
X2352080D02*
X2661880D01*
X2352080Y400090D02*
Y582890D01*
Y400090D02*
X2661880D01*
X2000320Y900760D02*
X2129320D01*
X2000320D02*
Y963260D01*
X2129320D01*
Y900760D02*
Y963260D01*
X2974010Y1149680D02*
X3103010D01*
X2974010D02*
Y1212180D01*
X3103010D01*
Y1149680D02*
Y1212180D01*
X2000720Y717880D02*
X2129720D01*
X2000720D02*
Y780380D01*
X2129720D01*
Y717880D02*
Y780380D01*
X2000720Y627710D02*
X2129720D01*
X2000720D02*
Y690210D01*
X2129720D01*
Y627710D02*
Y690210D01*
X2800620Y1148580D02*
X2929620D01*
X2800620D02*
Y1211080D01*
X2929620D01*
Y1148580D02*
Y1211080D01*
X1999920Y536270D02*
X2128920D01*
X1999920D02*
Y598770D01*
X2128920D01*
Y536270D02*
Y598770D01*
X2002460Y447370D02*
X2131460D01*
X2002460D02*
Y509870D01*
X2131460D01*
Y447370D02*
Y509870D01*
X2429110Y1149680D02*
X2558110D01*
X2429110D02*
Y1212180D01*
X2558110D01*
Y1149680D02*
Y1212180D01*
X2605040Y1149850D02*
X2734040D01*
X2605040D02*
Y1212350D01*
X2734040D01*
Y1149850D02*
Y1212350D01*
M02*
