G04*
G04 #@! TF.GenerationSoftware,Altium Limited,Altium Designer,22.1.2 (22)*
G04*
G04 Layer_Color=8388736*
%FSLAX44Y44*%
%MOMM*%
G71*
G04*
G04 #@! TF.SameCoordinates,ACB05888-95A5-4360-B840-782E19AB6677*
G04*
G04*
G04 #@! TF.FilePolarity,Negative*
G04*
G01*
G75*
%ADD14C,3.3500*%
%ADD15C,1.5080*%
%ADD16R,1.5080X1.5080*%
%ADD17R,1.6580X1.6580*%
%ADD18C,1.6580*%
%ADD19R,1.6580X1.6580*%
%ADD20C,3.6160*%
%ADD21C,3.6660*%
%ADD22C,1.8000*%
%ADD23R,1.8000X1.8000*%
%ADD24R,1.5580X1.5580*%
%ADD25C,1.5580*%
%ADD26R,1.1350X1.1350*%
%ADD27C,1.1350*%
%ADD28C,1.7250*%
%ADD29R,1.7250X1.7250*%
%ADD30C,1.4080*%
%ADD31R,1.6080X1.6080*%
%ADD32C,1.6080*%
%ADD33C,4.1500*%
%ADD34C,1.4200*%
D14*
X2461260Y1115060D02*
D03*
X2397760Y632460D02*
D03*
X3210560Y1115060D02*
D03*
X2702560Y962660D02*
D03*
Y683260D02*
D03*
X3223260Y632460D02*
D03*
D15*
X3175000Y1115060D02*
D03*
X3149600D02*
D03*
X3124200D02*
D03*
X3098800D02*
D03*
X3073400D02*
D03*
X3048000D02*
D03*
X3022600D02*
D03*
X2997200D02*
D03*
X2971800D02*
D03*
X2946400D02*
D03*
X2905760D02*
D03*
X2880360D02*
D03*
X2854960D02*
D03*
X2829560D02*
D03*
X2804160D02*
D03*
X2778760D02*
D03*
X2753360D02*
D03*
X2727960D02*
D03*
X2677160D02*
D03*
X2651760D02*
D03*
X2626360D02*
D03*
X2600960D02*
D03*
X2575560D02*
D03*
X2550160D02*
D03*
X2524760D02*
D03*
X2499360D02*
D03*
X2397760D02*
D03*
X2423160D02*
D03*
X2397760Y1089660D02*
D03*
X2423160D02*
D03*
X2397760Y1064260D02*
D03*
X2423160D02*
D03*
X2397760Y1038860D02*
D03*
X2423160D02*
D03*
X2397760Y1013460D02*
D03*
X2423160D02*
D03*
X2397760Y988060D02*
D03*
X2423160D02*
D03*
X2397760Y962660D02*
D03*
X2423160D02*
D03*
X2397760Y937260D02*
D03*
X2423160D02*
D03*
X2397760Y911860D02*
D03*
X2423160D02*
D03*
X2397760Y886460D02*
D03*
X2423160D02*
D03*
X2397760Y861060D02*
D03*
X2423160D02*
D03*
X2397760Y835660D02*
D03*
X2423160D02*
D03*
X2397760Y810260D02*
D03*
X2423160D02*
D03*
X2397760Y784860D02*
D03*
X2423160D02*
D03*
Y759460D02*
D03*
X2397760D02*
D03*
X2423160Y734060D02*
D03*
X2397760D02*
D03*
X2423160Y708660D02*
D03*
X2397760D02*
D03*
X2423160Y683260D02*
D03*
X2397760D02*
D03*
X2448560Y632460D02*
D03*
X2473960D02*
D03*
X2499360D02*
D03*
X2524760D02*
D03*
X2550160D02*
D03*
X2575560D02*
D03*
X2600960D02*
D03*
X2626360D02*
D03*
X2677160D02*
D03*
X2702560D02*
D03*
X2727960D02*
D03*
X2753360D02*
D03*
X2778760D02*
D03*
X2804160D02*
D03*
X2829560D02*
D03*
X2854960D02*
D03*
X2905760D02*
D03*
X2931160D02*
D03*
X2956560D02*
D03*
X2981960D02*
D03*
X3007360D02*
D03*
X3032760D02*
D03*
X3058160D02*
D03*
D16*
X3083560D02*
D03*
D17*
X2028790Y844720D02*
D03*
X2026920Y1123950D02*
D03*
X2026450Y1031240D02*
D03*
X2027320Y937260D02*
D03*
X3001010Y1186180D02*
D03*
X2027720Y754380D02*
D03*
Y664210D02*
D03*
X2827620Y1185080D02*
D03*
X2026920Y572770D02*
D03*
X2029460Y483870D02*
D03*
X2456110Y1186180D02*
D03*
X2632040Y1186350D02*
D03*
D18*
X2053790Y844720D02*
D03*
X2103790D02*
D03*
X2078790D02*
D03*
X2272030Y561340D02*
D03*
X2195830D02*
D03*
X2272030Y586740D02*
D03*
X2195830D02*
D03*
X2272030Y612140D02*
D03*
X2195830D02*
D03*
X2272030Y637540D02*
D03*
X2195830D02*
D03*
Y662940D02*
D03*
X2272030D02*
D03*
Y688340D02*
D03*
X2195830D02*
D03*
X2272030Y713740D02*
D03*
X2780030Y507130D02*
D03*
Y532130D02*
D03*
Y482130D02*
D03*
X2076920Y1123950D02*
D03*
X2101920D02*
D03*
X2051920D02*
D03*
X2076450Y1031240D02*
D03*
X2101450D02*
D03*
X2051450D02*
D03*
X2077320Y937260D02*
D03*
X2102320D02*
D03*
X2052320D02*
D03*
X3051010Y1186180D02*
D03*
X3076010D02*
D03*
X3026010D02*
D03*
X2077720Y754380D02*
D03*
X2102720D02*
D03*
X2052720D02*
D03*
X2077720Y664210D02*
D03*
X2102720D02*
D03*
X2052720D02*
D03*
X2877620Y1185080D02*
D03*
X2902620D02*
D03*
X2852620D02*
D03*
X2076920Y572770D02*
D03*
X2101920D02*
D03*
X2051920D02*
D03*
X2079460Y483870D02*
D03*
X2104460D02*
D03*
X2054460D02*
D03*
X2506110Y1186180D02*
D03*
X2531110D02*
D03*
X2481110D02*
D03*
X2682040Y1186350D02*
D03*
X2707040D02*
D03*
X2657040D02*
D03*
D19*
X2195830Y713740D02*
D03*
X2780030Y457130D02*
D03*
D20*
X2379980Y491490D02*
D03*
D21*
X2633980D02*
D03*
D22*
X2254250Y807720D02*
D03*
Y833120D02*
D03*
Y858520D02*
D03*
Y883920D02*
D03*
Y909320D02*
D03*
Y934720D02*
D03*
Y960120D02*
D03*
Y985520D02*
D03*
Y1010920D02*
D03*
X1967230Y755650D02*
D03*
Y781050D02*
D03*
Y924560D02*
D03*
Y949960D02*
D03*
D23*
X2254250Y1036320D02*
D03*
X1967230Y730250D02*
D03*
Y899160D02*
D03*
D24*
X2899810Y471650D02*
D03*
D25*
X2924810D02*
D03*
X2949810D02*
D03*
X2899810Y531650D02*
D03*
X2924810D02*
D03*
X2949810D02*
D03*
D26*
X2270760Y473710D02*
D03*
D27*
X2245360D02*
D03*
X2219960D02*
D03*
X2194560D02*
D03*
D28*
X3060900Y507830D02*
D03*
D29*
X3085900D02*
D03*
D30*
X2315210Y939090D02*
D03*
Y1009090D02*
D03*
X2316480Y1127200D02*
D03*
Y1057200D02*
D03*
D31*
X2367280Y415290D02*
D03*
D32*
X2392680D02*
D03*
X2418080D02*
D03*
X2443480D02*
D03*
X2468880D02*
D03*
X2494280D02*
D03*
X2519680D02*
D03*
X2545080D02*
D03*
X2570480D02*
D03*
X2595880D02*
D03*
X2621280D02*
D03*
X2646680D02*
D03*
Y567690D02*
D03*
X2621280D02*
D03*
X2595880D02*
D03*
X2570480D02*
D03*
X2545080D02*
D03*
X2519680D02*
D03*
X2494280D02*
D03*
X2468880D02*
D03*
X2443480D02*
D03*
X2418080D02*
D03*
X2392680D02*
D03*
X2367280D02*
D03*
D33*
X3221211Y512616D02*
D03*
X3233911Y1181906D02*
D03*
X2195830Y1177290D02*
D03*
X1953260Y534670D02*
D03*
D34*
X2082800Y798830D02*
D03*
X2764790Y1140460D02*
D03*
X2768600Y1182370D02*
D03*
X2481580Y464630D02*
D03*
X2437130Y454660D02*
D03*
X2236470Y674370D02*
D03*
X2449830Y678180D02*
D03*
X2307590Y1037590D02*
D03*
X2376170Y1078230D02*
D03*
X2669540Y486410D02*
D03*
X2510790Y434340D02*
D03*
X2616200Y450850D02*
D03*
X2361787Y633317D02*
D03*
X2327910Y623570D02*
D03*
X2348230Y668020D02*
D03*
X2021840Y820420D02*
D03*
X2230120Y728980D02*
D03*
X2168500Y839470D02*
D03*
X2000400Y795175D02*
D03*
X2001520Y872490D02*
D03*
X2132330Y930910D02*
D03*
X2112670Y911860D02*
D03*
X2090420Y441960D02*
D03*
X2279650Y497840D02*
D03*
X2576830Y386080D02*
D03*
X2542540Y392620D02*
D03*
X2457450Y617381D02*
D03*
X2487754Y607031D02*
D03*
X2312670Y664210D02*
D03*
X2236470Y648970D02*
D03*
X2147570Y642620D02*
D03*
X2246630Y524510D02*
D03*
X2137410Y575310D02*
D03*
X2847340Y499110D02*
D03*
M02*
