G04*
G04 #@! TF.GenerationSoftware,Altium Limited,Altium Designer,22.1.2 (22)*
G04*
G04 Layer_Color=2752767*
%FSLAX44Y44*%
%MOMM*%
G71*
G04*
G04 #@! TF.SameCoordinates,ACB05888-95A5-4360-B840-782E19AB6677*
G04*
G04*
G04 #@! TF.FilePolarity,Positive*
G04*
G01*
G75*
%ADD58C,0.0508*%
%ADD59C,0.0677*%
%ADD60C,0.0339*%
D58*
X2459228Y1113028D02*
Y1117092D01*
X2463292D01*
Y1113028D01*
X2459228D01*
X2395728Y630428D02*
Y634492D01*
X2399792D01*
Y630428D01*
X2395728D01*
X3208528Y1113028D02*
Y1117092D01*
X3212592D01*
Y1113028D01*
X3208528D01*
X2700528Y960628D02*
Y964692D01*
X2704592D01*
Y960628D01*
X2700528D01*
Y681228D02*
Y685292D01*
X2704592D01*
Y681228D01*
X2700528D01*
X3221228Y630428D02*
Y634492D01*
X3225292D01*
Y630428D01*
X3221228D01*
X2028790Y842688D02*
X2026758Y846752D01*
X2030822D01*
X2028790Y842688D01*
X2053790D02*
X2051758Y846752D01*
X2055822D01*
X2053790Y842688D01*
X2103790D02*
X2101758Y846752D01*
X2105822D01*
X2103790Y842688D01*
X2078790D02*
X2076758Y846752D01*
X2080822D01*
X2078790Y842688D01*
X2272030Y559308D02*
X2269998Y563372D01*
X2274062D01*
X2272030Y559308D01*
X2195830D02*
X2193798Y563372D01*
X2197862D01*
X2195830Y559308D01*
X2272030Y584708D02*
X2269998Y588772D01*
X2274062D01*
X2272030Y584708D01*
X2195830D02*
X2193798Y588772D01*
X2197862D01*
X2195830Y584708D01*
X2272030Y610108D02*
X2269998Y614172D01*
X2274062D01*
X2272030Y610108D01*
X2195830D02*
X2193798Y614172D01*
X2197862D01*
X2195830Y610108D01*
X2272030Y635508D02*
X2269998Y639572D01*
X2274062D01*
X2272030Y635508D01*
X2195830D02*
X2193798Y639572D01*
X2197862D01*
X2195830Y635508D01*
Y660908D02*
X2193798Y664972D01*
X2197862D01*
X2195830Y660908D01*
X2272030D02*
X2269998Y664972D01*
X2274062D01*
X2272030Y660908D01*
Y686308D02*
X2269998Y690372D01*
X2274062D01*
X2272030Y686308D01*
X2195830D02*
X2193798Y690372D01*
X2197862D01*
X2195830Y686308D01*
X2272030Y711708D02*
X2269998Y715772D01*
X2274062D01*
X2272030Y711708D01*
X2195830D02*
X2193798Y715772D01*
X2197862D01*
X2195830Y711708D01*
X2379980Y489458D02*
X2380996Y490474D01*
X2382012D01*
X2380996Y491490D01*
X2382012Y492506D01*
X2380996D01*
X2379980Y493522D01*
X2378964Y492506D01*
X2377948D01*
X2378964Y491490D01*
X2377948Y490474D01*
X2378964D01*
X2379980Y489458D01*
X2631948D02*
X2632964Y491490D01*
X2631948Y493522D01*
X2633980Y492506D01*
X2636012Y493522D01*
X2634996Y491490D01*
X2636012Y489458D01*
X2633980Y490474D01*
X2631948Y489458D01*
X2253234Y806704D02*
Y805688D01*
X2255266D01*
Y806704D01*
X2256282D01*
Y808736D01*
X2255266D01*
Y809752D01*
X2253234D01*
Y808736D01*
X2252218D01*
Y806704D01*
X2253234D01*
Y832104D02*
Y831088D01*
X2255266D01*
Y832104D01*
X2256282D01*
Y834136D01*
X2255266D01*
Y835152D01*
X2253234D01*
Y834136D01*
X2252218D01*
Y832104D01*
X2253234D01*
Y857504D02*
Y856488D01*
X2255266D01*
Y857504D01*
X2256282D01*
Y859536D01*
X2255266D01*
Y860552D01*
X2253234D01*
Y859536D01*
X2252218D01*
Y857504D01*
X2253234D01*
Y882904D02*
Y881888D01*
X2255266D01*
Y882904D01*
X2256282D01*
Y884936D01*
X2255266D01*
Y885952D01*
X2253234D01*
Y884936D01*
X2252218D01*
Y882904D01*
X2253234D01*
Y908304D02*
Y907288D01*
X2255266D01*
Y908304D01*
X2256282D01*
Y910336D01*
X2255266D01*
Y911352D01*
X2253234D01*
Y910336D01*
X2252218D01*
Y908304D01*
X2253234D01*
Y933704D02*
Y932688D01*
X2255266D01*
Y933704D01*
X2256282D01*
Y935736D01*
X2255266D01*
Y936752D01*
X2253234D01*
Y935736D01*
X2252218D01*
Y933704D01*
X2253234D01*
Y959104D02*
Y958088D01*
X2255266D01*
Y959104D01*
X2256282D01*
Y961136D01*
X2255266D01*
Y962152D01*
X2253234D01*
Y961136D01*
X2252218D01*
Y959104D01*
X2253234D01*
Y984504D02*
Y983488D01*
X2255266D01*
Y984504D01*
X2256282D01*
Y986536D01*
X2255266D01*
Y987552D01*
X2253234D01*
Y986536D01*
X2252218D01*
Y984504D01*
X2253234D01*
Y1009904D02*
Y1008888D01*
X2255266D01*
Y1009904D01*
X2256282D01*
Y1011936D01*
X2255266D01*
Y1012952D01*
X2253234D01*
Y1011936D01*
X2252218D01*
Y1009904D01*
X2253234D01*
Y1035304D02*
Y1034288D01*
X2255266D01*
Y1035304D01*
X2256282D01*
Y1037336D01*
X2255266D01*
Y1038352D01*
X2253234D01*
Y1037336D01*
X2252218D01*
Y1035304D01*
X2253234D01*
X2897778Y469618D02*
X2898794D01*
X2899810Y470634D01*
X2900826Y469618D01*
X2901842D01*
Y470634D01*
X2900826Y471650D01*
X2901842Y472666D01*
Y473682D01*
X2900826D01*
X2899810Y472666D01*
X2898794Y473682D01*
X2897778D01*
Y472666D01*
X2898794Y471650D01*
X2897778Y470634D01*
Y469618D01*
X2922778D02*
X2923794D01*
X2924810Y470634D01*
X2925826Y469618D01*
X2926842D01*
Y470634D01*
X2925826Y471650D01*
X2926842Y472666D01*
Y473682D01*
X2925826D01*
X2924810Y472666D01*
X2923794Y473682D01*
X2922778D01*
Y472666D01*
X2923794Y471650D01*
X2922778Y470634D01*
Y469618D01*
X2947778D02*
X2948794D01*
X2949810Y470634D01*
X2950826Y469618D01*
X2951842D01*
Y470634D01*
X2950826Y471650D01*
X2951842Y472666D01*
Y473682D01*
X2950826D01*
X2949810Y472666D01*
X2948794Y473682D01*
X2947778D01*
Y472666D01*
X2948794Y471650D01*
X2947778Y470634D01*
Y469618D01*
X2897778Y529618D02*
X2898794D01*
X2899810Y530634D01*
X2900826Y529618D01*
X2901842D01*
Y530634D01*
X2900826Y531650D01*
X2901842Y532666D01*
Y533682D01*
X2900826D01*
X2899810Y532666D01*
X2898794Y533682D01*
X2897778D01*
Y532666D01*
X2898794Y531650D01*
X2897778Y530634D01*
Y529618D01*
X2922778D02*
X2923794D01*
X2924810Y530634D01*
X2925826Y529618D01*
X2926842D01*
Y530634D01*
X2925826Y531650D01*
X2926842Y532666D01*
Y533682D01*
X2925826D01*
X2924810Y532666D01*
X2923794Y533682D01*
X2922778D01*
Y532666D01*
X2923794Y531650D01*
X2922778Y530634D01*
Y529618D01*
X2947778D02*
X2948794D01*
X2949810Y530634D01*
X2950826Y529618D01*
X2951842D01*
Y530634D01*
X2950826Y531650D01*
X2951842Y532666D01*
Y533682D01*
X2950826D01*
X2949810Y532666D01*
X2948794Y533682D01*
X2947778D01*
Y532666D01*
X2948794Y531650D01*
X2947778Y530634D01*
Y529618D01*
X1966214Y729234D02*
Y728218D01*
X1968246D01*
Y729234D01*
X1969262D01*
Y731266D01*
X1968246D01*
Y732282D01*
X1966214D01*
Y731266D01*
X1965198D01*
Y729234D01*
X1966214D01*
Y754634D02*
Y753618D01*
X1968246D01*
Y754634D01*
X1969262D01*
Y756666D01*
X1968246D01*
Y757682D01*
X1966214D01*
Y756666D01*
X1965198D01*
Y754634D01*
X1966214D01*
Y780034D02*
Y779018D01*
X1968246D01*
Y780034D01*
X1969262D01*
Y782066D01*
X1968246D01*
Y783082D01*
X1966214D01*
Y782066D01*
X1965198D01*
Y780034D01*
X1966214D01*
Y898144D02*
Y897128D01*
X1968246D01*
Y898144D01*
X1969262D01*
Y900176D01*
X1968246D01*
Y901192D01*
X1966214D01*
Y900176D01*
X1965198D01*
Y898144D01*
X1966214D01*
Y923544D02*
Y922528D01*
X1968246D01*
Y923544D01*
X1969262D01*
Y925576D01*
X1968246D01*
Y926592D01*
X1966214D01*
Y925576D01*
X1965198D01*
Y923544D01*
X1966214D01*
Y948944D02*
Y947928D01*
X1968246D01*
Y948944D01*
X1969262D01*
Y950976D01*
X1968246D01*
Y951992D01*
X1966214D01*
Y950976D01*
X1965198D01*
Y948944D01*
X1966214D01*
X2268728Y473710D02*
X2270760Y475742D01*
X2272792Y473710D01*
X2270760Y471678D01*
X2268728Y473710D01*
X2243328D02*
X2245360Y475742D01*
X2247392Y473710D01*
X2245360Y471678D01*
X2243328Y473710D01*
X2217928D02*
X2219960Y475742D01*
X2221992Y473710D01*
X2219960Y471678D01*
X2217928Y473710D01*
X2192528D02*
X2194560Y475742D01*
X2196592Y473710D01*
X2194560Y471678D01*
X2192528Y473710D01*
X2780030Y505098D02*
X2777998Y509162D01*
X2782062D01*
X2780030Y505098D01*
Y530098D02*
X2777998Y534162D01*
X2782062D01*
X2780030Y530098D01*
Y480098D02*
X2777998Y484162D01*
X2782062D01*
X2780030Y480098D01*
Y455098D02*
X2777998Y459162D01*
X2782062D01*
X2780030Y455098D01*
X3058868Y505798D02*
Y509862D01*
X3062932D01*
Y505798D01*
X3058868D01*
X3059884Y506814D02*
Y508846D01*
X3061916D01*
Y506814D01*
X3059884D01*
X3083868Y505798D02*
Y509862D01*
X3087932D01*
Y505798D01*
X3083868D01*
X3084884Y506814D02*
Y508846D01*
X3086916D01*
Y506814D01*
X3084884D01*
X2076920Y1121918D02*
X2074888Y1125982D01*
X2078952D01*
X2076920Y1121918D01*
X2101920D02*
X2099888Y1125982D01*
X2103952D01*
X2101920Y1121918D01*
X2051920D02*
X2049888Y1125982D01*
X2053952D01*
X2051920Y1121918D01*
X2026920D02*
X2024888Y1125982D01*
X2028952D01*
X2026920Y1121918D01*
X2076450Y1029208D02*
X2074418Y1033272D01*
X2078482D01*
X2076450Y1029208D01*
X2101450D02*
X2099418Y1033272D01*
X2103482D01*
X2101450Y1029208D01*
X2051450D02*
X2049418Y1033272D01*
X2053482D01*
X2051450Y1029208D01*
X2026450D02*
X2024418Y1033272D01*
X2028482D01*
X2026450Y1029208D01*
X2367280Y413258D02*
X2365248Y417322D01*
X2369312D01*
X2367280Y413258D01*
X2392680D02*
X2390648Y417322D01*
X2394712D01*
X2392680Y413258D01*
X2418080D02*
X2416048Y417322D01*
X2420112D01*
X2418080Y413258D01*
X2443480D02*
X2441448Y417322D01*
X2445512D01*
X2443480Y413258D01*
X2468880D02*
X2466848Y417322D01*
X2470912D01*
X2468880Y413258D01*
X2494280D02*
X2492248Y417322D01*
X2496312D01*
X2494280Y413258D01*
X2519680D02*
X2517648Y417322D01*
X2521712D01*
X2519680Y413258D01*
X2545080D02*
X2543048Y417322D01*
X2547112D01*
X2545080Y413258D01*
X2570480D02*
X2568448Y417322D01*
X2572512D01*
X2570480Y413258D01*
X2595880D02*
X2593848Y417322D01*
X2597912D01*
X2595880Y413258D01*
X2621280D02*
X2619248Y417322D01*
X2623312D01*
X2621280Y413258D01*
X2646680D02*
X2644648Y417322D01*
X2648712D01*
X2646680Y413258D01*
Y565658D02*
X2644648Y569722D01*
X2648712D01*
X2646680Y565658D01*
X2621280D02*
X2619248Y569722D01*
X2623312D01*
X2621280Y565658D01*
X2595880D02*
X2593848Y569722D01*
X2597912D01*
X2595880Y565658D01*
X2570480D02*
X2568448Y569722D01*
X2572512D01*
X2570480Y565658D01*
X2545080D02*
X2543048Y569722D01*
X2547112D01*
X2545080Y565658D01*
X2519680D02*
X2517648Y569722D01*
X2521712D01*
X2519680Y565658D01*
X2494280D02*
X2492248Y569722D01*
X2496312D01*
X2494280Y565658D01*
X2468880D02*
X2466848Y569722D01*
X2470912D01*
X2468880Y565658D01*
X2443480D02*
X2441448Y569722D01*
X2445512D01*
X2443480Y565658D01*
X2418080D02*
X2416048Y569722D01*
X2420112D01*
X2418080Y565658D01*
X2392680D02*
X2390648Y569722D01*
X2394712D01*
X2392680Y565658D01*
X2367280D02*
X2365248Y569722D01*
X2369312D01*
X2367280Y565658D01*
X2077320Y935228D02*
X2075288Y939292D01*
X2079352D01*
X2077320Y935228D01*
X2102320D02*
X2100288Y939292D01*
X2104352D01*
X2102320Y935228D01*
X2052320D02*
X2050288Y939292D01*
X2054352D01*
X2052320Y935228D01*
X2027320D02*
X2025288Y939292D01*
X2029352D01*
X2027320Y935228D01*
X3051010Y1184148D02*
X3048978Y1188212D01*
X3053042D01*
X3051010Y1184148D01*
X3076010D02*
X3073978Y1188212D01*
X3078042D01*
X3076010Y1184148D01*
X3026010D02*
X3023978Y1188212D01*
X3028042D01*
X3026010Y1184148D01*
X3001010D02*
X2998978Y1188212D01*
X3003042D01*
X3001010Y1184148D01*
X2077720Y752348D02*
X2075688Y756412D01*
X2079752D01*
X2077720Y752348D01*
X2102720D02*
X2100688Y756412D01*
X2104752D01*
X2102720Y752348D01*
X2052720D02*
X2050688Y756412D01*
X2054752D01*
X2052720Y752348D01*
X2027720D02*
X2025688Y756412D01*
X2029752D01*
X2027720Y752348D01*
X2077720Y662178D02*
X2075688Y666242D01*
X2079752D01*
X2077720Y662178D01*
X2102720D02*
X2100688Y666242D01*
X2104752D01*
X2102720Y662178D01*
X2052720D02*
X2050688Y666242D01*
X2054752D01*
X2052720Y662178D01*
X2027720D02*
X2025688Y666242D01*
X2029752D01*
X2027720Y662178D01*
X2877620Y1183048D02*
X2875588Y1187112D01*
X2879652D01*
X2877620Y1183048D01*
X2902620D02*
X2900588Y1187112D01*
X2904652D01*
X2902620Y1183048D01*
X2852620D02*
X2850588Y1187112D01*
X2854652D01*
X2852620Y1183048D01*
X2827620D02*
X2825588Y1187112D01*
X2829652D01*
X2827620Y1183048D01*
X2076920Y570738D02*
X2074888Y574802D01*
X2078952D01*
X2076920Y570738D01*
X2101920D02*
X2099888Y574802D01*
X2103952D01*
X2101920Y570738D01*
X2051920D02*
X2049888Y574802D01*
X2053952D01*
X2051920Y570738D01*
X2026920D02*
X2024888Y574802D01*
X2028952D01*
X2026920Y570738D01*
X2079460Y481838D02*
X2077428Y485902D01*
X2081492D01*
X2079460Y481838D01*
X2104460D02*
X2102428Y485902D01*
X2106492D01*
X2104460Y481838D01*
X2054460D02*
X2052428Y485902D01*
X2056492D01*
X2054460Y481838D01*
X2029460D02*
X2027428Y485902D01*
X2031492D01*
X2029460Y481838D01*
X2506110Y1184148D02*
X2504078Y1188212D01*
X2508142D01*
X2506110Y1184148D01*
X2531110D02*
X2529078Y1188212D01*
X2533142D01*
X2531110Y1184148D01*
X2481110D02*
X2479078Y1188212D01*
X2483142D01*
X2481110Y1184148D01*
X2456110D02*
X2454078Y1188212D01*
X2458142D01*
X2456110Y1184148D01*
X2682040Y1184318D02*
X2680008Y1188382D01*
X2684072D01*
X2682040Y1184318D01*
X2707040D02*
X2705008Y1188382D01*
X2709072D01*
X2707040Y1184318D01*
X2657040D02*
X2655008Y1188382D01*
X2659072D01*
X2657040Y1184318D01*
X2632040D02*
X2630008Y1188382D01*
X2634072D01*
X2632040Y1184318D01*
X3221211Y510584D02*
X3219179Y514648D01*
X3223243D01*
X3221211Y510584D01*
Y511600D02*
X3220195Y513632D01*
X3222227D01*
X3221211Y511600D01*
X3233911Y1179874D02*
X3231879Y1183938D01*
X3235943D01*
X3233911Y1179874D01*
Y1180890D02*
X3232895Y1182922D01*
X3234927D01*
X3233911Y1180890D01*
X2195830Y1175258D02*
X2193798Y1179322D01*
X2197862D01*
X2195830Y1175258D01*
Y1176274D02*
X2194814Y1178306D01*
X2196846D01*
X2195830Y1176274D01*
X1953260Y532638D02*
X1951228Y536702D01*
X1955292D01*
X1953260Y532638D01*
Y533654D02*
X1952244Y535686D01*
X1954276D01*
X1953260Y533654D01*
X2082800Y796798D02*
X2083816Y797814D01*
X2084832D01*
X2083816Y798830D01*
X2084832Y799846D01*
X2083816D01*
X2082800Y800862D01*
X2081784Y799846D01*
X2080768D01*
X2081784Y798830D01*
X2080768Y797814D01*
X2081784D01*
X2082800Y796798D01*
Y797814D02*
X2083308Y798322D01*
X2083816D01*
X2083308Y798830D01*
X2083816Y799338D01*
X2083308D01*
X2082800Y799846D01*
X2082292Y799338D01*
X2081784D01*
X2082292Y798830D01*
X2081784Y798322D01*
X2082292D01*
X2082800Y797814D01*
X2764790Y1138428D02*
X2765806Y1139444D01*
X2766822D01*
X2765806Y1140460D01*
X2766822Y1141476D01*
X2765806D01*
X2764790Y1142492D01*
X2763774Y1141476D01*
X2762758D01*
X2763774Y1140460D01*
X2762758Y1139444D01*
X2763774D01*
X2764790Y1138428D01*
Y1139444D02*
X2765298Y1139952D01*
X2765806D01*
X2765298Y1140460D01*
X2765806Y1140968D01*
X2765298D01*
X2764790Y1141476D01*
X2764282Y1140968D01*
X2763774D01*
X2764282Y1140460D01*
X2763774Y1139952D01*
X2764282D01*
X2764790Y1139444D01*
X2768600Y1180338D02*
X2769616Y1181354D01*
X2770632D01*
X2769616Y1182370D01*
X2770632Y1183386D01*
X2769616D01*
X2768600Y1184402D01*
X2767584Y1183386D01*
X2766568D01*
X2767584Y1182370D01*
X2766568Y1181354D01*
X2767584D01*
X2768600Y1180338D01*
Y1181354D02*
X2769108Y1181862D01*
X2769616D01*
X2769108Y1182370D01*
X2769616Y1182878D01*
X2769108D01*
X2768600Y1183386D01*
X2768092Y1182878D01*
X2767584D01*
X2768092Y1182370D01*
X2767584Y1181862D01*
X2768092D01*
X2768600Y1181354D01*
X2481580Y462598D02*
X2482596Y463614D01*
X2483612D01*
X2482596Y464630D01*
X2483612Y465646D01*
X2482596D01*
X2481580Y466662D01*
X2480564Y465646D01*
X2479548D01*
X2480564Y464630D01*
X2479548Y463614D01*
X2480564D01*
X2481580Y462598D01*
Y463614D02*
X2482088Y464122D01*
X2482596D01*
X2482088Y464630D01*
X2482596Y465138D01*
X2482088D01*
X2481580Y465646D01*
X2481072Y465138D01*
X2480564D01*
X2481072Y464630D01*
X2480564Y464122D01*
X2481072D01*
X2481580Y463614D01*
X2437130Y452628D02*
X2438146Y453644D01*
X2439162D01*
X2438146Y454660D01*
X2439162Y455676D01*
X2438146D01*
X2437130Y456692D01*
X2436114Y455676D01*
X2435098D01*
X2436114Y454660D01*
X2435098Y453644D01*
X2436114D01*
X2437130Y452628D01*
Y453644D02*
X2437638Y454152D01*
X2438146D01*
X2437638Y454660D01*
X2438146Y455168D01*
X2437638D01*
X2437130Y455676D01*
X2436622Y455168D01*
X2436114D01*
X2436622Y454660D01*
X2436114Y454152D01*
X2436622D01*
X2437130Y453644D01*
X2236470Y672338D02*
X2237486Y673354D01*
X2238502D01*
X2237486Y674370D01*
X2238502Y675386D01*
X2237486D01*
X2236470Y676402D01*
X2235454Y675386D01*
X2234438D01*
X2235454Y674370D01*
X2234438Y673354D01*
X2235454D01*
X2236470Y672338D01*
Y673354D02*
X2236978Y673862D01*
X2237486D01*
X2236978Y674370D01*
X2237486Y674878D01*
X2236978D01*
X2236470Y675386D01*
X2235962Y674878D01*
X2235454D01*
X2235962Y674370D01*
X2235454Y673862D01*
X2235962D01*
X2236470Y673354D01*
X2449830Y676148D02*
X2450846Y677164D01*
X2451862D01*
X2450846Y678180D01*
X2451862Y679196D01*
X2450846D01*
X2449830Y680212D01*
X2448814Y679196D01*
X2447798D01*
X2448814Y678180D01*
X2447798Y677164D01*
X2448814D01*
X2449830Y676148D01*
Y677164D02*
X2450338Y677672D01*
X2450846D01*
X2450338Y678180D01*
X2450846Y678688D01*
X2450338D01*
X2449830Y679196D01*
X2449322Y678688D01*
X2448814D01*
X2449322Y678180D01*
X2448814Y677672D01*
X2449322D01*
X2449830Y677164D01*
X2307590Y1035558D02*
X2308606Y1036574D01*
X2309622D01*
X2308606Y1037590D01*
X2309622Y1038606D01*
X2308606D01*
X2307590Y1039622D01*
X2306574Y1038606D01*
X2305558D01*
X2306574Y1037590D01*
X2305558Y1036574D01*
X2306574D01*
X2307590Y1035558D01*
Y1036574D02*
X2308098Y1037082D01*
X2308606D01*
X2308098Y1037590D01*
X2308606Y1038098D01*
X2308098D01*
X2307590Y1038606D01*
X2307082Y1038098D01*
X2306574D01*
X2307082Y1037590D01*
X2306574Y1037082D01*
X2307082D01*
X2307590Y1036574D01*
X2376170Y1076198D02*
X2377186Y1077214D01*
X2378202D01*
X2377186Y1078230D01*
X2378202Y1079246D01*
X2377186D01*
X2376170Y1080262D01*
X2375154Y1079246D01*
X2374138D01*
X2375154Y1078230D01*
X2374138Y1077214D01*
X2375154D01*
X2376170Y1076198D01*
Y1077214D02*
X2376678Y1077722D01*
X2377186D01*
X2376678Y1078230D01*
X2377186Y1078738D01*
X2376678D01*
X2376170Y1079246D01*
X2375662Y1078738D01*
X2375154D01*
X2375662Y1078230D01*
X2375154Y1077722D01*
X2375662D01*
X2376170Y1077214D01*
X2669540Y484378D02*
X2670556Y485394D01*
X2671572D01*
X2670556Y486410D01*
X2671572Y487426D01*
X2670556D01*
X2669540Y488442D01*
X2668524Y487426D01*
X2667508D01*
X2668524Y486410D01*
X2667508Y485394D01*
X2668524D01*
X2669540Y484378D01*
Y485394D02*
X2670048Y485902D01*
X2670556D01*
X2670048Y486410D01*
X2670556Y486918D01*
X2670048D01*
X2669540Y487426D01*
X2669032Y486918D01*
X2668524D01*
X2669032Y486410D01*
X2668524Y485902D01*
X2669032D01*
X2669540Y485394D01*
X2510790Y432308D02*
X2511806Y433324D01*
X2512822D01*
X2511806Y434340D01*
X2512822Y435356D01*
X2511806D01*
X2510790Y436372D01*
X2509774Y435356D01*
X2508758D01*
X2509774Y434340D01*
X2508758Y433324D01*
X2509774D01*
X2510790Y432308D01*
Y433324D02*
X2511298Y433832D01*
X2511806D01*
X2511298Y434340D01*
X2511806Y434848D01*
X2511298D01*
X2510790Y435356D01*
X2510282Y434848D01*
X2509774D01*
X2510282Y434340D01*
X2509774Y433832D01*
X2510282D01*
X2510790Y433324D01*
X2616200Y448818D02*
X2617216Y449834D01*
X2618232D01*
X2617216Y450850D01*
X2618232Y451866D01*
X2617216D01*
X2616200Y452882D01*
X2615184Y451866D01*
X2614168D01*
X2615184Y450850D01*
X2614168Y449834D01*
X2615184D01*
X2616200Y448818D01*
Y449834D02*
X2616708Y450342D01*
X2617216D01*
X2616708Y450850D01*
X2617216Y451358D01*
X2616708D01*
X2616200Y451866D01*
X2615692Y451358D01*
X2615184D01*
X2615692Y450850D01*
X2615184Y450342D01*
X2615692D01*
X2616200Y449834D01*
X2361787Y631285D02*
X2362803Y632301D01*
X2363819D01*
X2362803Y633317D01*
X2363819Y634333D01*
X2362803D01*
X2361787Y635349D01*
X2360771Y634333D01*
X2359755D01*
X2360771Y633317D01*
X2359755Y632301D01*
X2360771D01*
X2361787Y631285D01*
Y632301D02*
X2362295Y632809D01*
X2362803D01*
X2362295Y633317D01*
X2362803Y633825D01*
X2362295D01*
X2361787Y634333D01*
X2361279Y633825D01*
X2360771D01*
X2361279Y633317D01*
X2360771Y632809D01*
X2361279D01*
X2361787Y632301D01*
X2327910Y621538D02*
X2328926Y622554D01*
X2329942D01*
X2328926Y623570D01*
X2329942Y624586D01*
X2328926D01*
X2327910Y625602D01*
X2326894Y624586D01*
X2325878D01*
X2326894Y623570D01*
X2325878Y622554D01*
X2326894D01*
X2327910Y621538D01*
Y622554D02*
X2328418Y623062D01*
X2328926D01*
X2328418Y623570D01*
X2328926Y624078D01*
X2328418D01*
X2327910Y624586D01*
X2327402Y624078D01*
X2326894D01*
X2327402Y623570D01*
X2326894Y623062D01*
X2327402D01*
X2327910Y622554D01*
X2348230Y665988D02*
X2349246Y667004D01*
X2350262D01*
X2349246Y668020D01*
X2350262Y669036D01*
X2349246D01*
X2348230Y670052D01*
X2347214Y669036D01*
X2346198D01*
X2347214Y668020D01*
X2346198Y667004D01*
X2347214D01*
X2348230Y665988D01*
Y667004D02*
X2348738Y667512D01*
X2349246D01*
X2348738Y668020D01*
X2349246Y668528D01*
X2348738D01*
X2348230Y669036D01*
X2347722Y668528D01*
X2347214D01*
X2347722Y668020D01*
X2347214Y667512D01*
X2347722D01*
X2348230Y667004D01*
X2021840Y818388D02*
X2022856Y819404D01*
X2023872D01*
X2022856Y820420D01*
X2023872Y821436D01*
X2022856D01*
X2021840Y822452D01*
X2020824Y821436D01*
X2019808D01*
X2020824Y820420D01*
X2019808Y819404D01*
X2020824D01*
X2021840Y818388D01*
Y819404D02*
X2022348Y819912D01*
X2022856D01*
X2022348Y820420D01*
X2022856Y820928D01*
X2022348D01*
X2021840Y821436D01*
X2021332Y820928D01*
X2020824D01*
X2021332Y820420D01*
X2020824Y819912D01*
X2021332D01*
X2021840Y819404D01*
X2230120Y726948D02*
X2231136Y727964D01*
X2232152D01*
X2231136Y728980D01*
X2232152Y729996D01*
X2231136D01*
X2230120Y731012D01*
X2229104Y729996D01*
X2228088D01*
X2229104Y728980D01*
X2228088Y727964D01*
X2229104D01*
X2230120Y726948D01*
Y727964D02*
X2230628Y728472D01*
X2231136D01*
X2230628Y728980D01*
X2231136Y729488D01*
X2230628D01*
X2230120Y729996D01*
X2229612Y729488D01*
X2229104D01*
X2229612Y728980D01*
X2229104Y728472D01*
X2229612D01*
X2230120Y727964D01*
X2168500Y837438D02*
X2169516Y838454D01*
X2170532D01*
X2169516Y839470D01*
X2170532Y840486D01*
X2169516D01*
X2168500Y841502D01*
X2167484Y840486D01*
X2166468D01*
X2167484Y839470D01*
X2166468Y838454D01*
X2167484D01*
X2168500Y837438D01*
Y838454D02*
X2169008Y838962D01*
X2169516D01*
X2169008Y839470D01*
X2169516Y839978D01*
X2169008D01*
X2168500Y840486D01*
X2167992Y839978D01*
X2167484D01*
X2167992Y839470D01*
X2167484Y838962D01*
X2167992D01*
X2168500Y838454D01*
X2000400Y793143D02*
X2001416Y794159D01*
X2002432D01*
X2001416Y795175D01*
X2002432Y796191D01*
X2001416D01*
X2000400Y797207D01*
X1999384Y796191D01*
X1998368D01*
X1999384Y795175D01*
X1998368Y794159D01*
X1999384D01*
X2000400Y793143D01*
Y794159D02*
X2000908Y794667D01*
X2001416D01*
X2000908Y795175D01*
X2001416Y795683D01*
X2000908D01*
X2000400Y796191D01*
X1999892Y795683D01*
X1999384D01*
X1999892Y795175D01*
X1999384Y794667D01*
X1999892D01*
X2000400Y794159D01*
X2001520Y870458D02*
X2002536Y871474D01*
X2003552D01*
X2002536Y872490D01*
X2003552Y873506D01*
X2002536D01*
X2001520Y874522D01*
X2000504Y873506D01*
X1999488D01*
X2000504Y872490D01*
X1999488Y871474D01*
X2000504D01*
X2001520Y870458D01*
Y871474D02*
X2002028Y871982D01*
X2002536D01*
X2002028Y872490D01*
X2002536Y872998D01*
X2002028D01*
X2001520Y873506D01*
X2001012Y872998D01*
X2000504D01*
X2001012Y872490D01*
X2000504Y871982D01*
X2001012D01*
X2001520Y871474D01*
X2132330Y928878D02*
X2133346Y929894D01*
X2134362D01*
X2133346Y930910D01*
X2134362Y931926D01*
X2133346D01*
X2132330Y932942D01*
X2131314Y931926D01*
X2130298D01*
X2131314Y930910D01*
X2130298Y929894D01*
X2131314D01*
X2132330Y928878D01*
Y929894D02*
X2132838Y930402D01*
X2133346D01*
X2132838Y930910D01*
X2133346Y931418D01*
X2132838D01*
X2132330Y931926D01*
X2131822Y931418D01*
X2131314D01*
X2131822Y930910D01*
X2131314Y930402D01*
X2131822D01*
X2132330Y929894D01*
X2112670Y909828D02*
X2113686Y910844D01*
X2114702D01*
X2113686Y911860D01*
X2114702Y912876D01*
X2113686D01*
X2112670Y913892D01*
X2111654Y912876D01*
X2110638D01*
X2111654Y911860D01*
X2110638Y910844D01*
X2111654D01*
X2112670Y909828D01*
Y910844D02*
X2113178Y911352D01*
X2113686D01*
X2113178Y911860D01*
X2113686Y912368D01*
X2113178D01*
X2112670Y912876D01*
X2112162Y912368D01*
X2111654D01*
X2112162Y911860D01*
X2111654Y911352D01*
X2112162D01*
X2112670Y910844D01*
X2090420Y439928D02*
X2091436Y440944D01*
X2092452D01*
X2091436Y441960D01*
X2092452Y442976D01*
X2091436D01*
X2090420Y443992D01*
X2089404Y442976D01*
X2088388D01*
X2089404Y441960D01*
X2088388Y440944D01*
X2089404D01*
X2090420Y439928D01*
Y440944D02*
X2090928Y441452D01*
X2091436D01*
X2090928Y441960D01*
X2091436Y442468D01*
X2090928D01*
X2090420Y442976D01*
X2089912Y442468D01*
X2089404D01*
X2089912Y441960D01*
X2089404Y441452D01*
X2089912D01*
X2090420Y440944D01*
X2279650Y495808D02*
X2280666Y496824D01*
X2281682D01*
X2280666Y497840D01*
X2281682Y498856D01*
X2280666D01*
X2279650Y499872D01*
X2278634Y498856D01*
X2277618D01*
X2278634Y497840D01*
X2277618Y496824D01*
X2278634D01*
X2279650Y495808D01*
Y496824D02*
X2280158Y497332D01*
X2280666D01*
X2280158Y497840D01*
X2280666Y498348D01*
X2280158D01*
X2279650Y498856D01*
X2279142Y498348D01*
X2278634D01*
X2279142Y497840D01*
X2278634Y497332D01*
X2279142D01*
X2279650Y496824D01*
X2576830Y384048D02*
X2577846Y385064D01*
X2578862D01*
X2577846Y386080D01*
X2578862Y387096D01*
X2577846D01*
X2576830Y388112D01*
X2575814Y387096D01*
X2574798D01*
X2575814Y386080D01*
X2574798Y385064D01*
X2575814D01*
X2576830Y384048D01*
Y385064D02*
X2577338Y385572D01*
X2577846D01*
X2577338Y386080D01*
X2577846Y386588D01*
X2577338D01*
X2576830Y387096D01*
X2576322Y386588D01*
X2575814D01*
X2576322Y386080D01*
X2575814Y385572D01*
X2576322D01*
X2576830Y385064D01*
X2542540Y390588D02*
X2543556Y391604D01*
X2544572D01*
X2543556Y392620D01*
X2544572Y393636D01*
X2543556D01*
X2542540Y394652D01*
X2541524Y393636D01*
X2540508D01*
X2541524Y392620D01*
X2540508Y391604D01*
X2541524D01*
X2542540Y390588D01*
Y391604D02*
X2543048Y392112D01*
X2543556D01*
X2543048Y392620D01*
X2543556Y393128D01*
X2543048D01*
X2542540Y393636D01*
X2542032Y393128D01*
X2541524D01*
X2542032Y392620D01*
X2541524Y392112D01*
X2542032D01*
X2542540Y391604D01*
X2457450Y615349D02*
X2458466Y616365D01*
X2459482D01*
X2458466Y617381D01*
X2459482Y618397D01*
X2458466D01*
X2457450Y619413D01*
X2456434Y618397D01*
X2455418D01*
X2456434Y617381D01*
X2455418Y616365D01*
X2456434D01*
X2457450Y615349D01*
Y616365D02*
X2457958Y616873D01*
X2458466D01*
X2457958Y617381D01*
X2458466Y617889D01*
X2457958D01*
X2457450Y618397D01*
X2456942Y617889D01*
X2456434D01*
X2456942Y617381D01*
X2456434Y616873D01*
X2456942D01*
X2457450Y616365D01*
X2487754Y604999D02*
X2488770Y606015D01*
X2489786D01*
X2488770Y607031D01*
X2489786Y608047D01*
X2488770D01*
X2487754Y609063D01*
X2486738Y608047D01*
X2485722D01*
X2486738Y607031D01*
X2485722Y606015D01*
X2486738D01*
X2487754Y604999D01*
Y606015D02*
X2488262Y606523D01*
X2488770D01*
X2488262Y607031D01*
X2488770Y607539D01*
X2488262D01*
X2487754Y608047D01*
X2487246Y607539D01*
X2486738D01*
X2487246Y607031D01*
X2486738Y606523D01*
X2487246D01*
X2487754Y606015D01*
X2312670Y662178D02*
X2313686Y663194D01*
X2314702D01*
X2313686Y664210D01*
X2314702Y665226D01*
X2313686D01*
X2312670Y666242D01*
X2311654Y665226D01*
X2310638D01*
X2311654Y664210D01*
X2310638Y663194D01*
X2311654D01*
X2312670Y662178D01*
Y663194D02*
X2313178Y663702D01*
X2313686D01*
X2313178Y664210D01*
X2313686Y664718D01*
X2313178D01*
X2312670Y665226D01*
X2312162Y664718D01*
X2311654D01*
X2312162Y664210D01*
X2311654Y663702D01*
X2312162D01*
X2312670Y663194D01*
X2236470Y646938D02*
X2237486Y647954D01*
X2238502D01*
X2237486Y648970D01*
X2238502Y649986D01*
X2237486D01*
X2236470Y651002D01*
X2235454Y649986D01*
X2234438D01*
X2235454Y648970D01*
X2234438Y647954D01*
X2235454D01*
X2236470Y646938D01*
Y647954D02*
X2236978Y648462D01*
X2237486D01*
X2236978Y648970D01*
X2237486Y649478D01*
X2236978D01*
X2236470Y649986D01*
X2235962Y649478D01*
X2235454D01*
X2235962Y648970D01*
X2235454Y648462D01*
X2235962D01*
X2236470Y647954D01*
X2147570Y640588D02*
X2148586Y641604D01*
X2149602D01*
X2148586Y642620D01*
X2149602Y643636D01*
X2148586D01*
X2147570Y644652D01*
X2146554Y643636D01*
X2145538D01*
X2146554Y642620D01*
X2145538Y641604D01*
X2146554D01*
X2147570Y640588D01*
Y641604D02*
X2148078Y642112D01*
X2148586D01*
X2148078Y642620D01*
X2148586Y643128D01*
X2148078D01*
X2147570Y643636D01*
X2147062Y643128D01*
X2146554D01*
X2147062Y642620D01*
X2146554Y642112D01*
X2147062D01*
X2147570Y641604D01*
X2246630Y522478D02*
X2247646Y523494D01*
X2248662D01*
X2247646Y524510D01*
X2248662Y525526D01*
X2247646D01*
X2246630Y526542D01*
X2245614Y525526D01*
X2244598D01*
X2245614Y524510D01*
X2244598Y523494D01*
X2245614D01*
X2246630Y522478D01*
Y523494D02*
X2247138Y524002D01*
X2247646D01*
X2247138Y524510D01*
X2247646Y525018D01*
X2247138D01*
X2246630Y525526D01*
X2246122Y525018D01*
X2245614D01*
X2246122Y524510D01*
X2245614Y524002D01*
X2246122D01*
X2246630Y523494D01*
X2137410Y573278D02*
X2138426Y574294D01*
X2139442D01*
X2138426Y575310D01*
X2139442Y576326D01*
X2138426D01*
X2137410Y577342D01*
X2136394Y576326D01*
X2135378D01*
X2136394Y575310D01*
X2135378Y574294D01*
X2136394D01*
X2137410Y573278D01*
Y574294D02*
X2137918Y574802D01*
X2138426D01*
X2137918Y575310D01*
X2138426Y575818D01*
X2137918D01*
X2137410Y576326D01*
X2136902Y575818D01*
X2136394D01*
X2136902Y575310D01*
X2136394Y574802D01*
X2136902D01*
X2137410Y574294D01*
X2847340Y497078D02*
X2848356Y498094D01*
X2849372D01*
X2848356Y499110D01*
X2849372Y500126D01*
X2848356D01*
X2847340Y501142D01*
X2846324Y500126D01*
X2845308D01*
X2846324Y499110D01*
X2845308Y498094D01*
X2846324D01*
X2847340Y497078D01*
Y498094D02*
X2847848Y498602D01*
X2848356D01*
X2847848Y499110D01*
X2848356Y499618D01*
X2847848D01*
X2847340Y500126D01*
X2846832Y499618D01*
X2846324D01*
X2846832Y499110D01*
X2846324Y498602D01*
X2846832D01*
X2847340Y498094D01*
D59*
X3177032Y1115060D02*
G03*
X3177032Y1115060I-2032J0D01*
G01*
X3151632D02*
G03*
X3151632Y1115060I-2032J0D01*
G01*
X3126232D02*
G03*
X3126232Y1115060I-2032J0D01*
G01*
X3100832D02*
G03*
X3100832Y1115060I-2032J0D01*
G01*
X3075432D02*
G03*
X3075432Y1115060I-2032J0D01*
G01*
X3050032D02*
G03*
X3050032Y1115060I-2032J0D01*
G01*
X3024632D02*
G03*
X3024632Y1115060I-2032J0D01*
G01*
X2999232D02*
G03*
X2999232Y1115060I-2032J0D01*
G01*
X2973832D02*
G03*
X2973832Y1115060I-2032J0D01*
G01*
X2948432D02*
G03*
X2948432Y1115060I-2032J0D01*
G01*
X2907792D02*
G03*
X2907792Y1115060I-2032J0D01*
G01*
X2882392D02*
G03*
X2882392Y1115060I-2032J0D01*
G01*
X2856992D02*
G03*
X2856992Y1115060I-2032J0D01*
G01*
X2831592D02*
G03*
X2831592Y1115060I-2032J0D01*
G01*
X2806192D02*
G03*
X2806192Y1115060I-2032J0D01*
G01*
X2780792D02*
G03*
X2780792Y1115060I-2032J0D01*
G01*
X2755392D02*
G03*
X2755392Y1115060I-2032J0D01*
G01*
X2729992D02*
G03*
X2729992Y1115060I-2032J0D01*
G01*
X2679192D02*
G03*
X2679192Y1115060I-2032J0D01*
G01*
X2653792D02*
G03*
X2653792Y1115060I-2032J0D01*
G01*
X2628392D02*
G03*
X2628392Y1115060I-2032J0D01*
G01*
X2602992D02*
G03*
X2602992Y1115060I-2032J0D01*
G01*
X2577592D02*
G03*
X2577592Y1115060I-2032J0D01*
G01*
X2552192D02*
G03*
X2552192Y1115060I-2032J0D01*
G01*
X2526792D02*
G03*
X2526792Y1115060I-2032J0D01*
G01*
X2501392D02*
G03*
X2501392Y1115060I-2032J0D01*
G01*
X2399792D02*
G03*
X2399792Y1115060I-2032J0D01*
G01*
X2425192D02*
G03*
X2425192Y1115060I-2032J0D01*
G01*
X2399792Y1089660D02*
G03*
X2399792Y1089660I-2032J0D01*
G01*
X2425192D02*
G03*
X2425192Y1089660I-2032J0D01*
G01*
X2399792Y1064260D02*
G03*
X2399792Y1064260I-2032J0D01*
G01*
X2425192D02*
G03*
X2425192Y1064260I-2032J0D01*
G01*
X2399792Y1038860D02*
G03*
X2399792Y1038860I-2032J0D01*
G01*
X2425192D02*
G03*
X2425192Y1038860I-2032J0D01*
G01*
X2399792Y1013460D02*
G03*
X2399792Y1013460I-2032J0D01*
G01*
X2425192D02*
G03*
X2425192Y1013460I-2032J0D01*
G01*
X2399792Y988060D02*
G03*
X2399792Y988060I-2032J0D01*
G01*
X2425192D02*
G03*
X2425192Y988060I-2032J0D01*
G01*
X2399792Y962660D02*
G03*
X2399792Y962660I-2032J0D01*
G01*
X2425192D02*
G03*
X2425192Y962660I-2032J0D01*
G01*
X2399792Y937260D02*
G03*
X2399792Y937260I-2032J0D01*
G01*
X2425192D02*
G03*
X2425192Y937260I-2032J0D01*
G01*
X2399792Y911860D02*
G03*
X2399792Y911860I-2032J0D01*
G01*
X2425192D02*
G03*
X2425192Y911860I-2032J0D01*
G01*
X2399792Y886460D02*
G03*
X2399792Y886460I-2032J0D01*
G01*
X2425192D02*
G03*
X2425192Y886460I-2032J0D01*
G01*
X2399792Y861060D02*
G03*
X2399792Y861060I-2032J0D01*
G01*
X2425192D02*
G03*
X2425192Y861060I-2032J0D01*
G01*
X2399792Y835660D02*
G03*
X2399792Y835660I-2032J0D01*
G01*
X2425192D02*
G03*
X2425192Y835660I-2032J0D01*
G01*
X2399792Y810260D02*
G03*
X2399792Y810260I-2032J0D01*
G01*
X2425192D02*
G03*
X2425192Y810260I-2032J0D01*
G01*
X2399792Y784860D02*
G03*
X2399792Y784860I-2032J0D01*
G01*
X2425192D02*
G03*
X2425192Y784860I-2032J0D01*
G01*
Y759460D02*
G03*
X2425192Y759460I-2032J0D01*
G01*
X2399792D02*
G03*
X2399792Y759460I-2032J0D01*
G01*
X2425192Y734060D02*
G03*
X2425192Y734060I-2032J0D01*
G01*
X2399792D02*
G03*
X2399792Y734060I-2032J0D01*
G01*
X2425192Y708660D02*
G03*
X2425192Y708660I-2032J0D01*
G01*
X2399792D02*
G03*
X2399792Y708660I-2032J0D01*
G01*
X2425192Y683260D02*
G03*
X2425192Y683260I-2032J0D01*
G01*
X2399792D02*
G03*
X2399792Y683260I-2032J0D01*
G01*
X2450592Y632460D02*
G03*
X2450592Y632460I-2032J0D01*
G01*
X2475992D02*
G03*
X2475992Y632460I-2032J0D01*
G01*
X2501392D02*
G03*
X2501392Y632460I-2032J0D01*
G01*
X2526792D02*
G03*
X2526792Y632460I-2032J0D01*
G01*
X2552192D02*
G03*
X2552192Y632460I-2032J0D01*
G01*
X2577592D02*
G03*
X2577592Y632460I-2032J0D01*
G01*
X2602992D02*
G03*
X2602992Y632460I-2032J0D01*
G01*
X2628392D02*
G03*
X2628392Y632460I-2032J0D01*
G01*
X2679192D02*
G03*
X2679192Y632460I-2032J0D01*
G01*
X2704592D02*
G03*
X2704592Y632460I-2032J0D01*
G01*
X2729992D02*
G03*
X2729992Y632460I-2032J0D01*
G01*
X2755392D02*
G03*
X2755392Y632460I-2032J0D01*
G01*
X2780792D02*
G03*
X2780792Y632460I-2032J0D01*
G01*
X2806192D02*
G03*
X2806192Y632460I-2032J0D01*
G01*
X2831592D02*
G03*
X2831592Y632460I-2032J0D01*
G01*
X2856992D02*
G03*
X2856992Y632460I-2032J0D01*
G01*
X2907792D02*
G03*
X2907792Y632460I-2032J0D01*
G01*
X2933192D02*
G03*
X2933192Y632460I-2032J0D01*
G01*
X2958592D02*
G03*
X2958592Y632460I-2032J0D01*
G01*
X2983992D02*
G03*
X2983992Y632460I-2032J0D01*
G01*
X3009392D02*
G03*
X3009392Y632460I-2032J0D01*
G01*
X3034792D02*
G03*
X3034792Y632460I-2032J0D01*
G01*
X3060192D02*
G03*
X3060192Y632460I-2032J0D01*
G01*
X3085592D02*
G03*
X3085592Y632460I-2032J0D01*
G01*
X2317242Y939090D02*
G03*
X2317242Y939090I-2032J0D01*
G01*
Y1009090D02*
G03*
X2317242Y1009090I-2032J0D01*
G01*
X2318512Y1127200D02*
G03*
X2318512Y1127200I-2032J0D01*
G01*
Y1057200D02*
G03*
X2318512Y1057200I-2032J0D01*
G01*
D60*
X2316226Y939090D02*
G03*
X2316226Y939090I-1016J0D01*
G01*
Y1009090D02*
G03*
X2316226Y1009090I-1016J0D01*
G01*
X2317496Y1127200D02*
G03*
X2317496Y1127200I-1016J0D01*
G01*
Y1057200D02*
G03*
X2317496Y1057200I-1016J0D01*
G01*
M02*
